<?xml version="1.0" encoding="UTF-8"?><svg id="Layer_2" xmlns="http://www.w3.org/2000/svg" viewBox="0 0 491.21 398.29"><defs><style>.cls-1{stroke-width:0px;}</style></defs><g id="Layer_1-2"><path class="cls-1" d="m3.77,244.34c0-18.49.1-36.98-.03-55.47-.13-18.13,1.39-36.53-1.19-54.33C-2.05,102.8,1.28,71.1.02,39.42c-.28-7.16,1.89-9.62,9.13-10.22,14.86-1.23,29.75-2.06,44.61-3.23,9.4-.74,18.76-1.89,28.16-2.67,3.53-.29,3.9-2.16,3.42-5.04-1.56-9.44-.57-11.28,9.17-13.29,4.87-1.01,10.11-1.02,15.09-.56,5.59.52,8.05,3.71,8.6,9.24.68,6.82,1.89,7.87,8.73,7.51,19.88-1.05,39.74-2.33,59.63-3.09,14-.54,27.35-4.4,41-6.72,11.26-1.91,23.03-.82,34.57-1.04,12.23-.24,24.48-.09,36.68-.82,7.16-.43,14.29-3.52,21.32-3.17,9.43.46,17.95-1.57,26.9-3.92,14.95-3.93,30.25-2.37,45.38.25,3.06.53,6.49.98,9.37.16,8.15-2.32,14.36.13,20.22,5.83,15.6,15.16,31.46,30.05,47.23,45.03,5.78,5.5,11.87,10.7,17.28,16.54,2.24,2.42,4.27,6.13,4.32,9.28.35,24.83.68,49.68-.11,74.48-.23,7.28-3.46,14.72-6.45,21.59-3.07,7.05-4.65,14.02-4.09,21.66.53,7.28.68,14.58.94,21.88.39,10.96.79,21.92,1.09,32.88.71,26.42,1.42,52.84,2,79.26.21,9.58-.05,19.17.09,28.76.05,3.74-2.09,5.03-5.19,5.35-7.9.8-15.82,1.47-23.73,2.16-18.46,1.6-36.93,3.23-55.4,4.73-13.71,1.11-27.43,2-41.14,3.07-15.85,1.24-31.69,2.62-47.55,3.88-10.41.83-20.84,1.47-31.24,2.32-18.8,1.54-37.59,3.23-56.4,4.74-11.07.89-22.17,1.41-33.24,2.34-16.99,1.42-33.96,3.04-50.93,4.57-11.7,1.06-23.41,2.08-35.11,3.17-5.93.55-11.87,1.13-17.78,1.83-5.81.69-10.25-.67-14.38-5.52-12.23-14.38-25.18-28.14-37.65-42.32-9.07-10.32-18.08-20.73-26.56-31.54-2.36-3.01-3.77-7.57-3.84-11.45-.37-20.98-.17-41.96-.17-62.95h-.21ZM251.83,55.22c.73-.39,1.9-.62,2.1-1.2.78-2.22,1.68-4.56,1.56-6.81-.04-.72-3.08-1.63-4.81-1.81-2.61-.27-5.3-.13-7.92.17-1.07.12-2.57.92-2.9,1.79-.38,1,.01,2.6.64,3.58.65,1.03,1.97,1.64,3,2.44-8.58.25-17.37-.3-25.66,6.53,11.33,4.8,21.89,5.64,32.92,3.84-.93.93-1.87,1.64-2.89,1.77-5.72.74-11.45,1.46-17.2,1.98-18.29,1.64-36.57,3.64-54.9,4.62-12.11.65-24.4,2.03-36.62-1.81-.36,4.61,2.51,6.29,5.59,6.78,4.71.76,9.58,1.21,14.33.91,18.01-1.11,36.01-2.54,54-3.92,6.43-.5,12.85-1.09,19.25-1.86,6.15-.75,12.27-1.79,18.4-2.7.07.18.14.35.21.53-1.73.82-3.45,1.63-5.18,2.45,5.89-.24,11.58-1.08,17.15-2.4,1.44-.34,2.53-2.16,3.78-3.3-1.38-1.21-2.58-2.98-4.18-3.46-1.67-.5-3.72.24-4.92.37-2.05-3.02-3.9-5.76-5.76-8.49Zm231.14,66.85c0-12.33.14-24.66-.15-36.99-.05-1.94-2-5.45-3.13-5.47-6.43-.14-12.89.48-19.32.99-15.01,1.19-30.01,2.53-45.02,3.67-11.57.88-23.16,1.5-34.73,2.32-16.84,1.19-33.68,2.5-50.52,3.69-11.91.84-23.83,1.44-35.74,2.34-19.48,1.47-38.93,3.21-58.42,4.63-16.86,1.23-33.75,2.09-50.61,3.26-22.14,1.54-44.27,3.27-66.4,4.86-10.91.78-21.84,1.38-32.75,2.17-5.83.42-7.03,1.86-7.02,7.87.03,17.99.05,35.97.12,53.96,0,1.65.25,3.29.45,4.93,1.17,9.35,3.25,18.69,3.39,28.05.61,39.12.69,78.25.88,117.37.1,20.16.02,40.32.02,60.49,0,13.29-.01,13.16,13.59,11.8,26.83-2.69,53.67-5.31,80.53-7.77,23.24-2.13,46.51-4.01,69.76-5.99,23.42-2,46.84-4.13,70.27-5.97,19.99-1.57,40.01-2.72,60-4.24,14.68-1.11,29.34-2.59,44.02-3.79,14.2-1.16,28.47-1.69,42.61-3.39,10.5-1.27,12.46,1.6,12.16-12.74-.3-14.63-.7-29.25-.97-43.88-.39-21.45-.62-42.91-1.05-64.36-.26-13.12-.22-26.29-1.36-39.34-.71-8.22.08-15.77,3.6-23.11,4.45-9.29,6.53-18.96,5.89-29.37-.53-8.63-.11-17.32-.11-25.99ZM12.61,34.08c-.18.7-.36,1.39-.54,2.09,1,1.45,1.83,3.08,3.04,4.32,19.05,19.56,38.2,39.01,57.18,58.63,3.92,4.05,8.15,5.57,13.78,5.05,14.19-1.29,28.41-2.16,42.62-3.11,11.58-.77,23.18-1.29,34.75-2.11,17.35-1.22,34.68-2.65,52.02-3.92,10.25-.75,20.51-1.31,30.75-2.07,16.18-1.2,32.34-2.54,48.52-3.72,11.57-.84,23.16-1.45,34.74-2.29,16.51-1.19,33.01-2.5,49.51-3.72,10.92-.81,21.84-1.47,32.75-2.33,20.3-1.59,40.6-3.26,60.89-4.94,2.87-.24,5.72-.71,9.87-1.23-2.01-2.51-3.11-4.27-4.58-5.64-5.46-5.07-11.14-9.92-16.57-15.03-15.08-14.2-30.14-28.43-45.06-42.79-4.34-4.18-9.47-4.39-14.82-3.88-.98.09-1.83,1.52-2.06,1.73,4.68,3.49,8.95,6.43,12.92,9.73,2.67,2.22,4.84,5.03,7.37,7.45,13.33,12.75,26.74,25.4,39.98,38.24,1.33,1.29,2.12,3.65,2.13,5.52,0,.72-2.83,1.98-4.44,2.1-11.41.83-22.83,1.38-34.25,2.12-10.92.71-21.83,1.47-32.74,2.33-14.69,1.16-29.35,2.54-44.04,3.62-16.37,1.2-32.76,2.09-49.13,3.27-20.97,1.51-41.93,3.24-62.9,4.74-12.57.9-25.16,1.43-37.73,2.34-15.35,1.11-30.69,2.44-46.04,3.69-16.5,1.35-33,2.66-49.49,4.12-6.14.54-11.23-.07-16.04-5.16-11.3-11.94-23.41-23.11-35.17-34.62-6.43-6.29-12.81-12.63-19.21-18.95-1.69-1.67-3.32-3.75.15-4.78,2.83-.84,6-.54,9.02-.75.06.49.11.97.17,1.46-1.26.88-2.52,1.75-3.85,2.68,18.03,18.1,35.68,36,53.63,53.59,1.97,1.93,5.72,3.12,8.54,2.94,14.36-.88,28.68-2.41,43.03-3.55,21.96-1.75,43.92-3.42,65.89-5.01,19.66-1.42,39.34-2.66,59.01-4.02,18.84-1.31,37.68-2.61,56.51-4.02,16.68-1.25,33.35-2.7,50.03-3.94,24.3-1.8,48.6-3.47,72.9-5.28,3.02-.23,6.01-1.01,9.54-1.62-.91-1.58-1.22-2.57-1.88-3.21-14.33-13.9-28.7-27.77-43.08-41.61-2-1.93-4.01-3.92-6.3-5.45-.94-.62-3.22-.6-3.86.09-.7.76-.81,3.09-.15,3.92,2.95,3.72,6.08,7.33,9.48,10.64,8.17,7.93,16.6,15.6,24.78,23.52,2.11,2.05,3.69,4.64,6.24,7.91-14.61,1.47-27.74,2.85-40.89,4.08-11.54,1.08-23.08,2.18-34.64,2.87-4.47.27-9.33,1.53-13.25-2.36-4.72-4.68-9.65-9.14-14.41-13.78-7.16-6.98-14.22-14.04-21.37-21.03-.66-.64-1.64-.95-2.47-1.42-.3,1.53-.06,2.44.51,3.02,11.07,11.02,22.25,21.93,33.25,33.02,3.97,4,8.53,5.2,13.96,4.67,8.4-.81,16.84-1.3,25.25-2.03,10.55-.92,21.09-2,31.64-2.91,6.45-.56,12.92-.94,19.38-1.4-1.2,1.54-2.55,2.19-3.93,2.3-15.04,1.14-30.08,2.18-45.12,3.27-9.91.72-19.86,1.19-29.72,2.39-4.9.6-8.75-.33-12.2-3.69-12.49-12.18-24.93-24.43-37.6-36.43-1.87-1.77-4.86-3.22-7.38-3.29-5.44-.16-10.94.46-16.34,1.23-1.82.26-3.44,1.95-6.08,3.56,4.2,3.93,7.7,6.96,10.93,10.28,7.4,7.6,14.71,15.28,21.92,23.05,1.02,1.1,1.43,2.85,1.79,4.37.05.2-1.84,1.2-2.87,1.27-10.58.75-21.17,1.33-31.75,2.07-8.09.57-16.17,1.8-24.26,1.83-10.08.05-20.2,3.61-30.67.51,1.77,1.11,3.54,2.21,5.45,3.41-3.54,1.36-6.09.05-8.18-2.61-2.77-3.54-6.54-4.25-10.7-3.89-3.46.3-7.02.25-10.34,1.1-5.54,1.42-12.6-1.45-16.32,5.61-.41.78-2.43.91-3.72.99-15.87,1.06-31.74,2.07-47.62,3.06-7.45.46-15,.31-22.34,1.45-4.82.75-8.55-.24-11.82-3.28-15.48-14.33-30.88-28.75-46.23-43.23-1.32-1.25-2.04-3.13-3.03-4.72,1.94-.76,3.83-1.97,5.83-2.18,5.6-.59,11.27-.56,16.87-1.19,2.17-.25,4.2-1.63,6.3-2.5-.21-.61-.41-1.22-.62-1.84-21.66,1.76-43.33,3.52-64.99,5.28Zm-4.83,6.2l-1.32.71c-.14,1.93-.47,3.86-.4,5.78,1.06,30.67.16,61.3,2.29,92.07,3.04,44.09,1.37,88.51,1.67,132.78.08,11.33.02,22.66,0,33.98-.01,5.55,1.81,10.24,5.56,14.44,6.95,7.79,13.63,15.82,20.4,23.77,11.16,13.11,22.25,26.28,33.52,39.3,2.27,2.62,5.22,4.64,8.88,7.82.29-3.37.56-5.13.58-6.89.29-33.78.62-67.56.8-101.34.12-23.82.09-47.65-.03-71.47-.03-4.78-.77-9.56-1.21-14.34-1.17-12.84-2.88-25.65-3.41-38.52-.64-15.63-.16-31.31-.5-46.95-.05-2.53-1.19-5.65-2.92-7.43-16.97-17.41-34.15-34.62-51.34-51.82-4.08-4.08-8.38-7.93-12.58-11.89Zm188.88,17.25c.19-.61.38-1.21.57-1.82-6.52-7.85-15.03-14.08-21.35-23.54,5.39,4.69,9.92,8.49,14.28,12.47,4.22,3.85,8.28,7.88,12.41,11.83.4-.44.8-.88,1.2-1.32-8.67-9.1-17.34-18.2-26-27.29.2-.63.39-1.26.59-1.88,8.7-.7,17.39-1.39,26.36-2.11-2.55-2.85-50.62-1.18-59.07,1.99,2.49,1.06,4.37,1.91,6.29,2.66,4.89,1.91,7.33,5.39,7.12,10.7-.08,1.99-.01,3.99-.01,5.99,0,7.38,2.91,12.08,10.28,12.72,9.03.78,18.22-.18,27.34-.39Zm-77.21-13.42c8.16-1.18,17.21-2.12,26.07-3.97,3.29-.69,6.12-3.53,9.16-5.39-3.14-2.07-6.1-5.51-9.45-5.95-9.1-1.19-18.4-1.77-27.56-1.33-8,.38-15.98,2.21-23.83,3.98-2.1.48-3.72,3.11-5.56,4.76,2,1.65,3.8,4.36,6.02,4.76,7.95,1.43,16.05,2.07,25.14,3.13Zm97.93,18.96c.21-.6.41-1.19.62-1.79-2.02-.99-3.99-2.67-6.08-2.83-3.93-.29-7.92.55-11.88.47-10.02-.19-19.77,4.01-29.97,1.45-3.8-.95-7.91-1.23-11.82-.98-6.62.43-13,1.98-18.37,7.7,2.13,1.11,3.73,2.49,5.5,2.78,4.39.72,8.85,1.04,13.3,1.33,8.72.58,17.14-5.26,26.04-1.23.14.06.33,0,.49,0,12.03-.91,24.05-1.79,36.07-2.76,1.65-.13,3.27-.74,4.9-1.13-.07-.65-.14-1.31-.2-1.96-14.51,1-29.03,2-43.54,2.99-.03-.51-.07-1.01-.1-1.52,11.68-.84,23.35-1.68,35.03-2.52Zm-6.33-40.81c9.03,9.33,55.68,7.13,64.01-3.32-3.28-1.23-6.19-2.71-9.27-3.41-12.78-2.87-25.67-1.92-38.39.19-5.58.93-11.94,1.14-16.36,6.53ZM365.61,3.6c-7.11,1.5-15.05,2.83-22.75,5.01-2.57.73-4.53,3.61-6.78,5.5,2.53,1.64,5.03,3.32,7.61,4.88.51.31,1.3.15,1.96.24,4.41.55,8.88,1.87,13.21,1.52,9.8-.8,19.57-2.19,29.26-3.9,1.84-.32,3.23-3.18,4.82-4.86-1.78-1.54-3.36-3.98-5.39-4.46-6.87-1.62-13.9-2.54-21.95-3.92Zm-40.49,16.62c0,.71,0,1.41,0,2.12-2.86.27-5.89,1.29-8.55.67-10.74-2.49-21.35-.92-31.97.38-1.61.2-3.02,2.09-4.52,3.2,1.73.82,3.49,2.39,5.18,2.32,10.74-.43,21.45-1.4,32.19-1.84,12.96-.53,13.72-1.15,12.19-13.82-.17-1.37-1.89-3.66-2.86-3.64-5.83.09-11.67.56-17.46,1.33-1.21.16-3.24,2.36-3.04,3.16.35,1.42,1.94,3.19,3.34,3.56,3.47.91,7.13,1.07,10.7,1.6,1.61.24,3.19.64,4.78.97Zm61.8,43.28c5.28-.83,9.74-1.25,14.05-2.31,3.8-.93,7.58-2.26,11.05-4.04,1.22-.63,1.48-3.11,2.18-4.75-2.12-.61-4.21-1.36-6.37-1.75-.55-.1-1.32.9-1.96,1.42-6.55,5.29-14.19,6-22.06,4.74-4.53-.72-8.95-2.2-13.36-3.55-2.9-.89-5.95-1.5-7.02,1.87-.29.9,2.89,3.82,4.87,4.37,6.34,1.75,12.86,2.81,18.61,4Zm-265.02,7.11c2.57-.49,5.76-.23,7.55-1.68,1.77-1.44,2.86-4.62,2.83-7.01-.02-1.53-2.51-4.09-4.13-4.3-3.53-.44-7.21.48-10.83.55-3.13.06-3.86,1.83-4.06,4.44-.51,6.69.5,7.62,8.64,8Zm179.65-50.96c.13-.73.26-1.46.39-2.19-1.89-1.05-3.72-2.88-5.68-3.01-5.12-.36-10.3-.13-15.44.19-1.29.08-2.5,1.39-3.75,2.13,1.16,1.47,2.34,4.21,3.48,4.19,7-.09,13.99-.8,20.99-1.31Zm89.04,22.31c.55,0,1.11,0,1.66,0,0,2.9-.2,5.83.1,8.7.11,1.03,1.34,2.03,2.26,2.81.14.12,1.93-.98,1.99-1.61.53-5.94.55-11.85-2.43-18.75-1.42,2.96-2.23,4.67-3.15,6.6-.98-1.56-1.68-2.7-2.39-3.84-.52.11-1.04.21-1.56.32.52,5.77,1.03,11.54,1.55,17.31.66-.02,1.32-.05,1.97-.07v-11.47Zm-263.89,3.41c-3.88-.03-4.5,2.86-4.26,5.22.16,1.57,2,3.86,3.46,4.2,2.25.52,4.91-.06,7.22-.74,3.37-.99,4.64-4.5,2.73-7.43-.65-1.01-2.26-1.83-3.47-1.88-.75-.03-1.64,1.5-2.34,2.43-1.33,1.74-2.58,3.55-3.87,5.33-.55-.32-1.09-.65-1.64-.97.65-1.86,1.3-3.71,2.16-6.16Zm264.82-20.51c1.91,6.74,5.2,7.25,10.05,2.4-7.13-4.98-22.12-4.02-27.49,2.62,4.53.58,8.45,1.08,12.38,1.59l.23-1.44c-2.21-.51-4.42-1.02-6.63-1.53,0-.58-.01-1.17-.02-1.75,3.74-.61,7.48-1.22,11.5-1.88Zm11.77,6.86c-4.16,2.61-4.31,10.34-.37,19.02,3.68-2.55,3.9-13.98.37-19.02Zm-153.79,9.45c4.52.65,6.61-1.39,6.45-5.85-.1-2.76-.93-4.85-4.29-4.86-5.82-.03-7.56,1.35-7.67,5.89-.1,4,1.73,5.47,5.51,4.82Zm-165.48,3.76c0-3.01.26-4.86-.07-6.59-.38-1.96-1.28-3.81-1.96-5.71-2.14,1.37-4.71,2.4-6.21,4.29-.54.68,1.16,3.7,2.45,5.1,1.09,1.19,3.05,1.6,5.79,2.9Zm33.28.43c-.74,2.49-1.06,4.44-1.95,6.09-.31.58-2.93.64-2.95.55-.56-2.27-.93-4.59-1.39-7.29-2.98,2.4-2.82,6.06-1.2,7.92,1.56,1.78,5.1,2.13,7.85,2.41.96.1,2.9-1.75,3.06-2.89.41-3-.12-5.99-3.43-6.79Zm257.68,7.12c3.5-5.62,2.57-16.49-2.23-18.35,2.2,6.14-3.57,12.41,2.23,18.35Zm-14.4-11.5c-.04-.71-.07-1.42-.11-2.13-1.8-1.12-3.58-3.03-5.4-3.07-1.22-.02-3.72,2.9-3.47,4.01.43,1.93,2.33,4.45,4.05,4.86,1.28.3,3.26-2.34,4.93-3.67Zm-100.18-9.33c-.56.3-1.12.59-1.68.89.94,2.1,1.57,5.69,2.88,5.96,2.24.46,5.57-.48,7.24-2.08,1.89-1.83,2.12-4.97-.88-7.2-1.85,2.18-3.49,4.13-5.32,6.29-.94-1.62-1.59-2.74-2.24-3.86Zm99.56,8.47c2.8,2.38,4.23,3.6,5.67,4.83,1.44-1.74,3.67-3.34,4.03-5.28.2-1.09-2.5-3.47-4.23-3.9-1.05-.26-2.75,2.09-5.47,4.35Zm-150.41,1.38c-1.12,6.73,1.37,10.03,6.91,9.12,1.1-6.93-.06-8.47-6.91-9.12Zm29.65-9.28c-1.25,2.62-1.9,6.46-3.49,6.9-5.43,1.49-2.81-4.7-5.76-6.4.07,2.9.15,6.64,1.95,7.86,1.85,1.26,6.33,1.11,7.92-.34,2.12-1.93,2.18-5.65-.61-8.02Zm36.84,8.08c-4.41,1.12-7.06,3.28-5.71,7.78.28.92,2.98,2.13,3.78,1.71,4.01-2.12,3.87-5.55,1.92-9.49Zm-176.68,5.5c-1.95,3.78-1.38,7.06,2.76,8.08,1.52.37,4.47-.82,5.14-2.13,1.26-2.47.82-5.31-2.47-6.49-.79,2.27-1.51,4.32-2.22,6.38-.54-.07-1.08-.14-1.62-.2-.53-1.88-1.06-3.76-1.59-5.64Zm4.66-25.05c2.65,2.12,3.99,3.78,5.67,4.26.74.21,3.26-2.26,3.07-3.03-.52-2.02-2.08-3.78-3.22-5.65-1.41,1.13-2.81,2.25-5.51,4.42Zm34.6,27.58l-1.08.91c.98,1.3,2.46,3.85,2.85,3.69,2.69-1.08,5.33-2.52,7.59-4.32.62-.5-.07-2.64-.16-4.03l-1.34.06c-1.42,1.92-2.85,3.84-4.33,5.84-1.37-.83-2.45-1.48-3.53-2.14Zm-46.73-18.95c0-3.97.12-6.87-.08-9.76-.05-.77-.98-1.62-1.71-2.15-.29-.21-1.32.17-1.71.58-1.89,1.96-.39,8.96,3.49,11.34Zm-1.73,34.24c.56-.16,1.12-.32,1.68-.49,0-2.38.3-4.81-.13-7.1-.2-1.04-1.84-1.81-2.83-2.7-.61,1.13-1.93,2.44-1.69,3.34.64,2.41,1.94,4.64,2.98,6.94Zm.47-21.31c-.96,1.83-2.2,3.25-2.35,4.78-.13,1.24.78,3.38,1.73,3.73.99.36,3.57-.77,3.73-1.59.58-2.96-.22-5.7-3.11-6.92Zm243.37-11.02c.38,4.17-1.25,8.39,4.35,10.11.76-4.29,1.61-8.03-4.35-10.11Zm16.3-5.7l-1.48,1.47c1.89,1.3,3.64,3.07,5.73,3.72,1.02.32,3.39-1.18,3.84-2.35.38-1-1.1-2.72-1.79-4.2-1.75,2.09-2.86,3.42-4.39,5.24-1.01-2.05-1.46-2.96-1.92-3.87Zm-77.4,8.49c4.71-4.9,4.53-6.88,0-9.62v9.62Zm-167.93-12.32c-1.33-1.77-2.3-3.06-3.27-4.36-.77,1.02-2.29,2.17-2.15,3.04.33,1.97,1.48,3.8,2.3,5.69.93-1.3,1.86-2.61,3.12-4.37Zm132.62,26.91c-2.5-1.39-3.87-2.47-5.39-2.82-.49-.11-2.21,2.2-2,2.54.91,1.45,2.25,2.72,3.68,3.69.22.15,1.71-1.54,3.72-3.41ZM89.82,11.45c2.84.97,5.2,1.78,8.04,2.75-1.94-6.66-3.41-7.23-8.04-2.75Zm22-.18c-.09-.79-.19-1.59-.28-2.38-1.9.11-3.8.22-5.71.32l.2,3.15,5.79-1.09Zm249.26,17.71c2.44.5,4.36,1.51,5.67.99,1.35-.53,2.11-2.57,3.12-3.94l-.91-.72c-2.21,1.03-4.42,2.06-7.88,3.67Z"/><path class="cls-1" d="m102.75,247.51c0-35.81,0-71.63,0-107.44,0-6.38.2-6.41,6.68-6.87,22.8-1.61,45.58-3.42,68.38-5.04,20.66-1.47,41.33-2.7,61.99-4.2,21.3-1.55,42.59-3.29,63.88-4.96,21.29-1.67,42.59-3.36,63.88-5.03,20.96-1.65,41.92-3.25,62.87-4.97,4.11-.34,8.18-1.08,12.27-1.68,6.15-.9,8.56,1.13,8.59,7.28.32,70.27.64,140.54.95,210.8,0,1.83-.09,3.66-.17,5.49-.18,3.95-2.35,6.14-6.19,6.48-8.07.71-16.16,1.26-24.24,1.91-16.17,1.3-32.33,2.68-48.5,3.92-10.24.79-20.5,1.33-30.74,2.09-17.17,1.27-34.34,2.66-51.51,3.93-11.24.83-22.49,1.39-33.72,2.3-17.97,1.46-35.93,3.17-53.9,4.65-10.73.88-21.5,1.38-32.23,2.26-18.97,1.56-37.92,3.29-56.88,4.92-1.65.14-3.32.11-4.99.11-4.35.02-6.23-2.13-6.2-6.5.09-14.99.03-29.99.03-44.98,0-21.49,0-42.98,0-64.47h-.22Zm288.63-34.95c-3.25-7.59-6.09-14.96-9.54-22.02-2.41-4.93-2.35-8.55,1.71-12.84,12.99-13.75,3.73-34.92-11.59-36.63-6.73-.75-13.6-.66-20.38-.38-3.63.15-5.68,2.31-5.64,6.62.19,21.33.08,42.66.1,63.99,0,1.14.2,2.27.3,3.44,1.44.43,2.67.98,3.95,1.15,7.31,1,9.76-1.05,9.66-8.2-.05-3.81-.85-7.66-.49-11.41.27-2.78,1.08-6.74,3.01-7.88,3.71-2.19,5.34,1.6,6.56,4.54,2.1,5.04,4.51,10,5.97,15.23,1.63,5.84,5.6,6.28,10.35,5.75,1.76-.2,3.48-.76,6.03-1.35Zm-239.76-22.38c1.13-1.25,1.92-2.31,2.89-3.16,4.95-4.4,6.49-9.96,5.03-16.2-1.7-7.27-5.63-13.19-13.65-13.72-6.68-.44-13.47.58-20.2,1.07-2.6.19-3.46,1.76-3.51,4.41-.14,7.97-.86,15.93-.85,23.89.02,13.3.57,26.6.61,39.9.01,3.7,1.96,4.83,4.85,4.77,5.13-.09,10.28-.33,15.36-.98,20.18-2.57,20.91-23.26,14.43-34.28-1.22-2.07-3.19-3.71-4.96-5.71Zm107.48,133.14c-.58-1.32-1.07-2.71-1.77-3.98-2.87-5.21-5.79-10.39-8.71-15.57-1.81-3.22-3.15-6.56.65-9.21,11.3-7.9,8-33.72-8.58-37.87-6.79-1.7-14.39-.66-21.56-.09-3.51.28-5.16,2.95-5.03,7.19.57,19.59.69,39.19.92,58.79.03,2.61-.19,5.21,3.48,5.22,5.96.01,9.19-1.93,9.26-5.65.1-5.32-.06-10.65.06-15.97.09-3.99,2.02-5.12,5.37-2.88,1.84,1.22,3.43,3.14,4.51,5.09,1.76,3.17,2.92,6.66,4.5,9.93,3.67,7.6,8.67,9.11,16.9,5.01Zm-96.12-94.77c10.03,1.79,13.33-.31,15.24-9.08.64-2.92,1.16-5.32,5.37-5.66,9.9-.79,9.87-1.12,13.64,8.46,1.39,3.53,5.45,4.77,10.25,3.51,3.49-.91,3.89-2.89,3.06-5.96-5.64-21.04-11.18-42.12-16.86-63.15-.39-1.46-1.37-3.3-2.6-3.91-6.32-3.12-14.85,1.84-16.02,8.81-2.44,14.48-5.06,28.93-7.66,43.39-1.4,7.77-2.91,15.52-4.42,23.59Zm136.07-47.29c0,10.48-.03,20.97.01,31.45.01,3.53,1.18,6.47,5.35,6.24,8.59-.47,17.18-1.02,25.73-1.95,4.12-.45,4.18-4,3.95-7.26-.26-3.71-2.88-3.42-5.47-3.18-3.45.32-6.92.52-10.35.98-3.79.5-5.2-1.62-5.2-4.81,0-3.96.68-7.92.64-11.87-.03-3.26,1.42-4.56,4.41-4.6,2.83-.05,5.67.11,8.49-.05,4.72-.27,5.81-2.11,5.41-8.01-.29-4.33-3.19-4.25-6.29-4.08-2.98.16-5.98.19-8.95.45-3.49.3-4.74-1.36-4.8-4.64q-.3-15.69,15.09-15.91c5.53-.08,7.89-2.11,7.6-6.84-.32-5.15-4.26-4.81-7.73-4.58-7.42.49-14.83,1.26-22.24,1.85-3.99.32-5.83,2.06-5.72,6.37.24,10.15.08,20.31.09,30.47Zm-14.55,111.44c-.59-.05-1.18-.1-1.77-.15-.57-1.11-1.32-2.17-1.69-3.34-3.01-9.44-5.91-18.91-8.94-28.34-2.57-8-2.68-7.96-10.75-7.62-3.79.16-4.93,1.33-3.6,5.29,6.59,19.7,13.03,39.45,19.28,59.26,1.53,4.84,4.94,4.8,8.62,4.36,3.28-.39,6.7-.19,7.53-5.22,3.5-20.99,7.48-41.9,11.12-62.87.19-1.1-.69-3.11-1.62-3.56-5.62-2.7-11.94,1.19-12.65,7.49-.98,8.7-1.89,17.41-3.09,26.08-.41,2.93-1.6,5.74-2.43,8.61Zm104.78-11.92c.16,0,.32,0,.48.01.43,9.77.96,19.54,1.23,29.31.08,3.04,1.51,4.46,4.19,4.3,7.58-.45,15.16-1.12,22.73-1.8,5-.45,4.28-4.22,3.9-7.44-.42-3.55-2.66-3.22-5.78-3.11-11.76.38-11.19,2.56-11.26-9.67-.05-9.24-.01-9.24,8.93-10.49.81-.11,1.59-.45,2.4-.59,5.09-.91,5.79-2.17,4.61-9.05-.71-4.16-4.05-3.91-6.98-3.54-9,1.16-10.32,2.47-10.74-9.39-.03-1,.05-2-.01-2.99-.22-3.57,1.38-5.09,5-5.14,3.45-.05,6.94-.38,10.33-1.03,3.55-.68,3.08-3.75,2.27-5.99-.52-1.46-2.53-3.48-3.77-3.41-7.41.38-14.79,1.29-22.17,2.04-4.03.41-5.52,2.54-5.43,6.67.24,10.44.08,20.9.08,31.34Zm-200.33,6.76c-.36-4.88-.5-8.85-1-12.78-.51-4.06.93-5.85,5.11-5.82,2.62.02,5.24-.89,7.85-.88,4.9.02,3.84-3.45,4.09-6.29.29-3.33-1.36-4.56-4.47-4.27-6.42.58-12.82,1.31-19.25,1.73-4.25.27-6.15,1.96-6.13,6.47.11,20.13.02,40.26-.12,60.4-.03,4.07,2.9,4.84,5.59,4.72,6.59-.28,13.15-1.24,19.73-1.82,4.3-.38,4.83-3.07,4.68-6.65-.15-3.7-2.18-4.41-5.26-4.06-2.3.27-4.64.35-6.9.78-2.81.54-4.15-.42-4.1-3.29.06-3.99.27-7.99.12-11.97-.14-3.6,1.67-4.61,4.85-4.59,2.48.02,5.04.09,7.44-.42,3.28-.69,5.51-5.48,4.51-9.27-1-3.79-3.97-3.32-6.86-2.97-3.08.36-6.16.63-9.87,1Zm151.18-4.7c.38,3.63.36,8.19,1.41,12.49,2.05,8.35,5.23,16.16,14.2,19.64,7.36,2.85,14.53,2.95,21.31-1.55,3.83-2.54,5.04-7.29,2.86-10.92-2.81-4.68-5.68-1.18-8.36.17-5.8,2.92-10.28,1.76-13.92-3.84-5.34-8.21-4.7-28.53,1.15-36.1,4.21-5.44,8.93-7.24,13.41-5.1,5.59,2.67,6.31,2.4,9.8-3.96,2.37-4.33-1.61-5.63-3.94-7.14-9.39-6.05-23.99-.55-29.91,7.76-5.92,8.32-7.47,17.85-8.01,28.54Zm-211.96,46.95c5.46,3.64,11.32,4.94,17.25,4.08,17.8-2.58,26.89-14.49,15.55-30.89-3.11-4.5-8.28-7.51-11.96-11.69-2.75-3.12-5.74-6.76-6.64-10.62-1.49-6.43,6.41-10.33,13.77-6.96,2.98,1.36,4.56.55,6.04-2.03,1.42-2.47,2.63-4.88-.29-6.95-6.25-4.43-13.01-5.49-20.21-2.53-7.31,3.01-12.04,8.11-12.61,16.29-.78,11.19,6.96,17.68,13.86,24.57,2.34,2.33,5.5,4.17,6.98,6.93,1.36,2.54,1.83,6.24,1.12,9.02-.94,3.67-4.78,3.49-7.99,3.2-1.47-.13-2.9-.62-4.36-.89q-7.07-1.3-9.47,5.64c-.27.77-.57,1.53-1.06,2.84Zm135.88-139.72c.06,0,.13,0,.19,0,0,7.32,0,14.63,0,21.95,0,9.57-.01,9.45,9.73,9.06,3.57-.14,4.94-1.39,4.85-5.07-.39-16.44-.51-32.88-.84-49.32-.19-9.68-.29-9.69,9.56-10.52,2.84-.24,5.1-.46,4.61-4.56-.43-3.53-.74-6.4-5.2-6.11-10.07.65-20.14,1.25-30.19,2.07-3.62.29-7,1.35-6.68,6.16.32,4.81,3.45,4.62,7.07,4.32,5.96-.49,6.84.44,6.89,6.57.07,8.49.02,16.97.02,25.46Zm-45.25-28.84c.46,2.14,1.14,3.9,1.18,5.67.44,16.94.8,33.89,1.09,50.84.06,3.31.01,6.83,4.35,6.96,8.74.26,10.5-.95,10.33-6.78-.48-16.26-1.06-32.51-1.77-48.76-.37-8.35.15-9.27,8.18-9.89,2.84-.22,4.37-1.25,3.99-4.28-.22-1.77-.4-3.54-.65-5.75-11.91.52-23.48,1-35.05,1.59-1.26.06-3.07.5-3.6,1.38-1.16,1.92-2.14,4.23-2.18,6.4-.01.85,2.63,2.31,4.19,2.51,3.09.4,6.28.12,9.92.12Zm195.95-1.62c-.68.1-1.37.2-2.05.3-1.89-3.9-3.67-7.86-5.71-11.69-1.62-3.03-3.26-6.14-5.44-8.74-2.08-2.48-9.35-3.06-10.39-.76-.76,1.69.64,4.69,1.69,6.81,4.01,8.13,10.05,15.73,12,24.28,2.64,11.58,2.41,23.86,2.98,35.85.15,3.08-.08,5.58,3.58,6.24,4.22.77,8.58-1.41,8.87-4.75.33-3.88.28-7.82.07-11.71-.51-9.61-1.23-19.29,2.64-28.38,3.49-8.21,7.73-16.11,11.43-24.23.95-2.09,1.11-4.55,1.63-6.84-2.91-.14-6.18-1.18-8.6-.17-2.16.9-3.78,3.87-4.95,6.27-2.79,5.74-5.18,11.67-7.74,17.52Zm-85.75,101.7c0-2.33.05-4.66-.01-6.99-.08-2.87.83-6.23-4.15-6.07-8.76.28-8.73.13-8.79,6.01-.19,20.59-.45,41.18-.48,61.77,0,1.36,1.52,3.52,2.78,3.93,6.07,1.97,10.64-1.58,10.65-7.97.03-16.9,0-33.79.01-50.69Z"/><path class="cls-1" d="m101.24,91.72c-1.78-.93-3.87-1.52-5.29-2.83-15.15-14.07-30.2-28.25-45.25-42.43-1.1-1.04-2-2.28-3-3.43l1.54-1.52c17.62,16.3,35.24,32.6,52.87,48.9-.29.44-.58.88-.87,1.31Z"/><path class="cls-1" d="m176.02,86.92c-23.62,1.82-47.23,3.63-70.85,5.45-.04-.66-.09-1.32-.13-1.98,23.68-1.64,47.37-3.27,71.05-4.91-.02.48-.04.96-.06,1.44Z"/><path class="cls-1" d="m268.68,78.79c14.18-1,28.36-2.01,42.54-3.01.03.45.07.9.1,1.35-14.12,1.14-28.24,2.28-42.35,3.42-.1-.59-.19-1.17-.29-1.76Z"/><path class="cls-1" d="m62.22,348.67c-3.08-2.86-6.34-5.56-9.2-8.62-12.12-12.98-24.24-25.96-36.05-39.21-1.87-2.1-3.03-5.6-3.06-8.47-.25-21.65-.01-43.3-.17-64.95-.22-30.29-.63-60.57-1.01-90.85-.26-20.79-.63-41.58-.95-62.37-.02-1.48,0-2.96,0-6.27,3.74,3.16,6.62,5.15,8.96,7.64,13.19,14.02,26.2,28.21,39.38,42.24,2.75,2.93,4.19,5.96,4.19,10.14-.11,71.48-.07,142.96-.08,214.45,0,1.75-.14,3.49-.22,5.24l-1.77,1.06Zm-9.31-228.96c-.9,10.36-2.48,20.69-2.55,31.03-.16,24.28.54,48.56.64,72.85.13,34.31.03,68.62.03,102.94,0,3.18-.27,6.5,3.57,8.29,2.1-20.35.46-212.07-1.69-215.11Zm-19.78,193.25c.59-.03,1.18-.07,1.77-.1.29-1.89.83-3.77.83-5.66.05-54.97.09-109.94-.04-164.91-.01-5.54-1.18-11.08-1.82-16.61-.58.01-1.17.03-1.75.04-.36,2.03-1.05,4.06-1.04,6.09.27,48.44.62,96.88.92,145.31.07,10.49-.03,20.97.07,31.46.01,1.46.68,2.92,1.05,4.38Zm-12.02-228.42c-.69.02-1.38.04-2.07.06.59,71.69,1.18,143.39,1.77,215.08l2.1.21c.29-1.71.84-3.42.82-5.12-.2-15.12-.71-30.23-.7-45.34.01-17.11.83-34.23.66-51.34-.31-30.4-1.08-60.79-1.72-91.18-.16-7.46-.56-14.91-.85-22.37Zm37.67,256.73c.65-.14,1.3-.28,1.95-.42,0-4.11.02-8.22,0-12.34-.24-43.26-.43-86.53-.77-129.79-.18-23.11-.65-46.21-.99-69.32-.01-1,.08-2.03-.13-2.98-.19-.89-.73-1.7-1.11-2.54-.69,9.17-.7,18.07-.69,26.98.07,60.44.13,120.88.3,181.32,0,3.03.95,6.05,1.45,9.08Zm-12.04-200.79c-.61,0-1.22-.02-1.83-.03-.25,1.71-.73,3.42-.72,5.13.24,25.79.79,51.58.78,77.36,0,30.45-.55,60.91-.66,91.36-.02,4.21,1.07,8.42,1.65,12.63.51-.05,1.02-.09,1.53-.14.39-1.38,1.1-2.76,1.1-4.14,0-6.44-.31-12.87-.32-19.31-.12-52.13-.18-104.27-.33-156.4,0-2.16-.77-4.31-1.19-6.47Zm-6.72-8.85c-.55.05-1.1.1-1.65.16v187.33l2.29.26c.36-2.19,1.01-4.38,1.01-6.58,0-3.63-.66-7.25-.66-10.88-.08-54.99-.1-109.98-.18-164.97,0-1.78-.52-3.55-.8-5.33Zm-13.64,174.6l2.14.04c.15-1.39.43-2.79.43-4.18.02-54.83.05-109.65-.03-164.48,0-5.17-.78-10.34-1.19-15.52-.45.03-.9.07-1.35.1v184.04Zm21.27-172.25c2.17-8.74.76-16.54-.83-24.13-.6-2.88-3.68-5.34-5.9-7.73-1.88-2.02-4.17-1.81-6.04.2-2.24,2.42-4.71,4.76-6.3,7.57-.87,1.54-.98,4.82.05,5.88,5.82,6.05,12.09,11.67,19.03,18.2Zm-32.76-.43c.63-.04,1.27-.08,1.9-.11v-54.88c-.61,0-1.22.01-1.83.02-.36,18.33-1.7,36.66-.07,54.97Z"/><path class="cls-1" d="m95.54,37.09c3.73-6.82,23.46-10.89,33.22-7.24-6.67,1.47-12.84,2.84-19.02,4.2-.07.36-.15.71-.22,1.07,1.39.69,2.79,1.38,5.12,2.55-6.98,3.25-12.71.43-19.1-.58Z"/><path class="cls-1" d="m231.72,21.38c1.04.26,2.2.37,3.15.86.56.29,1,1.18,1.08,1.85.04.34-.85,1.19-1.24,1.15-4.54-.52-9.07-1.1-13.57-1.87-.77-.13-2.03-1.37-1.92-1.83.21-.92,1.08-2.15,1.92-2.38,3.29-.9,6.65-1.63,10.03-2.05,1.22-.15,2.57.79,3.86,1.22-1.01.92-2.01,1.84-3.31,3.03Z"/><path class="cls-1" d="m358.61,13.64c5.32.51,9.96.95,14.59,1.39,0,.83,0,1.67,0,2.5-3.89.33-7.8,1.11-11.66.89-5.07-.29-10.13-1.22-15.13-2.21-1.14-.23-2.67-1.77-2.8-2.86-.13-1.06,1.09-3.09,2.07-3.35,4.75-1.23,9.61-2.06,14.45-2.88.55-.09,1.82,1.04,1.79,1.1-.71,1.35-1.55,2.63-3.32,5.42Z"/><path class="cls-1" d="m252.92,33.74c-1.19,1.48-2.38,2.95-3.57,4.43-1.09-1.22-2.19-2.44-3.28-3.67,1.64-1,3.27-1.99,4.91-2.99.65.74,1.29,1.48,1.94,2.23Z"/><path class="cls-1" d="m357.49,164.49c.39-3.43,1-6.86,1.1-10.31.1-3.37,2.56-3.66,4.74-3.85,4.77-.41,10.57,3.47,12.28,7.83,1.81,4.6.34,10.79-3.4,14.13-.98.88-1.99,2.03-3.17,2.34-2.76.72-5.96,1.95-8.35,1.13-1.49-.51-2.01-4.34-2.63-6.76-.36-1.4-.07-2.98-.07-4.47-.16-.02-.33-.03-.49-.05Z"/><path class="cls-1" d="m147.74,208.7c-.7,6.91-3.25,10.2-8.47,10.82-3.77.45-5.8-1.22-6.08-4.71-.32-4.06-.57-8.22-.01-12.22.31-2.24,2.41-6.05,3.53-5.99,2.82.15,6.28,1.45,8.09,3.51,1.85,2.1,2.03,5.66,2.94,8.58Z"/><path class="cls-1" d="m131.93,174.52c1.49-2.69,2.51-5.9,4.66-7.85,1.02-.93,4.67-.12,6.33,1.04,4.62,3.22,3.05,14.19-2.1,16.58-5.01,2.33-6.43,1.63-7.41-3.78-.32-1.77-.4-3.59-.59-5.38-.3-.2-.6-.4-.89-.6Z"/><path class="cls-1" d="m242.99,278c-1.09,7.74-4.87,12.19-11.82,12.79-1.04.09-3.11-1.35-3.2-2.25-.58-5.26-.96-10.57-.86-15.86.04-2.08,1.26-5.75,2.33-5.9,2.68-.36,6.42-.02,8.18,1.67,2.52,2.43,3.66,6.29,5.38,9.54Z"/><path class="cls-1" d="m185.91,178.42c1.73,6.18,3.6,12.32,5.07,18.56.35,1.48-.36,4.51-1.14,4.72-2.45.64-5.18.42-7.75.1-.29-.04-.47-2.86-.31-4.35.69-6.3,1.53-12.58,2.32-18.87.6-.05,1.2-.11,1.81-.16Z"/></g></svg>