<?xml version="1.0" encoding="UTF-8"?><svg id="Layer_2" xmlns="http://www.w3.org/2000/svg" viewBox="0 0 777.6 760.83"><defs><style>.cls-1{stroke-width:0px;}</style></defs><g id="Layer_1-2"><path class="cls-1" d="m349.99,690.68c-8.94.18-17.88.56-26.82.45-3.66-.05-7.29-1.36-10.96-1.73-3.82-.38-7.68-.33-11.53-.46-.98-.03-2.34.34-2.89-.16-6.43-5.84-12.32.11-18.98.09-1.48-5.75-7.84-4.47-11.68-4.48-6.88,0-13.85-.74-20.53-.25-5.89.43-9.96-2.85-14.96-3.32-5.39-.51-10.88.32-16.33.27-2.66-.02-5.32-1.03-7.98-1.01-3.95.02-7.9.56-12.55.93-1.22-2.77-4.42-3.89-8.68-3.74-4.09.14-8.2-.55-12.31-.83-21.72-1.47-43.43-2.97-65.15-4.38-8.09-.52-16.23-.48-24.28-1.32-13.01-1.36-25.94-3.4-38.94-4.85-11.88-1.32-23.8-2.33-35.72-3.27-2.71-.21-5.48.4-8.22.64l-.22-1.68c1.14-.19,2.3-.63,3.41-.54,18.85,1.58,37.69,3.31,56.54,4.84,8.31.67,16.64.93,24.96,1.49,3.94.27,7.86.96,11.8,1.17,4.84.26,9.72-.05,14.54.37,13.05,1.15,26.07,2.67,39.12,3.82,7.25.64,14.6,1.62,21.78,1,5.59-.49,10.98-3.23,16.47-4.97l-.8-2.16c-5.39,2.32-10.78,4.64-16.17,6.95-.18-.39-.35-.79-.53-1.18,2.8-1.51,5.6-3.03,8.4-4.54-.13-.31-.25-.63-.38-.94-3.83,1.54-7.65,3.08-11.48,4.62-.24-.52-.48-1.04-.72-1.55,4.44-1.94,8.87-3.88,13.31-5.82-.15-.39-.3-.78-.46-1.17-8.07,1.19-15.48,4.45-22.56,8.72-.3-.62-.6-1.23-.9-1.85,5.71-2.73,11.43-5.47,17.14-8.2-.12-.37-.24-.74-.36-1.12-3.27.89-6.54,1.77-9.8,2.69-3.78,1.06-7.55,2.16-11.33,3.24-.23-.57-.47-1.14-.7-1.7,1.32-1.01,2.64-2.02,4.85-3.71-2.95.87-4.92,1.45-6.9,2.03-.39-.5-.78-.99-1.17-1.49,1.45-.44,2.9-.88,4.35-1.32-.38-.46-.76-.93-1.15-1.39-4.3,1.66-8.59,3.32-13.54,5.24.31-1.38.49-2.17.64-2.83-3.5-.92-7-1.98-10.58-2.67-.91-.18-2.04.86-3.08,1.29-3.28,1.34-6.25-.07-6.42-3.01-1.91.62-3.85,1.26-5.79,1.89-.17-.28-.33-.56-.5-.84.85-.9,1.71-1.8,2.28-2.42h-19.57c.65-1.17,1.01-1.83,1.36-2.47-4.95.49-9.83.97-15.05,1.49-.06-3.14-1.55-4.98-5.71-2.63.75-.82,1.5-1.65,1.58-1.74h-18.53c.23-.81.44-1.53.83-2.89-7.7,4.41-14.08.67-20.66-1.8-2.87.6-5.3,3.91-9.17.45-.95-.85-4.73,1.46-7.48,2.41-3.16-3.23-6.83-5.3-11.91-3.68-1.4.45-3.31-.73-4.98-2.05.96-.28,1.92-.56,3.44-1.01-.66-1.74-1.31-3.44-2.26-5.93-2.1,2.47-3.63,4.27-6.23,7.32-.51-4.32-.83-7.08-1.17-9.98,27.62,1.6,54.51,3.15,81.99,4.74-.71-1.14-1.3-2.1-2.6-4.19,10.75,6.39,21.36,6.04,32.19,2,.06.57.11,1.14.17,1.71-1.21.46-2.42.92-3.69,1.4.06.12.15.5.27.52,6.61.63,13.21,1.28,19.83,1.81,8.12.65,16.24,1.4,24.37,1.69,3.58.13,7.19-.75,10.86-1.18q.25,2,19.37,2.18c-1.05-1.62-1.96-3.01-3.34-5.13,5.01,1.84,6.86,8.79,12.39,6.36-.32-1.32-.66-2.73-1-4.14,1.37.53,3.41.66,3.98,1.65,2.28,3.97,5.51,3.1,9.47,2.26-.95-.9-1.63-1.54-2.31-2.18.07-.33.13-.67.2-1,1.4.44,3.38.44,4.1,1.4,3.67,4.83,9.05,3.18,13.75,3.93.46.07,1.16-1.37,1.76-2.13,2.54.25,5.53,5.94,7.66-.9,8.6,6.76,18.9,4.23,28.53,5.26,8.71.93,17.47,1.38,26.22,1.8,6,.29,12.04-.03,18.03.32,7.56.44,15.09,1.37,22.64,1.91,11.59.84,23.19,1.51,34.79,2.28,17.08,1.15,34.15,2.52,51.24,3.44,16.98.92,33.98,1.34,50.96,2.13,2.98.14,5.93,1,8.89,1.49,1.46.24,2.93.52,4.41.55,12.94.2,25.79,1.49,38.65,2.84,4.59.48,9.68,1.43,13.76-.02,4.31-1.53,7.7-5.67,10.15-7.61-.74-7.01-1.31-12.46-1.99-18.97-4.57.81-8.94,1.59-13.32,2.36-1.23.22-2.71.93-3.65.49-6.03-2.81-11.66.39-17.48.77-6.14.39-12.3.23-18.46.37-4.34.1-8.69.16-13.01.55-1.01.09-1.9,1.46-1.8,1.38-6.48-.19-12.26-.56-18.04-.47-5.28.08-10.56.66-15.81,1.02v2.34c-2.46-.96-5.15-3.03-6.52-2.37-4.43,2.16-7.99-1.06-11.89-.88-1.92.09-3.76,1.72-5.83,2.75-1.96-4.32-4.49-3.67-6.35-1.76-2.71-.29-4.58-.5-6.45-.67-1.15-.11-2.52.24-3.41-.28-4.41-2.59-8.72-2.07-13.56-1.07-3.75.78-7.92-.56-11.92-.84-17.45-1.25-34.9-2.48-52.35-3.67-8.74-.59-17.49-1.07-26.48-1.62-.28-2.16-.5-3.92-.82-6.36h-33.96c-.12.34-.23.69-.35,1.03,1.8,1.11,3.6,2.22,5.4,3.33l-.6,1.38c-4.27-2-8.53-3.99-13.67-6.4.61,1.5.88,2.17,1.29,3.16-.98.23-2.45.93-2.75.6-3.39-3.84-7.66-2.43-11.75-2.24-2.7.12-5.4.21-8.1.17-3.05-.05-6.1-.33-9.16-.39-14.73-.27-29.46-.6-44.18-.62-1.92,0-3.83,1.68-6.31,2.85-3.68-4.36-9.61-2.34-15.04-2.55-8.18-.32-16.37-.39-24.55-.35-1.24,0-2.47,1.13-3.71,1.74.03.53.06,1.06.09,1.59-2.24-1.47-4.48-2.94-7.14-4.7-.35,1.88-.59,3.18-.88,4.71-2.35-1.86-4.38-3.46-6.41-5.06-.25.29-.51.57-.76.86.66,1.45,1.32,2.89,1.97,4.34-.33.34-.66.68-.99,1.01-1.85-1.25-3.54-3.11-5.58-3.63-5.76-1.47-11.62-2.99-17.51-3.35-5.47-.34-11.04.8-16.56,1.29-.63.06-1.37.4-1.86.19-4.58-2.02-6.3-1.63-9.2,2.86-1.26-2.1-1.94-4.77-3.49-5.43-2.05-.88-4.78-.14-7.21-.18-5.17-.09-10.33-.23-15.5-.35-.65-.01-1.31.07-1.96,0-.25-.03-.47-.35-1.11-.88,1.62-.58,2.89-1.04,4.36-1.57-1.13-4.08-3.82-4.69-7.2-4.1-1.12.2-2.29.7-3.36.55-6.25-.88-12.48-1.92-18.71-2.91-.02-.52-.04-1.04-.05-1.56,9.54-.42,19.07-.84,29.47-1.3,0-3.42.17-6.8-.04-10.16-.33-5.27.5-6.09,5.7-5.9,21.78.78,43.56,1.45,65.34,2.15,7.98.26,15.96.5,23.94.73,1.59.05,3.18,0,4.77,0,.02-.43.04-.86.05-1.29-5.28-.24-10.56-.56-15.85-.7-24.78-.69-49.55-1.4-74.33-1.91-3.85-.08-5.15-1.16-5.17-5.17-.06-9.61-1.02-19.22-1.02-28.84,0-9.98.78-19.95,1.05-29.93.18-6.69-.06-13.4.1-20.09.1-4.31.92-8.62.82-12.92-.25-9.73-1.27-19.45-1.23-29.18.05-11.77,1.13-23.52,1.31-35.29.34-22.42.25-44.84.55-67.27.17-12.29.79-24.58,1.15-36.87.04-1.42.18-3.23-.57-4.21-3.18-4.1-1.23-8.14-.32-12.22.49-2.19,1.55-4.35,1.58-6.53.15-12.49,0-24.98.09-37.46.29-35.95,1.1-71.9.8-107.84-.15-18.1,7.97-29.73,23.49-37.58,19.95-10.09,40.43-18.48,62.61-22.44,8.85-1.58,16.68.21,24.59,3.86,19.3,8.9,38.7,17.58,58.09,26.3,7.2,3.24,9.49,7.97,8.8,15.88-.53,6.08.23,12.27.24,18.41.04,25.77.13,51.53-.04,77.3-.17,25.42,0,50.87-1.14,76.26-.99,22.26,6.73,42.29,13.23,62.79,3.99,12.58,8.45,25.15,10.8,38.07,2.5,13.78,4.32,28.04,3.61,41.95-1.09,21.31-7.5,41.16-24.65,55.89-1.57,1.35-3.17,3.75-3.18,5.67-.08,17.58.24,35.15.31,52.73.02,4.48-.3,8.97-.74,13.43-.39,3.97.25,7,5.13,7.32-.3,3.87-.5,7.47-.88,11.05-.31,2.93,1.09,3.7,3.76,3.78,19.76.62,39.51,1.33,59.27,2.01q6.25.22,6.31-6.26c.01-1.65,0-3.3,0-5.89,44.24.66,88.09,2.86,131.95,3.84.02-.79.04-1.57.06-2.36-3.87-.3-7.73-.79-11.6-.87-24.63-.53-49.25-.94-73.88-1.46-12.64-.26-25.28-.73-37.93-.95-3.36-.06-4.68-1.17-4.67-4.7.03-13.16-.33-26.32-.33-39.48,0-13.4.37-26.8.38-40.21,0-11.32-.37-22.64-.39-33.95-.01-6.42.44-12.85.51-19.27.08-7.58-.07-15.16-.04-22.74.11-22.69.22-45.38.4-68.06.11-14.43.49-28.86.47-43.28-.02-8.97-.69-17.95-.82-26.92-.06-4.41.64-8.82.63-13.23,0-3.24-.72-6.48-.93-9.73-.2-3.19-.35-6.41-.19-9.59.35-7.09,1.21-14.16,1.31-21.25.3-22.61.46-45.22.44-67.84-.01-13.56-.68-27.12-.62-40.68.04-9.77.94-19.53,1.22-29.3.45-15.88.31-31.79,1.31-47.64.25-3.96,3.2-8.33,6.11-11.38,3.43-3.6,7.85-6.58,12.37-8.74,12.73-6.08,25.54-12.09,38.69-17.16,9.93-3.83,20.42-6.22,30.69-9.14,3.59-1.02,7.23-2.08,10.92-2.51,9.36-1.09,18.86-3.06,28.1-2.28,5.95.5,11.76,4.88,17.27,8.13,15.58,9.19,31.05,18.57,46.39,28.17,5.13,3.21,9.89,7.11,14.49,11.07,4.42,3.8,5.92,9.03,5.94,14.79.05,12.65.23,25.3.33,37.95.19,23.63.35,47.26.55,70.89.01,1.31.18,2.63.34,4.89,1.79-.94,3.51-1.3,4.33-2.36,7.88-10.09,18.87-17.77,23.07-30.81,1.05-3.26,5.12-5.49,7.58-8.4.97-1.14,1.71-2.78,1.86-4.26.8-8.38,10.57-18.72,18.8-19.88,2.44-.34,4.78-1.34,7.21-1.8,9.13-1.74,18.39-2.98,27.39-5.24,4.46-1.12,8.97-3.44,12.56-6.33,4.47-3.6,8.12-8.27,11.9-12.67.99-1.15,1.69-3.02,1.61-4.51-.33-5.84.98-11.73-5.31-16.39-5.4-4-4.88-16.61-.11-22.57,2.56-3.2,2.39-5.22-.6-7.9-6.62-5.92-7.98-15.52-4.65-23.66,4.92-12.02,13.28-18.29,26.44-18.97,5.67-.29,11.19-2.82,16.88-3.69,3.57-.55,7.95-1.12,10.89.4,9.52,4.93,18.78,10.46,27.65,16.48,5.55,3.77,10.58,7.31,11.54,16.16.76,7.04.85,12.97-3.03,18.06-2.92,3.83-7.74,6.37-12.05,8.93-2.69,1.6-4.6,2.4-1.82,5.67.9,1.05,1.24,3.53.63,4.76-3.24,6.54-4.93,14.12-12.15,18.17-1.63.91-2.85,3.28-3.4,5.23-1.33,4.69-2.1,9.54-3.2,14.29-1.61,7-3.32,13.98-4.31,21.24,1.99-6.61,3.98-13.22,5.97-19.83,5.55,20.08,22.84,25.5,39.85,31.95.99-3.11,1.93-6.08,2.88-9.05,1.36-4.24,3.61-7.07,8.6-7.73,1.98-.26,4.77-2.84,5.23-4.82,6.37-27.63,10.69-55.45,6.6-83.94-.3-2.06.14-4.79,1.33-6.37,2.67-3.53,6.93-2.7,7.69,1.63,1.6,9.12,3.73,18.4,3.41,27.54-.55,16.06-2.57,32.08-4.36,48.07-.99,8.82-2.7,17.55-4.22,26.31-1.07,6.17.24,11.29,5.48,15.23,2.99,2.25,3.96,5.12,3.11,9.19-1.79,8.6-2.99,17.33-4.03,26.06-.2,1.67.99,4.22,2.38,5.24,4.43,3.29,6.38,7.59,6.28,12.86-.09,4.27,2.01,7.25,4.19,10.74,6.35,10.18,16.94,18.6,14.91,32.68-.18,1.22.16,2.9.92,3.8,4.07,4.79,2.08,9.36-.33,13.84-3.46,6.43-6.98,12.84-10.73,19.11-5.53,9.25-15.58,11.45-24.6,5.19-6.28-4.36-12.25-9.17-18.26-13.91-3.69-2.91-4.86-6.83-4.54-11.53.34-4.88.08-9.8.08-14.7-.72-.05-1.43-.11-2.15-.16-.78,4.43-1.81,8.83-2.28,13.29-2.48,23.63-4.73,47.28-7.21,70.91-2.17,20.62-4.47,41.23-6.87,61.82-1.9,16.28-3.76,32.58-6.12,48.8-3.63,24.92-8.15,49.73-11.31,74.7-1.29,10.21.11,20.75.01,31.14-.12,12.96-.07,25.95-.94,38.87-.86,12.88-2.6,25.72-4.32,38.53-.52,3.82.29,4.83,4.14,5.09,22.22,1.46,44.43,3.07,66.61,4.98,5.57.48,11.12,1.98,16.52,3.54,6.94,2,11.47,6.8,11.09,14.17-.74,14.24-2.18,28.44-3.51,42.64-.12,1.24-1.26,2.92-2.38,3.44-4.8,2.21-9.91,3.75-14.63,6.1-8.46,4.21-17.54,5.74-26.74,6.62-10.58,1.01-21.21,1.55-31.81,2.35-5.1.39-10.18.92-15.47,1.4-.55,2.71,4.06,6.76-2.09,8.5,1.36,2.61,4.15,5.26-.72,7.74,2.55.16,4.19.26,5.83.36.12.4.25.8.37,1.2-.97.62-1.94,1.78-2.9,1.77-5.13-.05-8.27,3.36-11.83,6.21-8.57,6.86-16.95,13.75-29.34,11.79-7.78-1.23-17.12-9.75-16.99-17.57.08-4.59,1.36-9.15,1.73-13.75.5-6.22.91-12.47.79-18.7-.04-1.94-1.9-3.84-2.69-5.31-4.45,2.11-8.03,3.8-11.18,5.3.89,2.86,1.52,4.86,2.48,7.94,1.65.4,4.4,1.07,7.15,1.74,0,.21,0,.42,0,.63-.87.15-1.76.5-2.6.42-7.16-.7-14.29-1.64-21.46-2.18-3.07-.23-6.21.56-9.29.43-4.31-.18-8.63-.64-12.9-1.27-2.4-.36-4.72-1.3-6.69-.82-5.15,1.15-10.31,2.31-16.03,3.58.04-4.58-.6-7.5-5.77-6.19-3.23.81-6.79.51-10.19.39-8.21-.27-16.41-.71-24.62-1.09-3.12-.15-6.33.07-9.33-.6-2.22-.5-4.17-2.19-6.26-3.31-.95-.51-1.99-1.33-2.94-1.27-7.01.44-14,1.08-21,1.63-.31.02-.84-.36-.91-.27-3.92,4.95-6.86-.82-10.31-1.03-3.77-.23-7.66-.03-11.26-2.28-1.26-.79-3.89.62-5.85,1.25-2.37-.01-4.67-5.54-6.96-.45-2.5-.7-4.85-1.75-7.27-1.94-3.97-.32-8.01.18-11.98-.15-2.71-.23-5.34-1.31-8.02-1.94-2.88-.68-5.76-1.69-8.67-1.84-10.39-.52-20.79-1.01-31.18-.93-4.12.03-8.24,1.6-12.36,2.47-.06.64-.13,1.27-.19,1.91-2.07-2.49-4.14-4.97-6.23-7.47.45-.4.97-.74,1.4-1.17,1.15-1.16,2.27-2.35,3.4-3.53-1.87-.31-3.85-1.12-5.58-.76-1.51.31-2.75,1.95-4.31,3.15,2.09.94,3.67,1.65,5.25,2.36Zm-30.34-343.8c-.42,2.71-.84,5.41-1.32,8.51,4.74.24,8.98.46,13.22.68l.67-1.49c-2.59-1.2-5.3-2.22-7.74-3.67-1.8-1.07-3.25-2.73-4.84-4.09,2.89.86,5.77,1.72,8.66,2.59l1.17-1.6c-1.94-2.11-3.88-4.22-6.05-6.58-1.64,2.47-2.71,4.06-3.77,5.66Zm4.54,40.67c3.84-4.13,7.68-8.27,11.89-12.81-5.58,2.57-10.64,4.9-16.93,7.79,2.23,2.07,3.72,3.47,5.22,4.86-.31,4.47,4.19,10.27,9.07,11.71,1.76,5.18,6.53,5.73,11.2,7.69.46-2.33.81-4.12,1.45-7.4-3.07,1.68-4.8,2.64-5.95,3.26-2.39-1.2-4.59-2.31-6.8-3.42v-7.64c-2.21.98-3.35,1.49-4.82,2.14.58-3.34,5.6-5.14,2.18-8.71-2.37.92-4.44,1.73-6.52,2.53Zm326.42,327.01c.86.6,1.71,1.2,3,2.1-1.96.72-3.28,1.2-4.8,1.76,3.58.78,6.83,1.48,9.75,2.12-.6-5.1-1.39-5.76-8.1-5.88-.75-1.4-1.51-2.81-2.51-4.68-6.71,2.06-13.21,4.05-20.16,6.19,2.33.92,4.07,1.61,5.81,2.3-4.02,2.14-3.54,4.59-1.7,8.42,3.24,6.75,8.14,8.27,14.94,7.39,6.58-.85,9.04-2.74,10.92-10.43h-22.14c.33-.58.66-1.17.99-1.75-1.05-1.19-2.09-2.37-3.11-3.58,1.54-.18,3.09-.36,4.63-.55,1.45-.19,2.95-.23,4.34-.64,2.73-.8,5.39-1.8,8.13-2.75Zm-110.67-27.74c-.61.48-1.23.96-1.84,1.43l.59.92c6.47-3.36,12.94-6.72,19.4-10.08-.18-.36-.35-.71-.53-1.07-5.75,2.88-11.51,5.75-17.26,8.63,3.56-2.53,7.11-5.06,10.57-7.52-5.42-2.32-10.84-4.65-16.27-6.98.19-.61.38-1.22.58-1.83,2.03-.11,4.05-.21,6.08-.32-4.14-.61-8.52-2.15-11.59,2.73,4.37,1.92,8.57,3.76,12.77,5.6-4.15.25-8.02-.3-11.7-1.45-3.33-1.04-4.43,1.01-4.84,3.26-.23,1.26.82,3.77,1.79,4.07,3.98,1.21,8.16,1.79,12.26,2.6ZM663.6,44.91c-11.48-3.34-22.82-1.81-34.66.78,5.04,8.92-3,13.03-6.4,19.02.82-.19,1.54-.35,2.27-.52-.25,2.4-.49,4.71-.74,7.03-.47.07-.93.14-1.4.21-.92-2.8-1.84-5.6-2.76-8.39-.55,4.97-.77,9.7,3.31,13.33,1.43,1.27,3.1,3.03,3.35,4.76,1.06,7.42,4.54,13.34,9.79,18.51,6.58,6.48,13.82,8.34,22.71,5.01,8.12-3.04,13.17-8.68,16.59-15.1-1.7-1.23-3.51-1.94-3.51-2.66-.01-1.41.98-2.83,1.74-4.69,1.45,1.22,2.28,1.93,3.58,3.02.4-1.07.8-2.1,1.54-4.06.61,2.66.8,3.45,1.2,5.2,1.94-2.53,3.28-4.28,4.77-6.22-1.54-.34-2.56-.56-4.72-1.04,2.33-2.17,3.94-3.68,5.59-5.22-2.96-2.52-4.48-5.34-2.93-9.45.42-1.11,1.26-4.46-2.48-3.98,0,0,.05.14.05.14.8-.94,1.71-1.81,2.39-2.84.81-1.22,1.42-2.56,2.12-3.85-.46-.27-.92-.54-1.38-.82-1.15.6-2.29,1.19-3.44,1.79.17-.42.33-.83.5-1.25-3.8-2.42-7.6-4.84-11.41-7.26,4.76,1.68,9.52,3.35,14.47,5.09-13.39-9.33-32.82-13.61-43.43-9.35,7.9-.06,15.96-1.39,23.3,2.79Zm-121.67,340.6s.16.14.16.14c-.43-1.45-.85-2.89-1.33-4.52-1.12.59-1.93,1.02-2.74,1.44,1.34-2.94,3.4-5.77,3.83-8.84.54-3.86-.59-7.92-.36-11.86.16-2.63,1.25-5.28,2.28-7.77,1.17-2.84,3.24-5.38,4-8.28,1.04-3.98,1.79-8.21,1.65-12.3-.29-8.26,8.86-14.26,5.25-23.16-.05-.11.12-.3.17-.46,1.56-5.39,3.61-10.7,4.53-16.2,1.02-6.18.11-12.13-2.63-18.21-2.03-4.51-3.31-11.03-1.55-15.27,5.54-13.39,7.18-26.6,3.07-40.48-.48-1.63-1.34-3.15-2.03-4.72-1.61,1.01-3.28,1.94-4.81,3.05-3.98,2.91-8.05,5.72-11.8,8.91-4.8,4.09-10.4,7.06-13.77,13.1-2.62,4.68-7.03,8.86-11.58,11.82-3.69,2.4-5.44,4.42-5.38,8.87.48,34.93.79,69.86,1.07,104.8.38,47.75.72,95.51.96,143.26.03,5.41-.94,10.89,4.51,14.55.37.25.33,1.08.6,2.06-1.68-1.29-2.93-2.25-4.37-3.35-.31.85-.61,1.29-.61,1.72-.04,14.48-.13,28.96.05,43.44.02,1.96.87,4.58,2.28,5.72,4.28,3.47,9.02,6.37,14.09,9.85,2.46-13.04,1.56-24.61-1.5-36.15-3.91-14.75-5.18-29.68-3.37-44.95,2.1-17.64,4.3-35.33,5.01-53.05.52-13.16,1.64-26.1,4.07-39.02,1.46-7.78,2-15.73,3.28-23.55.22-1.37,2.09-2.46,3.2-3.69-.92,7.17-1.38,14.43-2.85,21.48-4.94,23.57-5.13,47.51-5.95,71.39-.51,14.91-.32,29.87.03,44.79.11,4.74,1.74,9.44,2.67,14.16-.48.13-.95.26-1.43.39-1.6-5.3-3.63-10.52-4.67-15.93-1.01-5.26-1-10.71-1.43-15.97-2.29,16.49.5,32.42,6.97,47.97.76-7.65,1.06-15.35,1.67-23.03.18-2.29,1.21-4.51,2.24-8.18,3.11,3.37,6.4,5.29,6.63,7.52.56,5.52-.29,11.17-.59,17,4.7-3.57,4.99-3.61,7.33-1.25,3.8,3.82,12.36,2.89,15.4-1.66,1.72-2.56,3.39-5.16,5.25-7.61,1.56-2.05,3.8-3.69,5.01-5.9,7.41-13.64,11.76-27.94,8.4-43.66,1.36,6.25,4.02,12.57,3.74,18.75-.34,7.29-3.08,14.5-5.04,21.67-2.65,9.68-5.57,19.3-4.13,29.52,1.57,11.1,3.22,22.19,4.78,32.93,1.01.26,1.18.37,1.33.34,15.86-3.28,28.58-12.11,40.01-23.02,1.14-1.09,1.32-3.67,1.2-5.51-.47-7.28-1.65-14.53-1.8-21.81-.28-13.29.86-26.66-.16-39.87-1.82-23.63-4.77-47.17-7.3-70.74-.54-5.02-1.28-10.01-1.93-15.02-.6-.12-1.2-.24-1.81-.35-2.83,6.42-5.94,12.73-8.42,19.29-5.27,13.97-10.16,28.07-15.32,42.08-1.49,4.04-3.37,7.93-5.06,11.89-3.93,3.06-3.15,6.65-2.19,11.03,3.18,14.45-7.02,24.31-12.94,35.89q-6.17-10.23.48-19.01c.5-.66,1.12-1.26,1.5-1.99,2.24-4.3,4.42-8.63,6.62-12.96-.61-.34-1.22-.68-1.83-1.02-2.97,4.84-5.93,9.67-8.9,14.51-.39-.21-.77-.42-1.16-.63.44-5.56,2.55-10.58,5.85-15.13,8.86-12.23,15.49-25.57,19.62-40.22-11.38,18.65-22.76,37.29-34.1,55.86-4.51-3.93-5.3-7.34-2.17-9.73,1.54-1.18,2.92-2.82,3.81-4.54,1.51-2.93,2.16-6.34,3.89-9.11,7.99-12.79,16.25-25.41,24.38-38.12,3.29-5.15,6.62-10.28,9.67-15.57,2.89-5.01,5.38-10.25,8.13-15.34,2.34-4.32,1.61-10.68,8.09-12.34.21-.05.12-1.24.17-1.91,0,0-.12.12-.12.12.88,1.47,2.26,2.85,2.55,4.43,1.81,9.79,3.39,19.63,5.01,29.46,2.67,16.22,5.25,32.46,7.96,48.67,2.16,12.89,4.57,25.74,6.57,38.66.25,1.6-1.34,3.48-2.07,5.23-.76-.13-1.51-.26-2.27-.39-1.3-7.77-2.6-15.54-3.9-23.31-.3.03-.6.07-.89.1,1.35,16.61,2.69,33.23,4.04,49.84.51.1,1.02.2,1.53.3,2.51-3.58,5.24-7.02,7.47-10.77,3.54-5.95,8.17-11.13,8.42-18.99.27-8.54,2.73-16.99,1.71-25.72-.13-1.14,1.43-2.49,2.21-3.74.69.17,1.38.33,2.07.5-.73,8.87-1.46,17.74-2.29,27.7,1.11-1.51,1.59-1.97,1.85-2.54,3.71-8.13,7.55-16.21,10.98-24.45,1.51-3.63,2.8-7.57,3.09-11.45.79-10.44,1.59-20.93,1.3-31.37-.58-21.26-1.71-42.5-2.92-63.73-1.2-21.05,1.64-42.69-8.55-62.53-.22-.44-.29-.95-.41-1.44q-2.08-8.01-9.85-5.53c-.27.09-.45.45-1.2,1.23.57,6.35,1.42,13.21,1.75,20.09.33,6.75.3,13.56-3.69,19.62-.55-1.93-.21-3.73-.05-5.56.18-2.13,1.09-4.83.15-6.3-3.6-5.65-2.47-11.5-1.77-17.42.45-3.83.92-7.65,1.45-11.99-4.81.98-8.49,1.83-12.21,2.45-3.4.56-4.58,2.23-4.5,5.78.25,11.15.15,22.3.1,33.46,0,1.8-.46,3.59-.7,5.39-.54-.05-1.07-.09-1.61-.14v-44.14c-8.73,2.15-11.41-2.57-11.91-9.98l-1.17.61c-.88,3.92-1.76,7.83-2.59,11.56-7.43-1.23-14.33-2.38-21.56-3.58-1.45,11.75-2.74,22.27-4.04,32.8-.68-.04-1.35-.08-2.03-.12,0-5.63-.46-11.32.13-16.89.59-5.63,2.22-11.15,3.4-16.72-7.04-2.01-14.15-4.24-21.39-5.91-1.3-.3-4.07,1.42-4.57,2.79-2.56,6.97-4.61,14.14-6.83,21.23.63.33,1.25.66,1.88,1,3.02-3.26,6.03-6.53,9.05-9.79.44.37.88.75,1.33,1.12-3.3,4.46-5.97,9.6-10.02,13.22-7.13,6.37-9.63,13.93-8.57,23.03.3,2.61.46,5.58,1.82,7.64,1.16,1.75,3.94,2.42,6.76,3.98-3.76,1.49-7.28,2.88-10.81,4.27Zm-155.16-72.44c-.53.25-1.05.49-1.58.74,1.02,1.74,1.75,3.78,3.13,5.17,2.64,2.66,6.58,4.44,8.33,7.52,3.81,6.71,7.06,13.84,9.57,21.14,1.34,3.91,3.7,9.09-2.27,12.22-.52.27-.29,1.87-.52,2.83-.77,3.14,1.51,6.97.87,8.76-3.96,11.12-7.8,22.74-19.89,28.3-.57.26-1.45.82-1.43,1.21.18,3.49-2.01,3.41-4.54,3.54-.97.05-1.8,1.65-2.82,2.38-1.43,1.02-2.86,2.31-4.48,2.73-3.3.85-6.72,1.43-10.12,1.68-5.89.43-11.97,1.44-17.67.46-4.22-.73-8.19-3.91-11.85-6.58-5.08-3.7-9.43-7.82-10.74-14.78-1-5.32-4.71-9.57-5.26-15.77-1.57-17.98,1.43-34.2,13.58-47.85,11.07-12.44,24.41-20.03,41.92-16.23,4.07.88,6.06-.57,8.21-4.22,4.43-7.52,8.63-15.91,15.13-21.28,6.48-5.35,15.68-7.4,23.64-10.99,1.19-.54,2.96-1.51,3.07-2.44.38-3.17.15-6.42.15-10.21-7.29,1.1-13.53,1.94-19.73,2.98-16.88,2.83-33.73,5.77-50.61,8.61-15.4,2.59-30.81,5.11-46.22,7.65-3.81.63-6.21,2-6.2,6.71.14,61.68.08,123.36.15,185.03.01,13.28.47,26.57.44,39.85-.05,21.46-.34,42.92-.54,64.38-.06,6.49.18,13.01-.39,19.45-.35,3.93.82,5.04,4.5,4.99,8.29-.1,16.59-.1,24.88.14,29.92.87,59.85,1.8,89.76,2.88,4.36.16,5.82-1.09,5.67-5.57-.51-15.83-.72-31.67-.9-47.51-.03-3.08.94-6.17.87-9.24-.17-7.37-.92-14.73-1.02-22.1-.16-13.02-.05-26.05.03-39.08.09-15.63.4-31.25.37-46.88-.08-39.75-.28-79.5-.46-119.25,0-1.54-.25-3.08-.38-4.62-4.19,6.24-8.34,9.64-16.64,8.31-6.37-1.02-12.62-1.11-18-5.1Zm-252.37-.42c-6.62.99-12.2,1.77-17.76,2.68-23.29,3.79-46.56,7.75-69.88,11.3-4.01.61-5.24,1.83-5.27,5.83-.15,22.12-.57,44.23-.91,66.35-.33,21.7-.75,43.4-.97,65.1-.15,14.93.08,29.86-.05,44.79-.25,26.78-.66,53.55-.96,80.33-.08,7.25,0,7.37,7,7.29,7.89-.09,15.78-.62,23.67-.57,6.24.04,12.47.76,18.71,1.02,13.19.55,26.38.85,39.56,1.55,4.79.25,5.95-1.81,5.93-6.13-.08-15.62.03-31.24.17-46.85.22-24.28.68-48.56.74-72.85.12-51.1.04-102.19.04-153.29v-6.53ZM421.82,58.75c.05,0,.11,0,.16,0,0-7.65.13-15.3-.03-22.95-.26-13.17-3.03-15.76-16.13-13.46-33.63,5.91-65.53,16.72-94.81,34.66-7.13,4.37-10.62,10.33-10.63,18.89-.03,21.1-.61,42.2-.82,63.3-.41,40.55-.69,81.11-1.14,121.66-.05,4.19,1.64,5.27,5.46,4.56,12.09-2.25,24.2-4.38,36.29-6.59,25.16-4.59,50.29-9.43,75.52-13.62,4.91-.82,5.72-2.51,5.7-6.86-.08-13.96.39-27.93.41-41.9.06-45.9.02-91.79.02-137.69ZM42.17,313.54c10.04-1.57,19.89-2.94,29.67-4.69,19.44-3.47,38.83-7.25,58.28-10.66,3.67-.64,4.34-2.32,4.35-5.64.04-19.16.35-38.33.45-57.49.12-23.96.11-47.92.2-71.89.05-13.97.45-27.95.14-41.91-.18-8.27-2.67-10.28-10.26-8.79-12.77,2.51-25.4,6.16-37.74,10.34-13.03,4.42-25.93,9.48-36.97,18.12-4.46,3.49-6.74,7.82-6.78,13.68-.2,31.43-.6,62.87-.94,94.3-.1,9.32-.33,18.63-.38,27.94-.07,11.94-.02,23.88-.02,36.68Zm609.14,379.69c-.53-2.94-.55-5.1-1.33-6.94-2.09-4.94-1.13-8.95,2.68-12.62,1.07-1.03,1.99-2.71,2.12-4.17,1.11-12.39,2.06-24.8,2.99-37.21,1-13.24,1.69-26.51,2.99-39.72.98-9.94,2.73-19.8,4.29-30.69-1.86,3.18-3.21,5.44-4.52,7.72-5.19,9.05-8.37,19.58-17.64,25.68-3.01,1.98-3.88,4.35-4.74,7.47-2.12,7.66-4.53,15.25-7.17,22.75-2.81,7.97-6.12,15.75-8.97,23.7-.55,1.52-.38,3.58.16,5.16.86,2.5,2.94,4.69,3.39,7.21,1.23,6.85,2.11,13.79,2.64,20.73.21,2.76,1.03,4.39,3.57,5.15,6.14,1.84,12.3,3.64,19.54,5.77Zm-25.11-114.66c-.74.31-1.27.4-1.61.7-11.4,9.98-24.41,16.92-39.03,20.93-1.05.29-2.43,1.97-2.45,3.04-.15,6.8-.13,13.62.24,20.41.07,1.28,1.89,3.48,3,3.54,10.94.6,21.9.91,32.85,1.08,1.03.02,2.78-1.38,3.01-2.39,3.62-15.4,7.58-30.81,3.99-47.31Zm-408.04-196.88c-.2.04-.39.08-.59.12v123.59c.45.17.91.35,1.36.52,1.73-3.06,3.66-6.03,5.17-9.2,10.14-21.19,10.18-43.57,6.15-65.89-2.99-16.57-7.99-32.77-12.1-49.14Zm209.75-74.44c-.73-.3-1.45-.61-2.18-.91-.78,1.7-2.22,3.4-2.23,5.1-.02,9.98.4,19.95.49,29.93.19,21.3.28,42.61.39,63.92.21,37.95.47,75.9.61,113.84.09,25.95.02,51.91.02,77.87,0,1.5-.18,3.05.14,4.48.21.9,1.2,1.63,1.84,2.44.75-.87,1.74-1.63,2.18-2.63.37-.84.12-1.97.11-2.96-.12-40.12-.2-80.24-.39-120.36-.14-30.79-.4-61.58-.61-92.36-.12-17.81-.27-35.62-.37-53.43-.05-8.3,0-16.61,0-24.91Zm60.29-16.02c-2.19-.38-4.14-.77-6.1-1.06-7.35-1.09-14.67-2.66-22.06-3.07-5.42-.3-7.61,2.66-7.62,8.02-.02,8.48.19,16.97-.09,25.44-.14,4.09.95,5.96,5.31,6.44,10.04,1.11,20.02,2.75,30.49,4.23-.22-2.17-.72-4.78,2.79-3.27-.49-12.52.89-24.7-2.72-36.73Zm208.86,17.94c-.63-.13-1.26-.26-1.89-.39,3.58-26.76,7.16-53.52,10.74-80.28-6.06,8.4-12.23,16.6-10.53,27.65,1.42,9.19-2.32,15.91-10.41,19.98-3.96,1.99-5.34,4.95-5.8,8.97-.5,4.4,2.09,2.04,4.54,1.57-1.12,4.55-2.56,8.61-3.01,12.78-.33,3.1.44,6.39,1.1,9.51.33,1.55,1.81,2.84,2.24,4.39,2.14,7.77,4.08,15.6,6.15,23.39.29,1.11.94,2.12,1.43,3.17,1.76-7.42,2.39-14.64,3.39-21.81.28-2.05,1.45-4.05,2.53-5.89,1.16-1.97,3.6-3.59.79-6.1-.45,1.08-.86,2.07-1.27,3.07Zm-558.72,3.74l-1.81.34c-.13,1.56-.37,3.12-.38,4.68-.31,46.4-.63,92.81-.86,139.21-.06,12.31.26,24.62.24,36.94-.08,32.44-.27,64.89-.34,97.33,0,2.14.65,4.29.99,6.43.63-.08,1.26-.16,1.89-.25.12-1.72.31-3.44.34-5.16.35-24.61.76-49.22.99-73.83.27-29.11.5-58.22.52-87.33.02-21.46-.43-42.91-.46-64.37-.02-16.13.37-32.26.42-48.39,0-1.86-.99-3.73-1.52-5.6ZM424.01,24.75c0,11.99.03,24.33,0,36.67-.19,59.1-.43,118.19-.54,177.29,0,2.17,1.13,4.33,1.74,6.5.87-2.21,2.48-4.42,2.5-6.64.21-23.95.2-47.9.2-71.85,0-24.48-.03-48.95-.11-73.43-.02-5.32-.44-10.63-.41-15.94.09-14.31.49-28.61.38-42.92-.03-3.78-.84-7.86-3.76-9.68ZM166.49,342.05h-.03c0,2.99.1,5.98-.02,8.96-.22,5.62,1.64,8.21,6.96,9.02,6.39.97,12.83,1.65,19.22,2.66,4.55.72,6.16-1.89,6.28-5.58.23-7.13.19-14.27.02-21.41-.1-3.98-1.86-6.79-6.35-7.33-6.56-.8-13.09-1.89-19.64-2.79-3.91-.54-6.37,1.59-6.43,5.52-.05,3.65-.01,7.3-.01,10.95Zm-28.44-229.29c-.54.21-1.08.41-1.63.62.37,3.6,1.08,7.21,1.05,10.81-.23,25.61-.61,51.22-.93,76.83-.05,4.13-.05,8.26,0,12.39.18,12.92.43,25.83.59,38.75.03,2.46-.19,4.93-.3,7.39-.51,11.44-1.13,22.87-1.41,34.32-.03,1.34,1.8,2.72,2.76,4.09.47-.27.94-.54,1.41-.8.11-1.28.3-2.57.31-3.85.13-14.55.33-29.1.33-43.64,0-11.79-.43-23.57-.34-35.36.24-31.27.74-62.54.89-93.82.01-2.57-1.79-5.15-2.75-7.72Zm248.63,262.07c-18.33,2.01-35.62,3.91-53.29,5.86,1.12,5.36,2.12,9.88,3,14.41.53,2.75,2.09,3.24,4.69,2.95,12.35-1.39,24.74-2.45,37.07-4.01,1.83-.23,4.32-2.14,4.93-3.84,1.54-4.31,2.18-8.94,3.61-15.37Zm225.81,277.32c5.6.07,7.19-1.61,4.59-5.66-.2-.31-.39-1.01-.28-1.08,4.38-2.94.97-6.61,1.1-10.91-11.62,1.12-23.02,2.23-34.28,3.31v20.91c3.42-1.64,6.29-3,9.28-4.43.84.93,1.78,1.95,2.44,2.68,2.97-.99,5.5-2.45,8.08-2.54,3.93-.14,7.89.67,11.84,1.08.05-.47.11-.94.16-1.41-.61-.4-1.22-.81-2.93-1.94Zm129.77-15.77v4.13c-.85-.64-1.66-1.38-2.58-1.9-1.33-.77-2.7-1.81-4.14-1.98-3.56-.41-7.18-.28-10.75-.56-1.93-.15-5.27-1.42-5.5-.96-2.3,4.63-4.69.45-6.95.33-2.74-.15-5.47-.38-8.21-.49-1.09-.04-2.33.53-3.25.17-8.14-3.19-16.15-1.54-24.18.4-2.98.72-3.58,2.98-1.87,4.7,2.49,2.52,5.78,4.27,8.72,6.34.32-.36.64-.73.96-1.09-.34-.62-.69-1.23-.92-1.64,5.46-1.81,12.11,3.96,16.99-2.69.14-.19,1.07-.06,1.4.2,5.02,4.02,10.36.58,15.53.74,3.21.1,6.44.28,9.62.75.86.13,1.51,2.08,2.3,2.11,4.19.15,8.66,1.93,12.61-1.48-.43.93-.86,1.86-.97,2.1,7.33-.63,14.63-1.25,23.03-1.97-2.34-1.38-3.56-2.1-5.61-3.31-.47,1.28-.93,2.55-1.39,3.82-1.24-1.51-1.26-2.37-1.65-2.98-.71-1.08-1.65-2.01-2.5-3-.33.33-.66.65-.98.98.51.76,1.01,1.52,1.52,2.28-.16.31-.33.62-.49.93-3.51-1.94-7.02-3.89-10.73-5.94Zm-1.97-599.87c0,14.5.81,28.63-.23,42.62-1.05,14.1-3.94,28.05-6.03,42.12,5.44,1.7,5.68,1.57,6.66-4.89,2.19-14.4,4.86-28.76,6.3-43.24,1.04-10.52.52-21.2.48-31.8,0-2.01-1-4.01-1.59-6.22-2.04.52-3.6.92-5.59,1.42Zm-228.83,550.72c0,5.01-.09,9.13.06,13.23.04,1.02.6,2.49,1.39,2.94,3.28,1.87,3.11,4.66,2.82,7.79-.31,3.3-.49,6.66-.15,9.94.14,1.38,1.7,3.63,2.74,3.71,5.04.39,10.12.18,15.39.18-1.98-9.75-3.78-18.8-5.69-27.83-.14-.66-.89-1.36-1.54-1.73-4.73-2.65-9.52-5.22-15.03-8.23Zm128.53-425.97c10.58-11.17,10.72-10.79,5.02-22.35-.37-.74-.69-1.51-1.05-2.25-1.54-3.23-6.1-3.97-8.46-1.34-.59.66-.93,1.56-1.57,2.14-4.87,4.43-10.72,8.43-6.74,16.48.21.42.1.98.18,1.47,1.18,7.08,2.38,14.17,3.59,21.37,8.25-8.48,7.97-19.96,11.25-30.06.39.12.78.23,1.17.35-1.13,4.73-2.25,9.46-3.38,14.19Zm104.26,31.77c-.75-2.37-2.83-5.59-1.99-6.82,3.66-5.34-.19-6.97-4.21-9.49,2.15-4.46,4.55-8.9,6.34-13.57.4-1.05-1.08-4.02-2.04-4.2-4.14-.76-8.42-.8-12.73-1.12v5.27c2.52.37,4.64.68,6.76.99.28.68.55,1.36.83,2.03-6.97-.84-10.22,2.87-12.85,9.39h9.35c-.51,1.28-1.24,3.11-2.05,5.13h-3.39c.7,4.24.94,8.27,2.19,11.96.51,1.5,3.28,3.23,4.93,3.13,2.85-.16,5.63-1.65,8.85-2.73Zm-549.46,41.11c-.75,2.69-1.31,4.71-1.87,6.72l.79.24c.32-.68.65-1.36,1.3-2.71.88,1.78,1.41,3.24,2.26,4.47.73,1.05,1.83,1.84,2.77,2.74.69-1.09,1.89-2.15,1.98-3.29.27-3.46.1-6.96.11-10.44,0-3.3,0-6.59,0-9.89-.43.02-.86.05-1.28.07v7.34c-2.41-8.87-3.76-17.92-6.54-26.5-2.94-9.07-9.02-16.35-16.74-22.17.14,1.44.9,2.46,1.55,3.54,2.37,3.93,5.19,7.69,6.92,11.89,1.61,3.9,2.19,8.26,2.97,12.47.75,4.01,2.6,8.57,1.42,12.01-2.17,6.32.14,10.1,4.35,13.49Zm204.84,63.58c2.61-1.08,5.25-1.45,6.67-2.97,1.66-1.78,2.24-4.56,3.75-7.92.88,2.38,1.56,4.22,2.44,6.6,2.69-.69,5.48-1.39,8.26-2.12,6.79-1.79,7.63-3.37,4.5-9.68-1.07-2.15-3.02-5.52-4.49-5.48-3.61.1-7.73,1.06-10.64,3.1-10.46,7.31-17.71,17.18-21.04,29.68,7.01-1.34,10.94-5.74,10.56-11.22Zm268.44-188.36c-15.99,2.1-29.56-.18-39.52-15.52-1.11,7.36.09,12.4,2.99,16.95,2.76,4.33,6.07,8.3,8.81,12.64,1.71,2.72,3.16,2.69,5.59.98,3.92-2.76,8.14-5.1,12.12-7.78,3.42-2.3,6.67-4.84,10-7.27Zm39.96,67.64c2.52,5.74,4.7,10.7,6.88,15.67.41-.17.82-.34,1.23-.5-1.73-4.25-3.46-8.49-5.2-12.76,4.57-2.03,6.66-.5,8,3.07,1.18,3.16,2.64,6.22,3.97,9.33.17-2.45-.42-4.64-1.46-6.58-3.59-6.7-3.95-13.53-1.4-20.64.78-2.18,1.27-4.46,1.92-6.68,2.84-9.65,5.7-19.29,8.54-28.92-6.51-2.2-8.39-1.55-10.28,4.07-3.9,11.61-7.59,23.29-11.27,34.97-.5,1.58-.44,3.34-.68,5.4,2.57-.15,4.39-.43,6.17-.28.93.08,1.8.91,2.69,1.41-.75.68-1.41,1.78-2.26,1.96-1.92.39-3.92.32-6.86.49Zm-223.79-15.79c-.16,0-.31,0-.47,0,0-12.15.15-24.31-.1-36.45-.06-3.03-.93-6.27-2.27-9.01-2.68-5.48-10.5-8.37-16.85-6.76-4.4,1.11-6.54,4.86-6.55,12.08,0,23.64.14,47.28.04,70.92-.02,4.43,1.69,6.85,5.89,7.84,4.37,1.02,8.69,2.21,13.04,3.29,6.07,1.51,7.2.72,7.24-5.46.07-12.15.02-24.29.02-36.44Zm176.02,156.77c2.41,7.19,4.63,14.08,7.05,20.9,1.46,4.14,3.14,8.2,4.92,12.22.5,1.13,1.68,1.95,2.87,3.27,1.72-13.54-1.55-25.44-3.58-37.73-4.08.49-7.51.89-11.26,1.34Zm-14.48,249.71c11.16-9.37,13.5-22.88,19.58-34.11,1.67-3.08.25-7.84.25-11.26-5.79,9.4-11.83,19.19-17.82,29.01-.4.66-.51,1.55-.6,2.36-.46,4.23-.86,8.48-1.42,14Zm-349.37-296.89c40.97-7.36,81.95-14.72,122.92-22.08-7.03-2.05-118.24,18.52-122.92,22.08Zm1.38,4.61c.1.56.2,1.11.3,1.67l121.73-21.06c-.12-.7-.25-1.4-.37-2.1-40.55,7.17-81.11,14.33-121.66,21.5Zm162.67,211.96c-.38.24-.76.48-1.14.73v46.52c.26,0,.52,0,.78,0,2.89-12.33,5.78-24.67,8.79-37.53-2.46-2.83-5.45-6.27-8.44-9.7Zm190.66,219.89c-.87-3.94-.61-9.13-2.49-10.07-7.02-3.53-14.74-5.67-22.46-8.42,1.14,16.47,13.72,15.52,24.95,18.49ZM197.52,187.04l.97-.14c-.48-3.05-.58-6.21-1.51-9.12-1.73-5.42-8.98-9.46-14.85-8.71-5.25.67-7.7,3.83-7.98,11.32-.26,7.12-.04,14.26-.03,21.39,0,17.65.11,35.3-.08,52.94-.05,4.25,1.56,6.76,5.54,7.49,3.68.68,7.46.86,11.34,1.28.49-4.67-2.67-4.3-5.15-4.52-8.36-.75-10.99-3.89-10.28-12.32.15-1.8.12-3.62.12-5.42-.04-20.64-.28-41.28-.04-61.92.08-6.82,6.45-10.4,12.88-8.04,4.5,1.65,6.81,5.13,7.91,9.55.51,2.04.79,4.14,1.17,6.22Zm-26.4,312.07c0,4.72,0,9.44,0,14.16,0,7.15-.04,14.29.06,21.44.04,2.79.69,5.09,3.51,3.39,0-3.42-.34-6.1.07-8.66.88-5.56,1.54-11.27,3.41-16.52,2.47-6.9-1.4-10.37-7.05-13.81Zm378.76,147.86c-.58-4.38.05-8.81-1.8-11.56-3.66-5.45-8.7-9.99-13.47-15.23,1.61,10.82,2.54,21.46,15.26,26.79Zm100.21-522.55c-.15.61-.31,1.22-.46,1.83,7.48-4.78,11.68-2.19,13.51,5.73.6-.16,1.2-.32,1.79-.48,2.32-6.36,4.65-12.71,6.97-19.07-7.63,3.28-14.01,6.98-20.37,10.71-.54.32-.96.86-1.44,1.29Zm-7.04,434.31c-14,17.16-14.41,18.22-11.15,27.94,7.9-10.15,10.65-16.91,11.15-27.94ZM131,307.7c-.02-.48-.05-.97-.07-1.45-30.35,5.3-60.69,10.59-91.04,15.89.08.46.16.92.24,1.38,30.29-5.27,60.58-10.54,90.87-15.82Zm268.56-23.38c-7.18,2.56-22.95,25.37-23.36,35.28,4.59-2.18,7.49-4.67,8.05-10.27.33-3.25,3.66-6.19,5.6-9.29,3.37-5.41,6.7-10.85,9.71-15.72Zm152.86,364.53c3.86-2.37,6.66-3.8,9.12-5.67,2.75-2.08,2.25-5.27-.96-6.44-2.23-.81-4.64-1.15-6.27-1.54,1.04-1.27,2.15-2.64,3.27-4-4.84-.03-2.23-4.12-3.48-7.09-4.84,8.15-1.16,15.86-1.68,24.74Zm-233.41-282.43c-.16-.8-.33-1.61-.49-2.41,4.95-.97,9.9-1.94,14.85-2.91-.02-.4-.04-.79-.06-1.19-5.07-.79-10.13-1.58-15.3-2.38v14.69c6.01-2.19,11.38-4.14,16.74-6.09-.12-.38-.24-.76-.36-1.14-5.12.47-10.25.95-15.37,1.42Zm318.99-242.49c-4.35-6.58-8.69-13.16-13.31-20.15-.98,6.05-1.96,12.15-2.94,18.25.17.69.34,1.38.5,2.07,6.15-7.86,10.99-5,15.74-.17Zm99.9,88.15c3.36-4.38,5.79-7.4,8.03-10.56.77-1.08,1.08-2.5,1.59-3.76-1.35-.31-3.47-1.33-3.92-.83-3.14,3.44-7.61,1.93-12.34,3.32,2.17,3.87,4.03,7.19,6.64,11.83Zm-552.96-7.69c-1.87,2.01-5.04,3.83-5.14,5.81-.4,7.73-.84,15.73.78,23.18.88,4.03,1.04,7.21-.31,10.78-.52,1.39-1.07,2.78-1.6,4.17,3.99-4.97,7.03-10.06,3.85-16.64-2.64-5.46-4.02-11.04,1.52-15.9.6-.53.82-1.71.87-2.61.12-2.44.04-4.9.04-8.8Zm363.49,456.48c.41-.16.82-.33,1.23-.49,0-2.98,1.16-6.81-.26-8.73-2.32-3.11-6.33-4.96-10.07-7.67-1.71,8.85,5.95,11.57,9.1,16.89Zm199.08-504.32c-.06-1.05.1-4-.29-4.08-4.6-.89-9.28-1.57-13.96-1.75-1.01-.04-2.11,2.12-4.18,4.36,6.98.56,12.32.98,18.43,1.47Zm-351.8,225.84l-.88-2.08c-2.24-.35-4.48-.7-6.71-1.05.43,2.1.86,4.2,1.06,5.2-2.76,4.73-5.2,8.92-7.63,13.1.36.33.72.66,1.08.99,4.36-5.39,8.72-10.77,13.08-16.16Zm-37-66.09c-2.68-3.03-6.97-2.16-11.93,1.21.87,2.82,1.58,5.68,2.67,8.4.38.94,1.68,1.51,2.56,2.25.3-1.06.89-2.14.83-3.18-.17-2.85-.62-5.68-.94-8.37,2.81-.13,4.82-.22,6.82-.3Zm210.19,339.55c-5.76,3.31-11.4,6.55-17.04,9.8,0,.57,0,1.15,0,1.72,2.63.11,6.28,1.36,7.69.1,3.58-3.19,6.17-7.5,9.35-11.62Zm-249.18-275.56c5.31-3.1,10.09-5.9,14.88-8.7-.2-.44-.4-.89-.6-1.33-5.12,1.39-10.24,2.78-15.75,4.27.48,1.88.91,3.53,1.48,5.76Zm63.71-15.54c-.03.36-.07.72-.1,1.08,5.26,2,10.53,4,16.35,6.22.11-2.24.19-3.95.28-5.95-5.83-.47-11.18-.91-16.53-1.34Zm1.88-4.98l.02,1.36c4.91.84,9.83,1.69,15.05,2.58.53-2.13.93-3.76,1.48-5.98-5.98.74-11.27,1.39-16.56,2.05Zm.71-5.66c.09.5.17.99.26,1.49,4.51,0,9.02.12,13.51-.12.71-.04,2.01-1.88,1.83-2.6-.27-1.11-1.81-2.93-2.4-2.78-4.46,1.11-8.82,2.63-13.21,4.02Zm-12.06,40.97v7.97c-1.54-2.35-2.53-3.85-3.51-5.35-.38.06-.75.11-1.13.17-.31,2.08-.61,4.16-.92,6.24,2.29-.3,4.58-.56,6.86-.92.44-.07.9-.46,1.22-.82,1.07-1.23,2.08-2.52,3.11-3.79-1.46-.91-2.93-1.82-5.63-3.5Zm13.8-46.89c.37.7.73,1.4,1.1,2.09,4-1.02,8-2.04,12.4-3.16-.68-2.15-1.15-3.64-1.85-5.86-4.21,2.5-7.93,4.72-11.64,6.93Zm247.35,390c2.61,5.86,10.89,6.2,16.36,1.26-5.69-.44-10.53-.81-16.36-1.26Zm39.71-361.93c.3.06.6.12.9.18.66-4.2,1.51-8.39,1.89-12.62.19-2.09-.36-4.29-.87-6.36-.12-.48-1.42-.68-2.18-1.01-.2.64-.59,1.29-.56,1.92.23,5.96.54,11.92.82,17.88Zm-276.19-2.47c-5.78-1.52-10.84-2.85-15.9-4.17-.03.19-.06.38-.09.57,4.5,2.97,9,5.93,13.82,9.11.73-1.86,1.37-3.49,2.17-5.51Zm-89.09,312.43c8.38,3.01,12.11,2.05,17.48-4.39-3.37,1.47-5.78,2.53-8.36,3.65v-4.17c-3.11,1.67-5.62,3.03-9.12,4.91Zm-118.88-12.3c7.9,2.61,12.6-3.5,18.99-5.14-.27-.72-.55-1.44-.82-2.15-6.06,2.43-12.11,4.86-18.17,7.29Zm175.98-347.67c.65.16,1.29.31,1.94.47,1.42-3.86,2.83-7.72,4.5-12.26-2.55-.29-4.05-.46-5.81-.66-.23,4.56-.43,8.51-.63,12.46Zm-21.74-7.92c-5.64,2.09-5.9,4.48-1.41,9.49.57.63,1.59.85,2.4,1.27.41-.96,1.28-1.99,1.13-2.85-.46-2.55-1.32-5.03-2.12-7.91Zm169.27,377.3c5.26,2.45,9.42,4.4,14.3,6.67-2.17-7.02-5.34-8.51-14.3-6.67Zm-176.28-373.84c-3.26,3.46-5.85,6.2-8.43,8.95.29.3.58.6.87.9,1.25-1.09,2.5-2.19,3.38-2.96,2.45.21,4.68.4,7.94.67-1.44-2.91-2.29-4.61-3.75-7.56Zm133.07,186.9c-.71-.17-1.41-.34-2.12-.51-1.5,6.33-3,12.67-4.5,19,.65.15,1.31.3,1.96.45,1.55-6.31,3.11-12.63,4.66-18.94ZM641.33,36.24c-.09-1.28.09-3.35-.31-3.48-1.4-.42-3-.16-3.95-.16v7.24c1.33,0,2.7.24,3.94-.07,1.36-.34,2.59-1.19,3.87-1.82-1.29-.63-2.59-1.25-3.55-1.72Zm-4.54,672.68c.07-.48.13-.97.2-1.45-2.76-1.47-5.52-2.93-8.96-4.76.48,3.39.84,5.94,1.28,9.01,2.72-1.02,5.1-1.91,7.48-2.8Zm97.4-567.92c-.73,3.02-1.15,4.76-1.58,6.5,2.87.42,5.73.84,8.6,1.26.19-.49.37-.98.56-1.47-2.15-1.79-4.3-3.57-7.58-6.29ZM183.34,673.04c.18.62.36,1.23.55,1.85,5.86-2.59,11.72-5.17,17.58-7.76-.25-.6-.5-1.21-.76-1.81-5.79,2.58-11.58,5.15-17.37,7.73Zm156.64-326.86c-1.4,1.96-2.6,3.63-4.15,5.79,2.24-1.32,3.63-2.78,5-2.77,1.15.01,2.27,1.76,3.41,2.74.31-.36.62-.71.93-1.07-1.4-3.39-2.8-6.78-4.2-10.17-.5.13-1.01.26-1.51.39.19,1.9.39,3.81.52,5.08Zm143.54,177.99c.79.16,1.58.31,2.37.47,1.27-5.3,2.53-10.61,3.8-15.91-.71-.17-1.41-.33-2.12-.5-1.35,5.32-2.7,10.63-4.05,15.95Zm-207.44,155.72c-1.31.3-3.19.73-5.07,1.16.14.76.28,1.52.43,2.29,2.7-.46,5.48-.66,8.05-1.5,1.02-.33,1.86-2,2.19-3.22.12-.43-1.99-2.09-2.32-1.89-1.23.73-2.14,1.99-3.28,3.16Zm444.48-478.66c-4.81-1.69-6.76-.38-7.88,5.1,3.87.43,7.73.9,7.88-5.1Zm-360.85,137.23v10.91c.27,0,.54.01.81.02v-7.4c1.78,2.9,2.91,4.74,4.62,7.53,1.3-6.07-2.03-8.6-5.43-11.05Zm-107.35,334.85c-.23-.65-.46-1.29-.69-1.94-5.29,2.36-10.57,4.73-15.86,7.09.28.64.55,1.28.83,1.92,5.24-2.36,10.48-4.72,15.72-7.07Zm-39.2,3.39c.23.58.46,1.16.69,1.74,5.67-2.85,11.33-5.71,17-8.56-.21-.45-.43-.9-.64-1.35-5.68,2.72-11.36,5.45-17.04,8.17Zm35.89,3.75c6.75.99,11.15-1.37,13.59-6.78-5.13,2.56-9.36,4.67-13.59,6.78Zm140.52-339.05c.43.41.87.82,1.3,1.23,8.88-2.54,9.09-2.81,5.31-8.2-2.3,2.42-4.46,4.69-6.61,6.96Zm221.7-208.66c-.45.22-.9.43-1.35.65,2.99,6.5,5.99,12.99,8.98,19.49.41-.19.83-.39,1.24-.58-2.96-6.52-5.92-13.04-8.87-19.56Zm-414.43,402.28c-.03-.31-.05-.62-.08-.93h-18.39c.01.31.03.62.04.93h18.44Zm3.54,140.08c.22.53.44,1.06.66,1.59,6.83-3.41,13.66-6.81,20.48-10.22-.17-.36-.35-.72-.52-1.08-6.88,3.24-13.75,6.47-20.63,9.71Zm436.61,73.39c-.01.57-.02,1.13-.03,1.7h12.21c0-.57-.01-1.13-.02-1.7h-12.16Zm-261.4-400.66q3.59-.34,1.93-11.87c-2.81,3.52-.62,7.95-1.93,11.87Zm3.23-22.32c.62.29,1.25.57,1.87.86,1.96-1.64,3.92-3.28,5.88-4.92-.21-.62-.42-1.24-.64-1.85-2.13.3-4.54.11-6.26,1.11-.91.53-.61,3.13-.85,4.8Zm152.91,367.03c-4.58-1.6-8.83-3.09-12.79-4.47,3.17,5.2,10.11,7.79,12.79,4.47ZM200.73,263.39c1.7-2.18,3.45-3.73,3.19-4.23-.68-1.31-2.13-2.71-3.5-3.01-.8-.17-2.87,1.71-2.87,2.67,0,1.19,1.55,2.38,3.17,4.57Zm112.43,419.5c-.32-.96-.64-1.92-.97-2.88-3.72,1.61-7.44,3.21-11.16,4.82.27.7.53,1.41.8,2.11l11.33-4.05Zm-40.68-7.24c-.23-.48-.46-.95-.69-1.43-5.23,2.51-10.45,5.03-15.68,7.54.25.52.5,1.04.75,1.56,5.2-2.56,10.41-5.11,15.61-7.67ZM647.9,138.68c-.3.27-.59.53-.89.8,1.65,2.51,3.31,5.03,4.96,7.54,1.16-1.39,2.31-2.77,3.36-4.03-2.84-1.64-5.14-2.97-7.44-4.3Zm-356.69,536.77c-3.72-4.23-6.34-3.18-8.83.03,3.05,5.62,5.48.4,8.83-.03Zm79.67-338.17l-2.33-.26c.17,3.93.34,7.85.52,11.78.61.06,1.21.13,1.82.19,1.84-3.74-.47-7.84-.01-11.7Zm237.4-28.96c.41.11.82.22,1.23.32,1.78-6.76,3.56-13.52,5.34-20.28-.36-.09-.72-.19-1.08-.28-1.83,6.75-3.66,13.49-5.49,20.24Zm-404.41-40.08c.19-.56.37-1.13.56-1.69-1.94-1.12-3.89-2.23-6.74-3.87.21,3.15.31,4.69.45,6.81,2.16-.47,3.95-.85,5.74-1.24Zm146.48,132.24c-.59.09-1.19.17-1.78.26-.79,1.97-1.57,3.94-2.36,5.91.33.38.66.76.99,1.14,1.66-.63,4.49-.99,4.72-1.95.37-1.58-.96-3.55-1.57-5.36Zm-.83-60.25c-.24-.16-.49-.32-.73-.48-.76,2.24-2.11,4.48-2.07,6.71.02,1.54,1.94,3.06,3.67,5.52-.37-4.97-.62-8.36-.87-11.75Zm-163.04-118.7c-4.15,3.45-4.06,6.5,0,10.55v-10.55Zm290.77,279.81c-.05.66-.11,1.32-.16,1.98h11.07c.03-.46.06-.91.08-1.37-3.66-.2-7.33-.41-10.99-.61Zm-299.82,29.22c.53.08,1.07.16,1.6.23.88-4.48,1.76-8.97,2.64-13.45-.51-.1-1.02-.2-1.53-.3-.9,4.51-1.81,9.01-2.71,13.52Zm455.44,203.28c.22-.42-.06-.06,0,.02,3,3.63,8.91,4.63,15.48,2.66-5.08-.88-10.17-1.76-15.48-2.68Zm-388.17-66.58c-.32-.64-.64-1.29-.95-1.93-3.4,1.91-6.79,3.81-10.19,5.72.18.37.37.73.55,1.1,3.53-1.63,7.06-3.25,10.59-4.88ZM448.02,33.24c-.29.48-.59.95-.88,1.43,4.05,2.09,8.09,4.17,12.14,6.26l.5-.95c-3.92-2.24-7.84-4.49-11.76-6.73Zm-229.38,638.94l-.66-1.57c-3.72,1.73-7.44,3.47-11.16,5.2.19.42.38.84.57,1.26,3.75-1.63,7.5-3.26,11.25-4.9ZM731.19,125.08c1.75,1.96,3.15,3.53,4.91,5.5.32-2.3.58-4.17.87-6.29-1.42-.09-2.24-.26-3.02-.15-.79.11-1.55.51-2.76.94ZM229.07,677.16c.24.54.48,1.07.71,1.61,2.72-1.13,5.44-2.26,8.17-3.39-.33-.74-.66-1.47-.99-2.21-2.63,1.33-5.26,2.66-7.89,3.99Zm300.49,11.53c-3.11-2.04-6.29-4.12-9.25-6.07.79,4.31,3.55,6.2,9.25,6.07Z"/><path class="cls-1" d="m325.44,702.87c-1.19-.24-2.32-.46-3.46-.69.03-.34.06-.67.09-1.01h11.65c-.61-1.37-1-2.27-1.39-3.16.28-.35.57-.69.85-1.04,1.69.98,4.88,2.19,4.78,2.91-.36,2.44-1.89,4.71-3.44,8.06-3.15-6.37-5.87-2.07-9.09-.77v-4.31Z"/><path class="cls-1" d="m683.46,721.58c2.08,2.71,3.7,4.37,4.59,6.34.2.44-1.97,2.61-3.33,2.98-3.79,1.04-3.36-2.68-4.08-4.58-.31-.81,1.33-2.35,2.81-4.74Z"/><path class="cls-1" d="m517.42,755.42c3.9,0,6.91-.16,9.87.15.52.05,1.5,2.54,1.12,3.08-1.55,2.14-8.73.62-10.99-3.22Z"/><path class="cls-1" d="m542.12,760.83c-3.33-1.9-5.83-3.27-8.21-4.82-.13-.08,1.03-2.47,1.08-2.45,2.85,1.07,5.68,2.22,8.37,3.64.17.09-.78,2.32-1.24,3.63Z"/><path class="cls-1" d="m580.95,732.92c2.24-1.42,4.38-3.07,6.78-4.12.69-.3,2.37.91,3.11,1.82.3.37-.54,2.48-1.14,2.61-2.78.64-5.66.87-8.5,1.25-.08-.52-.17-1.04-.25-1.56Z"/><path class="cls-1" d="m545.29,731.45c3.02-.28.74-6.78,5.82-4.3.89.43,1.47,3.7,1.25,3.81-1.99,1.01-4.18,1.62-6.32,2.34l-.75-1.86Z"/><path class="cls-1" d="m470.41,721.85c-3.28,2.12-6.27,3.06-10.25-.61,2.46-.57,4.09-.95,5.9-1.37v-3.35c.28-.1.55-.21.83-.31,1.14,1.82,2.28,3.65,3.52,5.63Z"/><path class="cls-1" d="m563.64,740.56c-3.06.74-6.09,1.64-9.19,2.12-.67.1-1.58-1.26-2.37-1.95.83-.67,1.61-1.85,2.49-1.92,2.87-.25,5.77-.09,8.67-.09.14.61.28,1.23.41,1.84Z"/><path class="cls-1" d="m88.32,634.37c3.66-.4,7.34-.79,11.07-1.2-4.13,5.22-4.58,5.26-11.07,1.2Z"/><path class="cls-1" d="m537.62,726.94h-10.4c2.68-3.85,5.5-3.98,10.4,0Z"/><path class="cls-1" d="m600.09,740.42c1.89-.79,3.76-1.66,5.72-2.24.19-.06.91,1.71,1.39,2.62-2,.75-4,1.5-6,2.25-.37-.88-.74-1.76-1.11-2.63Z"/><path class="cls-1" d="m433.58,725.42c-2.87,3.78-3.76,3.82-8.96,0h8.96Z"/><path class="cls-1" d="m233.12,638.21c-2.68,1.16-5.36,2.33-8.04,3.49-.26-.56-.51-1.11-.77-1.67,2.56-1.44,5.12-2.89,7.68-4.33l1.13,2.51Z"/><path class="cls-1" d="m453.38,730.89c-2.99.2-5.98.41-8.96.61-.05-.79-.09-1.59-.14-2.38,2.99-.18,5.98-.37,8.96-.55l.14,2.32Z"/><path class="cls-1" d="m190.26,689.48c2.15-.31,4.3-.62,8.31-1.2-1.92,2.2-2.85,4.21-4.09,4.42-1.46.24-3.18-1.08-4.78-1.72.19-.5.37-1,.56-1.5Z"/><path class="cls-1" d="m535.96,519.29c-2.45-5.63,7.84-92.81,12.32-103.01-4.06,33.95-8.12,67.9-12.32,103.01Z"/><path class="cls-1" d="m541.93,385.51c1.28.42,2.53,1.08,3.85,1.22,7.54.84,15.09,2.07,22.64,2.14,5.48.05,10.98-1.47,16.47-2.32,2.77-.43,5.53-.9,8.29-1.36.13.65.25,1.29.38,1.94-3.38.72-6.97.94-10.11,2.24-12.8,5.29-25.84,1.57-38.75,1.24-1.97-.05-3.88-2.72-5.82-4.18.27-.44.53-.89.8-1.33.81.18,1.62.36,2.42.54,0,0-.16-.14-.16-.14Z"/><path class="cls-1" d="m608.62,394.45c-.08-23.11-3.5-46.25,1.69-69.29v69.31c-.56,0-1.12-.01-1.69-.02Z"/><path class="cls-1" d="m611.84,403.75c-2.14.24-4.38.16-6.42.77-6.98,2.08-13.83,4.65-20.86,6.52-3.42.91-7.16.69-9.37-2.07,8.14-2.43,16.25-4.85,24.36-7.27,2.7-.81,5.36-1.88,8.12-2.32,3.23-.52,5.36.59,4.06,4.49,0,.01.11-.11.11-.11Z"/><path class="cls-1" d="m554.74,429.28c15.25-4.9,29.97-9.62,44.68-14.35-4.68,5.9-40.98,17-44.68,14.35Z"/><path class="cls-1" d="m565.97,532.6c-4.32,1.12-7.87,2.14-11.48,2.86-.43.09-1.81-1.6-1.67-2.2.49-2.01,1.06-4.3,2.42-5.69.88-.89,3.5-.99,4.78-.35,1.9.96,3.3,2.89,5.94,5.37Z"/><path class="cls-1" d="m618.8,395.56c.12-.78.14-1.59.38-2.33,2.28-7.02,4.6-14.03,7.52-20.85-.11,8.49-3.82,15.9-7.9,23.18Z"/><path class="cls-1" d="m324.51,129.58c5.96-1.87,11.86-3.98,17.9-5.55,16.37-4.25,32.84-8.14,49.21-12.44,8.07-2.12,9.41-1.44,9.37,7.11-.11,30.62-.34,61.24-.52,91.87-.04,6.33-.05,12.65-.04,18.98,0,4.35-1.99,6.55-6.42,7.33-23.54,4.15-47.04,8.49-70.55,12.81-7.97,1.46-9.75-.13-8.8-8.05.2-1.65.25-3.31.26-4.97.15-32.62.28-65.25.42-97.87.03-7.98,1.32-9.25,9.29-9.3-2.9,2.3-7.3,2.69-7.23,8.25.2,16.96-.22,33.93-.32,50.9-.07,11.64-.01,23.27-.01,34.91.86-1.65.86-3.3.86-4.95.09-25.62.18-51.24.28-76.86.03-7.15.57-8.01,7.28-9.7,21.88-5.49,43.8-10.81,65.66-16.37,3.96-1.01,5.21.15,5.02,3.97-.31,6.13-.66,12.27-.69,18.4-.12,29.11-.25,58.23-.07,87.34.03,4.28-1.73,6.12-5.25,7.13-1.74.5-3.57.67-5.37.95-10.78,1.71-21.57,3.41-32.35,5.11,10.79-2.37,21.54-4.96,32.39-7.04,9.08-1.74,9.36-1.7,9.33-11.1-.07-29.8-.18-59.59-.27-89.38,0-1.61,0-3.22,0-5.49-7.5,1.51-14.23,2.86-20.96,4.22.34.45.68.91,1.03,1.36-1.23,1.65-2.15,4.29-3.74,4.78-7.6,2.36-15.36,4.21-23.1,6.08-1.57.38-3.3.05-4.96.05-.16-.5-.32-1-.49-1.5,1.88-.99,3.66-2.35,5.66-2.9,6.88-1.9,13.84-3.48,20.75-5.27.88-.23,1.65-.93,2.47-1.41-5.51.3-10.55,1.69-15.6,3.06-7.17,1.95-14.34,3.92-21.52,5.83-3.1.82-4.54,2.38-4.48,5.95.13,8.08-.33,16.17-.48,24.26-.34,17.79-.65,35.59-.92,53.38-.09,5.9-.01,11.81-.01,18.23,8.74-1.13,16.91-2.18,25.07-3.23-9.69,2.06-19.4,3.98-29.03,6.22-3.94.92-6.01-.4-6.86-5.38-.48,7.96-.04,8.34,6.35,6.88,1.13-.26,2.29-.38,3.43-.6,21.66-4.04,43.31-8.12,64.98-12.1,3.67-.67,5.47-2.39,5.47-6.31.02-36.53.11-73.07.29-109.6.02-3.98-1.12-4.74-5.03-3.73-19.27,4.99-38.61,9.72-57.96,14.41-3.16.77-6.47.89-9.71,1.31Z"/><path class="cls-1" d="m330.33,103.26c0-8.45.14-16.9-.06-25.34-.1-4.16,1.5-6.41,5.51-7.59,15.07-4.45,30.08-9.13,45.13-13.66,4.49-1.35,7.26.79,7.14,5.25-.23,8.96-.46,17.92-.62,26.89-.12,6.93-1.05,8.04-7.9,9.86-13.92,3.69-27.83,7.44-41.73,11.24-5.78,1.58-7.6.02-7.49-6.63Zm50.92-38.33c-.3-.06-.66-.26-.94-.18-13.76,3.75-27.54,7.45-41.24,11.41-1.13.33-2.42,2.42-2.48,3.74-.26,6.14-.1,12.3-.13,18.46-.01,2.59.96,3.68,3.69,2.93,12.65-3.49,25.34-6.85,37.95-10.46,1.25-.36,2.97-2.06,3.01-3.19.27-7.43.14-14.88.14-22.7Zm-48.07,9.46c.13.23.26.47.39.7.93-.5,1.81-1.19,2.81-1.49,13.67-4.08,27.34-8.16,41.04-12.12,4.95-1.43,5.9-.72,5.97,4.4.1,7.31.31,14.64-.21,21.91-.13,1.77-2.62,4.23-4.52,4.86-9.15,3.01-18.43,5.63-27.73,8.11-5.72,1.53-11.58,2.56-18.27,4.01,1.49.53,3.03,1.69,4.18,1.39,14.42-3.84,28.77-7.94,43.16-11.87,3.31-.9,4.3-2.78,4.27-6.17-.08-8.63.23-17.27.49-25.91.1-3.18-1.4-3.77-4.06-2.98-14.65,4.33-29.31,8.63-43.94,13.04-1.29.39-2.4,1.4-3.59,2.12Z"/><path class="cls-1" d="m52.11,261.89c0-18.12.1-36.25-.07-54.37-.04-4.37,1.91-6.28,5.83-7.27,19.81-5,39.62-10.01,59.38-15.22,3.61-.95,4.72.49,4.73,3.52.09,24.28.11,48.56.15,72.84.01,6.83.11,13.65-.05,20.48-.15,6.7-1.66,8.4-8.26,9.65-18.43,3.49-36.87,6.93-55.32,10.34-5.72,1.06-7.36-.3-7.43-6.53-.13-11.15-.04-22.3-.04-33.45.36,0,.72,0,1.07,0Zm10.34,32c.78.36,1.1.66,1.36.61,16.6-3.25,33.2-6.46,49.75-9.96,1.06-.22,2.33-2.71,2.34-4.15.25-26.46.34-52.92.42-79.38,0-2.65-.55-4.69-4.12-3.36-2.78,1.04-5.7,2.13-8.62,2.29-4.08.23-4.37,4.8-7.01,5.69-7.05,2.37-14.38,3.93-21.62,5.73-.5.13-1.16-.36-2.22-.73.69-1.41,1.24-2.54,1.86-3.8-2.05.48-3.96,1.03-5.9,1.35-5.06.84-6.77,3.4-6.68,8.8.36,23.6.15,47.22.17,70.83,0,2.11.19,4.22.28,6.09Zm56.45-82.07c-.12,0-.25,0-.37,0v35.72c.12,0,.25,0,.37,0v-35.71Z"/><path class="cls-1" d="m62.58,186.03c0-8-.03-15.73.02-23.47,0-1.65.49-3.31.38-4.94-.23-3.64,1.7-5.69,4.83-6.63,12.35-3.73,24.71-7.46,37.14-10.95,5.29-1.48,6.59-.28,6.63,5.23.06,7.65.29,15.31-.17,22.93-.13,2.13-2.02,5.44-3.78,5.98-13.94,4.25-28.04,7.97-42.1,11.83-.61.17-1.3.02-2.96.02Zm5.76-6.91c12.03-3.33,23.36-6.37,34.6-9.72,1.28-.38,2.82-2.46,2.91-3.84.36-5.13.23-10.29.15-15.44-.05-2.9-.77-4.71-4.56-3.53-9.8,3.06-19.75,5.65-29.55,8.69-1.42.44-3.32,2.32-3.39,3.62-.35,6.57-.16,13.16-.16,20.22Z"/><path class="cls-1" d="m663.09,61.75c.75-.6,1.5-1.2,2.59-2.08-1.35-.99-2.45-1.8-4.28-3.13,1.72-1.02,2.93-2.03,4.32-2.51,4.44-1.55,11.26,1.55,14.74,6.55.01.02-.04-.12-.02-.1-1.14.17-2.41.7-3.42.39-2.56-.8-5-1.98-7.82-2.44,3.75,2.15,7.85,3.72,8.18,9.42-5.01-2.2-9.6-4.21-14.19-6.23,0,0-.11.13-.11.13Z"/><path class="cls-1" d="m636.72,57.33c1.93-.95,3.85-1.91,5.78-2.86-.05-.27-.1-.54-.15-.81-2.65.61-5.3,1.21-7.93,1.81.85-6.46,9.43-7.69,18.56-2.65-3.51,6.88-5.43,7.57-16.25,4.51Z"/><path class="cls-1" d="m647.31,87.28c4.06.46,7.92.89,11.78,1.33.1-.85.2-1.7.29-2.55-6.54-.74-13.08-1.49-20.58-2.34,7.95-2.51,20.86-.49,25.93,3.53-5.17,3.71-11.93,3.77-17.42.03Z"/><path class="cls-1" d="m654.18,80.45c2.66-5.27,7.14-5.98,11.13-2.82,5.33,4.2,5.74,7.18.95,12.06,2.92-6.13-2.04-8.41-5-11.58-2.26.75-4.67,1.55-7.08,2.35Z"/><path class="cls-1" d="m663.2,61.62q-2.81,1.94-3.9,11.41c-.49.07-.98.13-1.47.2-.32-2.31-1.27-4.76-.78-6.88.55-2.38,2.4-4.47,3.69-6.68.78.7,1.57,1.39,2.36,2.08,0,0,.11-.14.11-.14Z"/><path class="cls-1" d="m646.04,73.63c-4.34,2.75-7.81,4.94-11.29,7.14.66.67,1.32,1.35,1.98,2.02-1.66-5.44.52-7.87,9.31-9.17Z"/><path class="cls-1" d="m644.73,90.95c4.2.75,8.15,1.46,12.04,2.16-4.07,2.74-8.86,2.01-12.04-2.16Z"/><path class="cls-1" d="m654.47,664.82c-4.91,4.04-9.71,8-14.95,12.32,1.23,1.52,3.12,3.55,4.61,5.85.53.82.46,3.05.01,3.26-1.09.52-3.18.81-3.77.18-2.58-2.79-4.88-5.86-7.03-9-.53-.77-.6-2.7-.06-3.2,4.19-3.82,8.5-7.52,12.94-11.05,2.82-2.24,5.5-1.47,8.26,1.65Z"/><path class="cls-1" d="m642.17,648.7c2.5-1.42,4.99-2.83,7.86-4.46.67,3.8-5.02,6.92,1.1,10.2-3.35,1.31-5.75,2.25-8.63,3.37-.46-1.43-.88-2.73-1.54-4.79-1.44,2.14-2.6,3.87-3.78,5.62-3.16-2.95-2.95-5.45.31-7.09,1.73-.87,3.31-2.03,4.96-3.06,0,0-.28.22-.28.22Z"/><path class="cls-1" d="m652.66,613.98c-1.69,3.53-3.38,7.06-5.07,10.58.3.21.6.42.9.63.85-.62,1.7-1.24,2.55-1.85q.3,4.1-11.38,12.37c1.32-1.7,2.65-3.41,4.05-5.22-1.02-.23-1.73-.39-1-.23,1.05-4.39,1.52-8.75,3.23-12.56.95-2.13,3.96-3.34,6.03-4.96.23.41.46.82.69,1.23Z"/><path class="cls-1" d="m642.17,648.7s.27-.22.28-.22c-.5-.41-1-.83-1.49-1.24,3.06-2.92,6.11-5.83,9.17-8.75.49.53.98,1.05,1.47,1.58l-9.42,8.63Z"/><path class="cls-1" d="m640.74,641.37c1.1-5.46,3.28-6.63,9.66-5.35-3.41,1.89-6.13,3.4-9.66,5.35Z"/><path class="cls-1" d="m470.74,318.1c.76-1.86,1.53-3.71,2.65-6.43,1.44,1.78,2.4,2.96,2.91,3.59,1.32-.64,2.75-1.33,4.18-2.02.74,1.65,2.28,3.46,2,4.92-.26,1.37-2.49,3.45-3.75,3.37-4.47-.28-8.89-1.37-13.34-2.09-4.49-.72-4.78-3.53-3.73-8.23,1.31,2.55,2.15,4.2,3.58,6.97,1.17-3.58-.06-7.98,5.2-6.38-.29,2.06-.57,4.05-.85,6.04.39.08.77.17,1.16.25Z"/><path class="cls-1" d="m458.96,306.86c3.89-7.7,8.89-1.95,13.49-3.94-.22,2.11-.36,3.47-.6,5.86-1.07-1.39-1.56-2.03-1.75-2.27-2.91,2.4-6.09,1.28-9.25.78-5.24-.83-5.63-1.75-1.89-6.56v6.12Z"/><path class="cls-1" d="m473.01,309.31c.36-1.93.63-3.37,1.21-6.48,1.33,5.68,10.32-1.74,8.33,7.66-3.19-.39-6.27-.77-9.55-1.18Z"/><path class="cls-1" d="m467.72,298.7c-4.75-.86-9.17-1.66-13.59-2.46,6.43-2.52,12.23-1.23,13.59,2.46Z"/><path class="cls-1" d="m167.69,340.59c2.2-1.25,3.66-2.32,3.82-2.15,2.97,3.08,6.53-.09,9.77,1.07,3.68,1.32,7.71,1.59,11.48,2.72,1.35.4,2.34,1.98,3.5,3.02-1.3.31-2.65,1.01-3.9.87-6.25-.71-12.49-1.52-18.68-2.58-1.68-.29-3.2-1.54-5.99-2.95Z"/><path class="cls-1" d="m174.74,345.84c1.07,2.61,1.59,3.88,2.14,5.22,1.17-1.58,2.23-3.02,3.29-4.45.39.18.78.37,1.17.55.1,1.38.2,2.76.36,4.97,1.05-1.62,1.74-2.69,2.31-3.57,1.55,0,2.99-.23,4.32.07,1.26.28,2.96.83,3.45,1.79.55,1.08.42,3.05-.27,4.04-.47.68-2.43.56-3.68.43-3.56-.38-7.09-.97-10.64-1.46-4.32-.6-4.24-3.06-2.45-7.59Z"/><path class="cls-1" d="m174.3,355.59c5.58.97,11.16,1.93,16.74,2.9-.09.6-.19,1.19-.28,1.79-5.6-.86-11.2-1.71-16.79-2.57.11-.71.23-1.41.34-2.12Z"/><path class="cls-1" d="m179.51,333.63c-.29.87-.58,2.2-.74,2.18-3.51-.36-7-.83-10.48-1.42-.36-.06-.88-1.43-.79-1.5.67-.52,1.54-1.29,2.23-1.19,3.18.48,6.31,1.21,9.77,1.92Z"/><path class="cls-1" d="m351.66,392.87c-.8-4.52,2.53-4.69,4.89-4.44,6.36.69,12.21-1.9,18.37-2.24,2.05-.11,4.12-.02,7.24.99-.95.94-1.78,2.5-2.87,2.7-3.11.57-6.34.42-9.47.87-3.75.54-7.43,1.55-11.19,2.06-2.29.31-4.65.06-6.97.06Z"/><path class="cls-1" d="m351.38,384.44c.11-.46.27-2.88.79-2.96,3-.47,6.09-.51,9.13-.34.45.02.8,1.93,1.32,3.31h-11.25Z"/><path class="cls-1" d="m342.24,395.67c.51-2.31.37-4.77,1.3-5.26,1.62-.87,3.94-.83,5.86-.54.54.08.75,2.37,1.11,3.66-2.71.7-4.83,1.25-8.27,2.14Z"/><path class="cls-1" d="m688.47,639.84c-.98.34-2.36.82-3.76,1.31-.69-1.62-1.32-3.1-1.98-4.65,1.58-.49,3.27-1,4.98-1.53.25,1.58.46,2.9.76,4.87Z"/><path class="cls-1" d="m722.74,148.2c-1.92,5.77-3.61,11.27-5.68,16.63-.37.97-2.27,1.35-3.47,2-.44-1.21-1.45-2.54-1.22-3.6.87-4.05,2.24-7.98,3.24-12,.82-3.32,2.77-4.26,7.13-3.02Z"/><path class="cls-1" d="m482.82,160.06c0,11.8-.02,23.6.01,35.41.01,3.77-1.81,5.23-5.37,4.3-4.64-1.21-9.29-2.47-13.82-4.02-1.19-.4-2.35-1.77-2.88-2.97-.65-1.46-.83-3.22-.85-4.86-.25-21.95-.47-43.9-.6-65.85-.04-7.39,2.28-11.01,7.24-11.92,5.67-1.04,12.77,2.62,13.95,8.7,1.44,7.41,1.43,15.13,1.74,22.73.25,6.15.05,12.32.05,18.47.18,0,.36,0,.54,0Zm-10.15-2.98c-.49.16-.98.31-1.47.47.36,2.97.72,5.94,1.07,8.91.49-.06.97-.12,1.46-.17-.17-1.72-.34-3.44-.53-5.41,1.04.65,1.81,1.13,2.58,1.61l1.03-1.14c-1.38-1.42-2.76-2.84-4.14-4.25Zm-1.44,19.09c4.77,1.05,4.95-1.38,4.79-3.73-.05-.76-1.17-1.44-1.8-2.16-.95,1.87-1.9,3.74-2.99,5.89Zm3.32-24.9c.67-.24,1.34-.48,2.01-.72-1.54-3.65-3.08-7.3-4.62-10.95l-.96.3c1.19,3.79,2.38,7.58,3.58,11.37Z"/><path class="cls-1" d="m371.34,182.09c-.19,2.53-.32,4.3-.43,5.76-2.49.58-4.63,1.06-6.77,1.57-1.14.27-2.28.57-3.41.86-.25-1.52-.87-3.12-.6-4.55.17-.89,1.63-2.07,2.6-2.17,1.82-.18,3.71.51,5.57.48.77-.01,1.53-.94,3.04-1.96Z"/><path class="cls-1" d="m373.21,154.83c-1.8,1.3-2.61,1.89-3.38,2.44,5.39,5.23-2.18,5.01-3.37,7.96-2.71-7.85-1.09-10.79,6.75-10.4Z"/><path class="cls-1" d="m367.41,225.67c-2.46-6.48-1.38-8.42,4.78-8.21.14,3.64,1.68,7.91-4.78,8.21Z"/><path class="cls-1" d="m366.54,200.09c-1.4-7.46-1.09-7.97,5.42-8.82.21,4.1.64,8.1-5.42,8.82Z"/><path class="cls-1" d="m347.36,223c-1.35,3.2-2.7,6.39-4.06,9.59-.82-.21-1.64-.41-2.45-.62.35-2.85.4-5.79,1.2-8.5.26-.87,2.49-1.16,3.82-1.71.49.41.99.83,1.48,1.24Z"/><path class="cls-1" d="m347.08,161.14c-1.71,3.2.04,8.51-5.78,9.07-1.96-7.99-.83-9.79,5.78-9.07Z"/><path class="cls-1" d="m341.35,188.48c-.44,1.38-.88,2.76-1.32,4.14.19.12.39.24.58.37,1.62-1.83,3.24-3.66,5.36-6.05.94,1.65,1.81,3.2,2.74,4.83-2.29.81-4.11,1.32-5.82,2.1-1.7.78-3.75,2.99-4.67-.19-.48-1.66.92-3.86,1.47-5.82.55.21,1.11.41,1.66.62Z"/><path class="cls-1" d="m354.43,202.25c-1.29-7.61-.4-8.82,7.16-8.37-1.98,3.37-3.75,6.36-5.51,9.36-.55-.33-1.1-.66-1.65-.99Z"/><path class="cls-1" d="m360.84,157.53c-2.74,3.07-.09,9.19-6.44,8.93-1.48-7.41-.45-9.05,6.44-8.93Z"/><path class="cls-1" d="m348.42,196.58c-2.15,3.82-3.74,6.65-5.33,9.48-3.23-6.66-2.06-8.8,5.33-9.48Z"/><path class="cls-1" d="m357.1,227.08c-.42-1.13-.84-2.27-1.35-3.63-.21,1.95-.4,3.67-.59,5.4-.56-.02-1.12-.05-1.67-.07.22-2.61-.09-5.44.86-7.75.48-1.17,3.23-1.41,5.78-2.39-.6,3.55-1.02,6.05-1.45,8.56-.53-.04-1.05-.09-1.58-.13Z"/><path class="cls-1" d="m354.59,218.16c-3.91.72-7.82,1.43-12.23,2.24,2.17-3.63,7.95-5.03,12.23-2.24Z"/><path class="cls-1" d="m367.51,148.76c3.32-1.88,5.55-3.15,7.96-4.51,2.23,5.29-.98,5.88-4.29,5.99-1.17.04-2.37-.92-3.67-1.48Z"/><path class="cls-1" d="m375.89,186.79c-.31.33-1.1,1.17-1.89,2.01-.33-.91-.7-1.81-.98-2.73-.36-1.18-.92-2.39-.88-3.57.03-.93.85-1.84,1.32-2.75.65.74,1.59,1.38,1.88,2.23.4,1.2.32,2.57.54,4.8Z"/><path class="cls-1" d="m363.35,72.74c6.67-3.31,8.91-1.97,9.06,5.42.16,8.07-.08,8.5-7.62,10.77-4.92,1.48-9.9,2.79-14.86,4.13-2.95.8-4.92.21-4.74-3.45.08-1.65-.17-3.32-.24-4.98-.27-6.36,1.24-8.35,7.43-9.69,3.7-.8,7.42-1.56,11.12-2.33-.35.54-.7,1.09-.39.61,1.75,1.46,4.05,2.42,4.56,3.98,1.35,4.14-.45,7.22-4.96,8.54,6.43-.8,7.77-4.16,5.49-13h-4.85Zm-13.69,17.58c-3.25-4.86-2.2-8.77.98-13.73-3.5,3.29-5.58,10.99-4.05,12.97.51.65,2.02.53,3.07.77Z"/><path class="cls-1" d="m71.27,256.87c0-1.6-.29-2.95.08-4.09.41-1.29,1.34-2.45,2.2-3.54.14-.18,1.09.29,1.66.46-.36,1.14-.73,2.29-1.09,3.43.18.11.36.22.55.33.91-1.51,1.81-3.03,2.71-4.53,1.97.8,3.82,1.54,5.74,2.31.18-.31.57-.97,1.19-2.02.68,1.2,1.21,2.14,1.97,3.48-5,1.39-9.69,2.7-14.99,4.17Z"/><path class="cls-1" d="m91.99,245.63c2.19.73,3.47,1.16,4.76,1.58.51-.72,1.35-1.88,2.18-3.04.45.16.9.32,1.35.49.08,1.84.16,3.67.26,5.98h-8.3c-.06-1.29-.13-2.7-.25-5.01Z"/><path class="cls-1" d="m92.48,259.84c-.35-3.95-.29-7.44,5.64-7.11-.65,3.41,1.37,8.37-5.64,7.11Z"/><path class="cls-1" d="m72.19,222.98c-.38-5.14,2.9-3.79,4.87-4.25,2.12-.5,4.26-.87,7.54-1.52-2.96,5.63-8.37,3.49-12.41,5.77Z"/><path class="cls-1" d="m74.6,234.81c-2.92-6.2-1.79-8.49,4.08-9.05-1.53,3.4-2.81,6.23-4.08,9.05Z"/><path class="cls-1" d="m82.92,231.95c-1.66-5.74-.4-8.14,5.04-8.27-1.25,3.11-2.41,5.96-3.56,8.82-.49-.18-.99-.36-1.48-.54Z"/><path class="cls-1" d="m88.38,255.32c-1.63,3.16-2.99,5.79-4.34,8.43-2.75-6.63-1.99-7.94,4.34-8.43Z"/><path class="cls-1" d="m72.6,265.31c-.59-6.38.25-7.63,6.26-7.76-1.66,3.18-3.08,5.91-4.51,8.65-.58-.3-1.16-.59-1.74-.89Z"/><path class="cls-1" d="m99.09,273.86c-1.93,3.44-3.25,5.79-4.94,8.82-2.94-5.85-1.9-7.92,4.94-8.82Z"/><path class="cls-1" d="m78.13,278.37c-1.45,2.88-2.72,5.43-4,7.97-2.76-6.96-1.99-8.28,4-7.97Z"/><path class="cls-1" d="m98.83,220.52c-2.53,3.08.27,8.2-5.61,8.53-.29-3.69-1.63-7.82,5.61-8.53Z"/><path class="cls-1" d="m82.52,284.32c-1.25-6.95-.79-7.78,4.01-7.78.13,1.43.84,3.19.25,4.13-.93,1.48-2.74,2.42-4.26,3.65Z"/><path class="cls-1" d="m73.43,164.5c0-7.11.83-8.18,7.63-9.89,4.16-1.05,8.29-2.31,12.5-3.06,1.14-.2,3.63,1.09,3.64,1.74.09,4.09.07,8.27-.82,12.23-.32,1.42-3.01,2.7-4.86,3.3-3.59,1.16-7.39,1.65-11.03,2.67-6.29,1.76-6.97,1.35-7.06-4.99,0-.66,0-1.33,0-1.99Z"/></g></svg>