<?xml version="1.0" encoding="UTF-8"?><svg id="Layer_2" xmlns="http://www.w3.org/2000/svg" viewBox="0 0 576.48 297.61"><defs><style>.cls-1{stroke-width:0px;}</style></defs><g id="Layer_1-2"><path class="cls-1" d="m498.55,142.75c-2.6-5.54-6.51-5.97-10.56-5.9-15.57.28-31.18,1.48-46.69.71-14.79-.74-29.52-3.22-44.19-5.47-9.35-1.44-15.22-9.06-22.13-14.51-17.55-13.84-35.2-27.5-54.57-38.74-2.41-1.4-5.04-2.67-7.73-3.28-4.09-.93-5.1-3.84-4.33-6.99.33-1.34,3.2-2.49,5.1-2.96,16.91-4.18,34.15-5.04,51.45-4.16,20.3,1.04,39.79,6.08,58.61,13.59,19.09,7.62,37.26,17.03,54.06,28.95,21.14,14.99,35.91,34.4,41.56,60.09.67,3.06,1.67,6.37,1.11,9.31-1.34,7.11,3.31,10.08,7.69,13.98,8.83,7.87,17.55,15.94,25.58,24.62,8.45,9.14,12.03,20.74,13.88,32.91.8,5.28,1.61,10.1,6.05,14.49,6.82,6.74,1.12,15.75-7.18,18.99-7.61,2.97-15.92,4.1-23.85,6.32-2.06.58-3.89,2.12-5.72,3.37-2.25,1.52-4.23,4.06-7.89.89,7.14-8.16,3.88-17.58,3.07-27.29-2.95.91-5.87,1.41-8.42,2.66-7.83,3.85-15.71,3.67-24,1.75-1.98-.46-4.78,1.55-6.83,2.97-.86.59-1.43,3.43-.98,3.79,1.59,1.25,3.68,2.6,5.58,2.6,6.44.01,12.89-.43,19.31-.97,1.16-.1,2.51-1.28,3.24-2.33.89-1.27,1.21-2.93,2.1-5.29,3.85,7.79,5.92,14.76,1.58,22.67-.38.05-1.47.53-2.26.22-8.57-3.35-17.39.2-26.04-.97-1.4-.19-3.13,1.41-4.57,2.38-5.61,3.75-10.87,8.64-18.48,5.47-1.35-.56-3.3-1.22-3.7-2.3-1.74-4.7-5.81-4.21-9.33-4.43-14.41-.89-28.82-1.67-43.25-2.19-2.95-.11-6.07.72-8.89,1.72-6.95,2.47-13.63,1.55-20.37-.7-8.16-2.73-7.19-4.38-13.78,2.94-1.64,1.82-4.86,2.94-7.43,3.07-6.97.34-13.99.2-20.97-.16-7.14-.37-10.96-5.52-14.21-11.04-5.24-8.89-6.59-18.66-6.05-28.79.18-3.44-.63-5.86-3.45-8.53-22.53-21.28-44.78-42.86-67.03-64.43-8.28-8.03-16.49-16.13-24.37-24.53-3.19-3.41-5.41-7.73-8.58-12.38-11.66,10.32-25.53,16.15-42.37,11.51.34,1.52.29,2.5.74,3.09,5.36,7.09,7.24,15.34,8.88,23.88.5,2.59,4.21,4.85,6.84,6.68,14.15,9.86,19.5,24.05,20.62,40.53.4,5.87,1.27,11.7,1.93,17.55.04.33.12.71,0,.99-1.91,4.75-3.17,9.05,1.41,13.56,1.9,1.87-2.56,6.15-6.96,6.17-8.33.04-16.66,0-24.98-.28-3.69-.13-5.67.63-7.3,4.57-8.88,21.47-21.86,22.79-41.8,22.19-14.24-.43-22.45-9.17-26.64-22.09-1.18-3.65-3.11-4.75-6.87-4.69-17.99.27-35.99.19-53.98.37-3.87.04-7.73.61-11.62.94-.66-6.3,10.61.17,6.52-8.79,1.57.77,2.43.93,2.88,1.45,2.39,2.78,4.28,3.72,8.68,2.46,6.36-1.83,13.47-1.27,20.26-1.31,21.94-.12,43.87-.03,65.81-.05,5.66,0,11.33-.01,16.99-.22,14.93-.54,29.85-1.23,44.78-1.78,2.73-.1,4.95-.25,4.86-3.96-.08-3.45-.89-6.11-4.9-5.99-6.63.2-13.25.88-19.88.93-24.47.19-48.94.13-73.41.31-17.3.12-34.6.46-51.9.74-3.78.06-7.55.28-11.91.46-1.91-3.9-5.58-5.03-12.34-2.46,2.12,4.32,1.67,8.46-1.37,12.29-.46.58-.8,1.74-.53,2.32,3.58,7.74-.75,14.29-3.52,20.77-3.08,7.19-17.07,12.3-24.3,9.46-1.02-.4-2.04-2.13-2.12-3.31-.26-3.98-.43-8.03.04-11.98.22-1.87,2.05-3.52,3.03-5.33,1.7-3.13,3.55-6.21,4.83-9.51.5-1.3.17-3.57-.7-4.65-6.03-7.53-7.76-16.43-8.01-25.6-.34-12.71-.09-25.44-.09-38.35,8.1,2.6,13.43,8.73,17.23,16.23,1.8,3.55,4.09,4.66,7.86,4.46,5.22-.28,10.47-.07,15.92-.89-9.27-16.69-22.61-26.47-41.71-27.04-.23-.82-.46-1.28-.46-1.75C.75,145.75.46,102.79,0,59.83c-.04-3.94,2.51-4.8,5.13-5.52,8.13-2.21,16.36-4.06,24.51-6.2,43.17-11.36,86.32-22.78,129.48-34.16,16.13-4.25,32.13-9.14,48.44-12.46,9.1-1.85,18.73-1.23,28.13-1.45,6.48-.15,12.97.21,19.46.25,4.21.03,7.95.85,10.29,5.49-2.97,4.37-6,9.07-9.33,13.54-.87,1.17-2.63,1.75-4.07,2.42-5.94,2.79-11.93,4.86-11.88,13.63.03,4.39-2.87,8.97-5.05,13.15-2.03,3.88-1.58,5.57,2.82,5.72,3.4.11,5.27.61,5.86,4.84.39,2.83,3.61,5.28,6.27,8.83-.59.75-2.04,2.59-3.64,4.61,4.19,7.15,15.63,8.97,15.43,20.05,9.3-1.17,15.55-7.41,23.48-13.71-5.05-1.89-9.17-4.53-13.43-4.77-6.84-.39-10.72-5.11-16.95-8.4,2.36-1.44,3.7-2.72,5.27-3.13,5.58-1.48,11.21-2.86,16.9-3.79,1.21-.2,3.89,1.6,3.98,2.63.55,6.47,6.5,8.4,9.5,12.81,1.86-.94,3.28-1.83,4.82-2.39,2.98-1.09,7.08-4.4,6.47,2.9-.04.45,1.65,1.17,2.61,1.55,3.15,1.24,6.66,1.88,9.47,3.64,18.55,11.62,35.85,24.95,51.86,39.86,6.6,6.15,13.53,12.37,18.42,19.8,3.38,5.14,4.01,12.33,4.95,18.74,1.01,6.87.86,13.9,1.42,20.85.16,1.92.71,4,1.75,5.57.62.94,3.21,1.8,3.75,1.33,1.62-1.38,3.56-3.36,3.73-5.25.32-3.56-.61-7.21-.86-10.83-.38-5.46-.88-10.93-.86-16.39.03-6.21,1.66-7.35,8.05-7.5,21.59-.52,43.18-1.1,64.77-1.81,8.92-.29,17.82-.99,27.6-1.55Zm-412.86-5.36c1.01-.44,1.66-.58,2.12-.95,9.34-7.38,18.68-14.76,27.98-22.2,19.48-15.57,39.07-31.02,58.36-46.82,12.32-10.09,26.5-18.24,35.01-32.5,2.53-4.24,5.54-8.2,8.33-12.29-.32-.48-.65-.96-.97-1.45-5.27,1.46-11.15,1.88-15.71,4.56-15.5,9.13-30.52,19.07-45.74,28.67-22.89,14.44-45.8,28.84-68.63,43.37-1,.63-1.83,2.38-1.82,3.6.12,10.78.44,21.56.72,32.34.03,1.09.2,2.18.34,3.67Zm105.33-44.55c0-2.45.28-3.55-.05-4.42-1.57-4.19-.42-6.74,3.86-8.5,2.34-.97,4.86-2.83,6.07-4.98,3.33-5.88,8.63-6.14,14.06-5.48,5.05.61,8.91-.98,10.08-5.65,1.89-7.53,3.25-15.27,3.9-23,.29-3.48-2.39-4.03-5.44-1.6-6.19,4.92-12.47,9.73-18.56,14.76-6.86,5.67-14.53,10.74-20.15,17.47-17.06,20.42-33.3,41.51-49.85,62.34-3.89,4.9-7.75,9.83-12.26,15.55,12.56,0,23.87-.24,35.15.11,5.19.16,10.34,1.45,14.3,2.05-15.2-17.95-1.89-31.08,10.7-44.53-3.34-1.14-6.65-1.79-9.4-3.4-1.5-.88-2.03-3.39-3-5.17,1.48-.7,2.9-1.66,4.46-2.04,5.36-1.29,10.77-2.37,16.15-3.52Zm304.64,75.45c-4.4-3.49-8.23-5.81-11.11-8.99-3.96-4.38-8.53-5.03-13.93-4.49-5.27.53-10.58.71-15.88.75-12.97.1-25.95.02-38.92.04-1.75,0-3.5.16-6.09.29,1.24,7.51,2.29,14.33,3.51,21.12.8,4.46,3.86,6.44,8.18,6.31,19.73-.61,39.47-1.2,59.19-2.03,6.6-.28,13.19-1.06,19.72-2.07,1.66-.26,4.06-2.06,4.32-3.48.36-1.98-.97-4.27-1.58-6.43-1.47.55-2.93,1.1-4.4,1.65-.75.28-1.49.75-2.25.81-4.28.34-8.57.74-12.87.82-19.43.36-38.86.63-58.29.85-.57,0-1.15-.87-2.47-1.95,24.17-5.51,47.93-2.11,72.86-3.19Zm-393.53,60.08c-.13-.45-.27-.9-.4-1.35-1.98.62-3.97,1.18-5.93,1.86-1.66.58-3.25,1.77-4.92,1.87-8.45.5-16.91.98-25.37,1-11.94.03-10.83-.31-11.07,11.21-.09,4.46,1.44,5.83,5.76,5.65,19.07-.8,38.14-1.51,57.22-2.01,18.78-.5,37.57-.65,56.36-1.05,13.11-.29,11.46,2.92,11.41-12.11,0-.45-.33-.91-.98-2.58-4.68,0-9.78.13-14.86-.04-4.69-.15-9.66,1.24-13.88-2.31-.57-.48-2.08.04-3.13.27-2.65.56-5.28,1.75-7.92,1.75-9.63-.02-19.25-.54-28.88-.67-8.27-.11-8.74.69-8.07,8.74.26,3.17,1.41,3.85,4.4,3.57,4.77-.45,9.59-.52,14.39-.5,1.07,0,2.13,1.05,3.2,1.62-.13.54-.27,1.08-.4,1.62-6.43,0-12.86-.24-19.27.09-3.91.2-7.72.68-9.97-3.26-2.04-3.57-.61-10.75,2.31-13.36Zm-47.6.97c6,0,11.32-.23,16.6.07,4.73.26,6.09-1.82,5.97-6.22-.39-15.27-.01-30.59-.98-45.82-.84-13.15-3.71-23.64-22.77-26.29-4.94-.69-10.06-.03-15.1,0,3.5,4.3,7.18,6.95,10.03,10.32,5.44,6.43,6.15,14.48,6.22,22.49.12,14.96.04,29.93.04,45.45ZM175.36,32.01c-.18-.49-.36-.98-.54-1.47-1.62.16-3.33.04-4.83.53-20.7,6.8-41.42,13.53-61.99,20.7-3.57,1.24-7.23,3.82-9.55,6.8-6.84,8.77-11.41,18.87-14.83,29.44-.3.93.05,2.08.14,3.94,30.97-20.26,61.28-40.1,91.6-59.94ZM28.48,56.35c.06.33.13.66.19.99,2.44-.26,4.87-.72,7.31-.75,13.15-.15,26.3-.02,39.44-.4,3.03-.09,6.1-1.63,8.99-2.87,3.29-1.41,6.28-3.56,9.62-4.78,6.66-2.43,13.47-4.44,20.21-6.64,14.59-4.75,29.16-9.58,43.79-14.25,15.09-4.82,30.25-9.43,45.31-14.32,1.04-.34,1.56-2.27,2.33-3.46-1.11-.2-2.32-.8-3.3-.54-20.93,5.53-41.85,11.14-62.75,16.78-27.72,7.48-55.43,15-83.13,22.52-9.34,2.54-18.66,5.15-28,7.73Zm146.84,104.42c-3.8,6.66-7.36,13.16-11.18,19.49-2.65,4.39-3.29,8.87-2.02,13.78.32,1.26.15,2.64.22,3.97.46,9.58.92,19.16,1.41,29.14h20.09c.09-1.72.27-3.35.23-4.97-.28-10.61-.57-21.23-.95-31.84-.15-4.3-.19-8.65-.92-12.87-.99-5.74-.74-12.08-6.87-16.71Zm36.14-89.19c4.83,2.37,9.47,3.85,13.16,6.6,11.26,8.39,22.22,17.2,33.1,26.07,1,.81,1.28,3.5.8,4.97-3.35,10.2-6.99,20.3-10.53,30.43-2.55,7.29-5.1,14.59-7.66,21.88.41.15.83.3,1.24.45,6.96-17.9,13.92-35.81,21.15-54.43,45.46,34.94,90.02,69.18,134.58,103.43.57-.48,1.15-.96,1.72-1.44-1.26-1.96-2.12-4.43-3.85-5.79-13.66-10.71-27.51-21.16-41.26-31.76-19.5-15.04-38.93-30.18-58.45-45.2-18.08-13.91-36.27-27.67-54.33-41.59-8.68-6.69-17.59-12.76-29.67-13.63Zm-24.69,75.92c14.29-.9,24.68-6.82,30.7-19.65,3-6.39,1.21-12.09-2.67-17.09-3.76-4.84-8.85-7.68-15.27-5.19-4.72,1.83-9.7,3.41-13.85,6.18-8.92,5.94-14.89,13.95-14.33,25.44.23,4.75,2.68,7.8,7.15,8.99,2.84.76,5.84.94,8.29,1.32Zm149.24-5.88c.88.95,1.4,1.72,2.1,2.23,10.35,7.67,20.67,15.38,31.13,22.89,1.64,1.18,3.93,1.48,5.91,2.18.72-2.49,2.18-5.01,2.03-7.45-.45-7.57-3.21-14.38-7.83-20.5-6.79-9-14.33-17.16-24.22-23.94-2.82,6.84-5.42,13.15-8.14,19.76h25.07c.07.45.14.9.21,1.35-8.08,3.84-17.68-.58-26.26,3.46Zm-246.9,6.82c.14.37.28.73.42,1.1,6.96,0,13.94-.3,20.88.1,5.07.29,8.41-1.09,11.62-5.38,13.53-18.09,27.52-35.84,41.34-53.72-.21-.22-.42-.44-.63-.65-24.54,19.52-49.09,39.03-73.63,58.55Zm305.76,121.86c.02,1.02.03,2.04.05,3.06,3.95,1.32,7.83,3.52,11.85,3.8,19.49,1.4,39.02,2.4,58.55,3.31,7.08.33,7.25-.1,7.44-6.66,5.02.93,5.03,1.04.6,17.81,3.64-1.47,7.29-1.78,8.69-3.71,4.34-5.99,4.4-14.62-3.7-19.16-2.55-1.43-4.89-2.08-6.37,1.64-.42,1.06-2.08,2.3-3.18,2.31-22.9.34-45.77.09-68.49-3.37-1.72-.26-3.62.62-5.44.96ZM3.79,140.79c.8-.29,1.62-.43,2.29-.84,14.27-8.61,28.54-17.22,42.76-25.92,2.6-1.59,3.25-13.87,1-15.82-.35-.3-.89-.53-1.35-.53-6.55-.03-13.1-.02-19.2-.02,0,6.06.4,11.39-.09,16.63-.87,9.23-1.09,9.21-10.33,11.12-1.94.4-3.88.79-5.82,1.18-10.76,2.14-10.85,2.28-9.27,14.19Zm3.13,7.65c14.06,0,27.17.06,40.29-.1,1.27-.02,3.58-1.43,3.61-2.26.27-8.02.17-16.05.17-24.7-15.13,9.3-29.39,18.06-44.06,27.07Zm320.33-41.95c-.07-3.97-7.11-9.05-10.59-8.81-8.06.55-16.13,1.15-24.16,2.02-1.5.16-2.85,1.69-4.27,2.58.81,1.28,1.38,2.85,2.48,3.78,7.42,6.26,14.89,12.47,22.54,18.45,1.24.97,4.78,1.35,5.04.86,3.4-6.57,6.4-13.35,8.96-18.88Zm31.75,149.07c-.49,3.23-.62,6.26-1.45,9.08-1.27,4.29-5.4,6.86-8.97,6.08-4.95-1.08-8.77-5.22-9.3-10.43-.61-6.02-.18-11.81,3.34-17.17.69-1.05-.76-3.49-1.22-5.3-1.54.77-4.13,1.24-4.46,2.37-4.29,14.73-2.39,28.53,7.52,40.61,3.88,4.73,9.26,4.82,13.34.29,2.74-3.03,5.13-6.51,7.03-10.13,4.23-8.06,2.9-11.28-5.84-15.4Zm157.61-60.43c-2.02-5.17-5.74-5.57-9.91-5.02-6.87.91-13.71,2.02-20.6,2.7-7.9.78-15.83,1.34-23.76,1.7-10.78.5-21.57,1.02-32.36.97-6.91-.03-13.82-1.19-20.74-1.57-1.75-.1-3.55.83-5.33,1.28.02.59.05,1.18.07,1.76,7.1.8,14.19,2.11,21.31,2.27,9.78.22,19.58-.28,29.36-.75,8.92-.44,17.82-1.35,26.74-1.89,6.67-.4,13.47-2.7,19.94,1,5.78,3.31,10.22-.26,15.27-2.45ZM5.02,87.03h41.85c.23-.39.46-.79.7-1.18-1.83-1.74-3.54-3.62-5.5-5.19-8-6.38-17.42-7.27-27.2-7.15-3.27.04-5.45,1.15-6.6,4.02-1.22,3.03-2.12,6.18-3.24,9.51Zm400.91,153.64c-3.58-6.29-6.63-12.29-10.26-17.91-9.14-14.13-22.89-23.21-36.69-32-8.08-5.15-17.23-7.05-26.53-3.08-2.63,1.12-4.65,3.69-6.94,5.6l1.04,1.26c1.02-.43,2.12-.75,3.06-1.32,9.39-5.57,18.76-6.86,28.18-.08,16.04,11.54,30.21,24.75,38.54,43.15,1.64,3.61,3.49,6.51,9.59,4.38ZM65.98,111.18c-3.76,2.45-7.02,4.35-9.99,6.63-.95.73-1.56,2.48-1.58,3.77-.14,7.98-.15,15.97,0,23.94.02,1.23.83,3.19,1.74,3.51,3.04,1.06,6.28,1.52,9.83,2.3v-40.16Zm-27.65-41.65c4.99,5.7,9.7,10.9,14.2,16.28,3.08,3.68,11.72,4.02,13.32.1,2.11-5.14,3.67-10.51,5.68-16.39h-33.21Zm44.72,32.31c-.72-.36-1.44-.73-2.16-1.09-2.42,2.36-6.79,4.61-6.93,7.1-.71,12.65-.33,25.37-.33,38.52,7.08-2.35,9.39-5.25,9.41-10.74.03-11.26,0-22.53,0-33.79Zm-79.37,2.77c-.74,19.82-1.96,15.39,13.62,15.93.5.02,1-.01,1.5,0,4.91.09,6.07-3.26,6.47-7.17.41-4.11-.15-8.16-5.15-8.64-5.35-.51-10.79-.12-16.43-.12Zm321.89,139.22c.66-6.7,2.9-13.41,1.37-19.09-1.23-4.56-7.03-7.9-10.8-11.77-.69.33-1.37.67-2.06,1-.24,4.83-.62,9.66-.7,14.5-.12,7.09,4.01,12.57,12.19,15.37Zm-137.41-53.15c-2.81,10.73,1.36,18.75,9.11,24.98,1.83,1.47,5.81,1.74,8.1.82,3.2-1.29,1.07-4.16,0-6.34-.36-.74-.68-1.52-1.11-2.22-4.2-6.88-8.79-13.39-16.11-17.25Zm339.82,69.88c.13-.57.25-1.13.38-1.7-2.55-1.01-5.13-2.94-7.65-2.87-12.56.32-25.11,1.15-37.67,1.85-1.2.07-2.38.51-3.56.77,1.68,4.45,3.17,8.41,5.01,13.31,1.39-2.05,2.45-3.93,3.83-5.54,1.23-1.43,2.71-3.52,4.24-3.67,7.42-.69,14.89-.78,22.33-1.18,4.36-.23,8.72-.64,13.08-.97Zm-376.74-107.96c3.61,7.99,7.1,15.68,10.79,23.85,2.59-4.4,5.46-8.95,8-13.68,3.15-5.84.64-9.85-6.29-10.14-4.31-.18-8.63-.03-12.51-.03Zm-67.18,2.42c-7.04-.46-9.18,2.34-7.89,8.27,1.47,6.73,2.15,13.63,3.16,20.46.33,2.2.65,4.4.98,6.61l2.98-.13c1.77-11.65.32-23.48.77-35.2Zm.85-11.2c.55.64,1.11,1.27,1.66,1.91,16.89-13.59,33.78-27.18,50.67-40.77-.35-.43-.7-.86-1.05-1.29-16.71,13.87-34.94,25.84-51.28,40.15Zm457.65,133.8c7.28-3.23,13.67-6.01,19.98-8.95.94-.44,1.5-1.69,2.24-2.57-1.14-.18-2.35-.7-3.42-.49-6.46,1.24-12.92,2.52-19.32,4.06-1.58.38-2.92,1.76-4.38,2.68,1.49,1.6,2.97,3.2,4.89,5.26ZM77.07,91.28c3.59-10.13,7.01-19.76,10.43-29.4-.35-.23-.7-.47-1.05-.7-1.42,2.01-3.1,3.89-4.2,6.07-3.05,6.05-5.94,12.18-8.74,18.35-2.18,4.79-1.61,5.52,3.56,5.69Zm329.74,159.65l.06-.39c1.32,0,2.78.35,3.93-.09,1.6-.61,2.97-1.81,4.44-2.75-1.2-1.09-2.3-2.96-3.63-3.14-4.53-.62-9.14-.83-13.72-.78-1.06.01-2.09,1.71-3.13,2.64.95,1.01,1.74,2.59,2.88,2.91,2.97.83,6.1,1.1,9.17,1.59ZM53.86,110.16c10.02-4,12.46-6.66,11.49-12.31h-11.49v12.31Zm158.24,126.15c.65-4.11-1.82-5.44-5.21-5.39-3.99.07-3.59,3.2-3.21,5.75.38,2.57,1.01,5.18,2.1,7.52.47,1,2.33,1.74,3.61,1.81.58.03,1.57-1.79,1.82-2.9.5-2.22.62-4.52.89-6.78Zm274.15-81.97l-.13,1.3c2.69,2.11,5.26,4.41,8.13,6.25,1.72,1.1,3.92,1.47,5.9,2.17.2-2.38,1.04-4.95.39-7.06-.45-1.46-2.88-3.06-4.57-3.23-3.19-.33-6.47.33-9.72.58Zm69.06,90.14c.22-.39.44-.78.65-1.17,1.48,0,3.18.45,4.4-.12,1.48-.68,2.57-2.22,3.82-3.39-1.45-1.3-2.72-3.01-4.42-3.77-1.1-.49-2.81.37-4.25.65-2.86.58-7.26-.84-7.46,3.38-.06,1.35,4.7,2.94,7.25,4.41Zm-255.96-49.24c2.84-8.03,5.76-16.02,8.45-24.1.62-1.86.41-4,.58-6.02-.7-.11-1.39-.23-2.09-.34-4.29,9.64-5.52,20.11-6.93,30.46Zm-3.86-99.71c6.36-.5,11.96-.94,17.91-1.4-6.54-7.06-9.72-9.38-17.91,1.4ZM25.55,230.94c6.64.7,10.08-.92,9.49-4.66-.22-1.43-2.93-3.39-4.62-3.5-6.11-.4-4.62,4.35-4.88,8.15ZM228.25,73.62c7.46,1.05,8.71.46,12.52-5.67-2.36-.99-5.67-3.34-6.62-2.6-2.41,1.85-3.76,5.08-5.89,8.28ZM81.21,227.99c.45-.04.9-.08,1.35-.12,1.9-7.92.98-22.42-1.35-23.96v24.08Zm264.39,27.93c-.42.38-.85.77-1.27,1.15.1,1.78-.31,3.82.43,5.26.71,1.38,2.52,2.6,4.07,2.99,1.14.29,2.78-.68,3.91-1.48.43-.31.45-2.18,0-2.57-2.26-1.93-4.73-3.59-7.13-5.35Zm12.97-2.71c-3.97-3.04-7.17-5.57-10.53-7.87-.21-.15-2.41,1.53-2.35,2.25.2,2.39,8.73,6.72,12.88,5.62Zm55.65,13.54c.57-.04,1.15-.09,1.72-.13,0-3.4.27-6.83-.16-10.17-.13-1.02-2.2-1.79-3.39-2.67-.57,1.36-1.86,2.91-1.57,4.06.77,3.06,2.22,5.96,3.4,8.92Zm-204.95-41.59c-.02-.76-.04-1.53-.06-2.29-3.66,0-7.33-.14-10.98.09-.98.06-1.88,1.28-2.82,1.97.86.6,1.77,1.77,2.58,1.7,3.78-.31,7.52-.95,11.28-1.48Zm-125.46-77.94c-.47-.44-.94-.89-1.4-1.33-7.02,3.55-9.28,6.46-6.94,10.13,2.87-3.03,5.61-5.91,8.34-8.79ZM220.35,28.84c.3.27.59.54.89.8,2.77-2.39,5.66-4.68,8.24-7.26.56-.56,0-2.22-.04-3.37-1,.25-2.43.16-2.91.79-2.2,2.9-4.14,6.01-6.18,9.04Z"/><path class="cls-1" d="m150.95,242.09c-4.31,3.49-16.22,3.23-19.39,0h19.39Z"/><path class="cls-1" d="m202.93,112.37c1.02.73,3.8,1.85,5.22,3.91,2.24,3.24.59,6.75-1.47,9.59-3.74,5.14-8.86,8.71-15.15,9.43-2.72.32-6.58-.87-8.3-2.82-1.42-1.6-1.25-5.6-.38-8.04,2.27-6.38,11.75-12.24,20.07-12.07Zm.81,8.07c-1.53-.92-2.89-2.34-4.39-2.51-4.14-.47-10.58,3.98-12.01,8.19-.41,1.19-.21,2.97.45,4,.41.63,2.48.83,3.37.37,3.51-1.78,6.92-3.78,10.19-5.98.97-.66,1.34-2.22,2.39-4.08Z"/><path class="cls-1" d="m320.32,105.6c-1.06,4.42-14.34,5.73-20.86,2.07,7.13-3.92,14.06-1.32,20.86-2.07Z"/></g></svg>