<?xml version="1.0" encoding="UTF-8"?><svg id="Layer_2" xmlns="http://www.w3.org/2000/svg" viewBox="0 0 591.27 571"><defs><style>.cls-1{stroke-width:0px;}</style></defs><g id="Layer_1-2"><path class="cls-1" d="m432.74,8.99c13.32.42,19.98,9.71,25.21,19.94,11.84,23.15,20.43,47.52,25.43,73.09,2.1,10.74,4.32,21.45,6.6,32.15.55,2.58,1.26,5.18,2.34,7.58,6.99,15.55,5.06,31.93,4.41,48.14-.11,2.83-1.98,5.58-2.97,8.38-.65,1.86-1.83,3.81-1.66,5.62.76,8.24-3.89,13.06-10.59,15.65-4.67,1.81-4.71,4.97-3.82,8.18.46,1.66,3.25,2.91,5.23,3.85,3.7,1.75,7.64,3.01,11.38,4.7,11.1,5,22.14,10.13,33.23,15.16,1.04.47,2.28.93,3.37.83,7.87-.76,9.65,4.54,11.88,10.56,5.77,15.54,12.44,30.75,18.35,46.24,2.96,7.77,10.2,10.59,15.9,15.2,4.59,3.71,9.48,7.04,14.23,10.54-.36.51-.72,1.03-1.09,1.54-8.37-6-16.74-11.99-25.11-17.99-.17.16-.34.31-.5.47,4.53,5.71,9.51,11.13,13.47,17.21,3.81,5.84,12.81,7.9,12.9,16.79-7.47-6.53-14.61-12.78-19.9-17.41,4.02,4.51,9.83,10.78,15.3,17.35,1.55,1.85,2.78,4.52,2.92,6.88.39,6.6.14,13.23.14,20.5-1.74-.7-2.87-1.15-4.36-1.75.28.6.35,1.1.61,1.26,3.55,2.09,4.37,5.13,4.36,9.19-.13,58.44-.09,116.88-.1,175.32,0,2.12-.2,4.23-.33,6.81h-6.38c-100.95,0-201.91.07-302.86-.05-26.3-.03-52.6-.62-78.89-.97-1.33-.02-2.65-.33-3.97-.33-4.1-.01-5.15-2.21-4.46-5.87,1.13-5.99,2.18-11.99,3.51-19.31-10.63,7.01-20.37,13.01-29.61,19.69-5.56,4.02-11.22,5.57-18.03,5.49-24.98-.29-49.98-.19-74.96-.04-3.99.02-6.36-1.54-9.33-4.2-5.72-5.12-12.61-8.91-18.88-13.43-8.34-6.01-16.7-12.01-24.8-18.35-10.56-8.27-12.81-21-16.76-32.74-1.37-4.08-2.11-8.36-3.26-12.51-1.16-4.17-1.87-8.12,2.13-11.39.71-.58,1.12-2.19.89-3.13-3.49-13.86.94-27.02,3.52-40.32,2.85-14.67,5.97-29.29,8.72-43.98,1.4-7.49,5.32-13.44,11.23-17.65,6.72-4.79,14.48-8.12,21.15-12.97,5.93-4.31,11.69-9.25,16.28-14.92,8.42-10.4,15.78-21.66,23.88-32.32,4.9-6.45,10.84-12.14,15.44-18.77,3.34-4.82,5.29-10.62,7.81-16,.63-1.35.97-2.84,1.65-4.15,6.87-13.27,9-14.4,25.8-12.43,2.96.35,4.48-.5,6.28-2.61,6.58-7.69,11.68-16.3,14.35-25.95,2.11-7.62,2.17-15.78,4.02-23.49,3.72-15.44,7.75-30.81,12.26-46.03,1.83-6.17,5.86-10.17,13.37-11.37,13.65-2.18,27.28-5.21,39.38-12.58,4.15-2.52,8.42-3.53,13.29-2.16,1.41.4,3.81-.15,4.75-1.18,3.61-3.94,7.89-4.68,12.72-3.5,3.24.79,5.69.25,7.85-2.58,1.69-2.21,3.83-4.32,6.21-5.71,5.29-3.1,5.11-7.66,4.86-12.89-.83-17.6-1.75-35.21-1.61-52.82.07-8.64,6.3-15.44,12.83-19.94,18.45-12.69,36.96-25.42,57.9-34.03,10.09-4.15,20.01-4.14,30.52-2.39,14.38,2.39,28.9,3.89,43.35,5.87,3.74.51,7.43,1.4,11.15,2.12-15.97-1.81-31.96-3.62-47.94-5.44-7.11-.81-14.21-1.63-22.24-2.55,3.62,4.02,66.96,12.37,75.61,10.61-2.15-1.05-3.87-1.9-5.59-2.74Zm-193.86,348.44c1.46-.83,3.23-1.37,4.33-2.54,3.06-3.25,5.86-6.73,8.71-10.17.66-.8,1.1-1.8,1.64-2.7-.39-.26-.79-.52-1.18-.78-4.46,5.44-8.93,10.88-13.37,16.35-3.42,4.06-6.84,8.12-10.26,12.18.4.31.8.61,1.2.92,3.03-4.38,8.53-6.93,8.93-13.24Zm26.41-223.08c-5.1.12-10.58-3.5-16.31,1.64,2.27.59,4.43.67,4.58,1.26,1.53,6.11,8.21,6.79,11.3,11.08,1.15,1.6,1.49,3.79,2.18,5.72,1.32,3.68,1.86,7.97,4.19,10.81,1.51,1.84,5.61,2.03,8.55,2.02,1.46,0,2.92-2.13,4.37-3.29-.24-.43-.48-.86-.72-1.29-2.67-.14-5.33-.27-8-.41,1.22-.84,2.35-.95,3.44-.81,3.18.39,4.17-.83,4.47-4.13.65-7.19-2.49-12.02-8.13-15.8-3.39-2.27-6.71-4.64-10.07-6.98,9.48-.88,12.84-10.64,20.28-14.55-1.27,3.52-3.37,6.36-4.53,9.55-.91,2.49-1.55,5.69,2.12,7.18,3.12,1.27,5.75,1.01,7.72-2.15,1.66-2.66,3.71-5.09,5.32-7.78,2.4-4.03,1.03-7.81-3.49-8.82-2.45-.55-5.9-.85-7.64.44-6.82,5.07-13.13,10.81-19.63,16.31Zm-39.02,51.69c1.17,1.96,2.02,4.24,3.58,5.82,2.33,2.37,4.87,4.98,7.85,6.14,3.18,1.24,5.91-1.3,5.25-4.54-.77-3.79-2.97-7.3-4.54-10.93-.54.13-1.07.25-1.61.38-.13,2.73-.25,5.46-.38,8.2-2.52-3.93-2.18-7.61.23-11.23.83-1.25,2.12-2.99,1.79-4.07-1.45-4.64-2.94-9.4-5.34-13.59-3.17-5.54-7.2-10.59-10.85-15.85l.34-1.1c4.52,1.85,9.04,3.71,13.57,5.56-1.01,5.78,3.59,7.7,6.99,10.63,1.19,1.03,1.3,3.29,1.94,4.97,2.5,6.63,4.73,13.39,7.65,19.83,1.55,3.41,4.86,4.04,8.59,2.77,3.54-1.21,3.86-3.84,3.51-6.77-.31-2.63-.79-5.29-1.66-7.78-.39-1.1-1.78-2.27-2.95-2.61-5.06-1.5-6.01-.62-7.58,6.25-.6-8.48-.16-8.93,9.23-9.02-3.01-11.08-10.49-19.53-16.26-28.92-.3-.49-1.06-.77-1.66-1.02-4.11-1.71-8.01-2.56-12.31.14-12.28,7.71-26.15,11.22-40.18,13.83-5.81,1.08-10.42,1.55-12.23,8.72-2.7,10.73-7.29,20.95-6.83,32.41.17,4.23-.94,8.55-1.71,12.78-.89,4.88-2.33,9.67-3.04,14.56-.69,4.75,1.82,6.76,6.83,6.3,2.09-.19,4.22-.03,6.33-.03.11.43.22.87.34,1.3-5.96,2.84-14.33,3.35-12.72,13.53.65.46,1.95,1.39,3.35,2.39-1.31,1.01-2.36,1.81-4.12,3.17,4.82,2.56,8.96,4.76,13.11,6.97-.16.52-.32,1.03-.48,1.55-6.49-.13-12.05-4.45-17.27-5.22-6.01,10.26-11.74,20.05-17.69,30.22,14.25,7.95,27.11,18.42,43.93,20.35,1.75.2,4.62-1.1,5.47-2.57,6.06-10.48,11.82-21.14,17.43-31.87.79-1.52.29-3.72.37-5.24,2.35-1.31,4.87-2.74,7.41-4.13,1.13-.62,2.28-1.19,3.45-1.71,5.8-2.6,12.5-4.11,17.23-8,9.31-7.67,17.63-16.58,26.14-25.19,2.36-2.39,4.45-5.32,5.77-8.39,2.16-5.02,3.56-10.36,5.34-15.54,5-14.5,11.23-28.34,21.14-40.29,1.39-1.68,2.72-4.01,2.77-6.07.09-3.83-.78-7.69-1.11-10.44-.69,4.11-3.56,7.79-9.53,8.64-.87.12-1.74,2.6-2.02,4.1-1.28,6.81-4.15,12.4-10.15,16.41-4.95,3.31-5.51,7.15-2.8,12.35.18.35.02.87.02,1.33-1.36-.25-2.54-.47-4.11-.76.79,2.65,1.41,4.71,2.03,6.78-.38.17-.75.35-1.13.52-2.09-1.72-4.17-3.44-7.74-6.37-.7,5.02-1.43,8.73-1.68,12.47-.26,3.91-.06,7.85-.06,11.78-.38,0-.75.01-1.13.02-.51-4.44-1.03-8.88-1.54-13.32l-1.15.03v9.6c-6.37-1.95-6.54-7.47-6.06-10.96.55-4.01-1.73-4.9-3.12-7-.4.18-.8.36-1.2.55.47,1.04.93,2.08,1.16,2.59-1.28,2.82-2.48,5.47-4.11,9.06,2.81-.3,4.17-.45,5.53-.59.23.35.47.71.7,1.06-1.83,1.65-3.78,3.18-5.45,4.98-1.81,1.95-3.36,4.15-5.56,6.91-.45-2.3-.74-3.78-1.01-5.12-6.47-2.55-9.78,3.87-16.04,5.38,3.61-5.21,6.6-9.52,9.6-13.84-.59-.38-1.17-.76-1.76-1.15-7.13,3.42-9.6,10.23-10.61,17.39-.99,7-.8,14.17-1.12,21.26-.83-3.5-1.37-7.05-1.55-10.63-.56-10.75-.62-21.36,7.99-29.76.87-.85.28-3.19.35-4.42-14.12.65-7.2,11.21-9.32,17.37-4.45.36-4.38.37-4.6,4.9-.21,4.17-.61,8.33-.92,12.49-.45-.03-.91-.06-1.36-.09v-23.44c-2.85,1.27-5.06,2.26-8.14,3.64,1.11-2.58,1.8-4.2,2.48-5.82-3.84-1.91-4.21-2.68-3.48-7.34.86-5.48-1.11-8.72-6.29-10.56-3.65-1.29-7.27-2.68-10.9-4.03.13-.53.26-1.06.4-1.59,7.15,1.44,14.3,2.88,21.46,4.32.44-.71.88-1.42,1.32-2.13-2.11-.94-4.22-1.89-6.98-3.12,4.89-2.76,5.53-4.08,1.48-5.63-3.38-1.3-7-2.82-8.02-6.92,4.86,2.09,8.94,5.94,14.67,4.59-.41-3.3-.78-6.26-1.15-9.23,2.79,2.55,3.72,6.1,6.01,7.65,6.96,4.72,10.04,11.58,12.37,19.08-7.31-1.87-9.29-.96-11.05,6.43,3.75-3.45,9.61-.28,10.93-6.56Zm251.48,55.09c-4.5,14.28-10.25,27.78-18.03,40.41.27-2.3,1.16-4.35,2.05-6.41,2.68-6.24,5.81-12.33,7.93-18.76,4.21-12.76,5.74-25.87,3.08-39.23-1.96-9.87-4.01-19.73-6-29.6-.42-2.07-.72-4.16-1.07-6.23,2.35,4.18,4.11,8.38,5.4,12.71,1.32,4.42,2.17,8.98,3.23,13.48.42,1.78.8,3.57,1.3,5.33.78,2.73,2.52,3.59,5.33,2.96,5.19-1.17,7.99-4.4,8.29-9.66.12-2.13.3-4.32.91-6.34,5.34-17.58,6.8-35.14-.39-52.56-.8-1.95-3.26-4.69-4.69-4.54-2.1.22-4.44,2.36-5.83,4.3-5.84,8.14-8.55,17.6-10.24,27.42-.46.21-.92.42-1.38.63-5.55-6.79-11.11-13.59-17.74-21.7,3.39.31,5.53.5,8.14.74-1.02-4.12-1.68-8.22-3.14-12.02-.72-1.88-2.59-5.74-5.24-2.52-2.88,3.51-6.02,3.86-9.84,3.49-2.3-.22-4.61-.42-6.85-.63,2.93,4.17,5.5,7.83,8.07,11.49-.35.39-.69.79-1.04,1.18-1.43-.98-3.08-1.76-4.26-2.98-5.86-6.04-12.73-9.79-21.2-10.97-8.01-1.11-12.89,1.67-15.78,10.66,2.73-2.11,4.88-3.77,6.19-4.78,1.45.5,2.31,1.15,2.89.95,6.97-2.42,12.69.72,18.49,3.53l-.27,1.31c-1.64-.34-3.27-.67-4.96-1.02-2.83,4.98-6.18,7.81-11.4,2.05-.24.87-.51,1.83-.81,2.89-2.09-1.78-3.92-3.34-5.74-4.89-.64,1.83-1.28,3.66-2.35,6.71-4.19,1.03-9.51,2.35-15.22,3.76-1.7-6.19,1.3-10.3,4.71-14.41-1.94-.54-3.55-.98-5.8-1.6,6.86-11.64,18.32-12.96,29.36-15.17-13.75-6.2-27.84-5.04-41.24-1.33-14.18,3.93-27.72,10.19-41.52,15.49-4.5,1.73-9.54,7.05-9.92,9.75,8.34-1.85,16.82-3.98,25.42-5.44,2.02-.34,6.18,1.34,6.33,2.48.53,4.12,2.6,4.93,6.05,4.77.74-.03,1.95.26,2.2.76,2.42,5.03,5.68,9.94,6.73,15.27,1.21,6.1.37,12.59.51,18.91.11,4.65-.54,8.88-4.5,12.1-2.44,1.99-1.95,3.98.88,5.39.88.44,1.75.98,2.51,1.6,7.78,6.38,8,6.13,15.42-.87,2.75-2.59,6.94-5.58,10.18-5.27,4.54.43,8.32,1.17,11.6-3.14-1.31,4.75-3.14,8.36-8.42,7.87-8.56-.81-12.77,1.95-15.23,10.09-1.09,3.63-3.18,6.13-7.12,6.72-9.09,1.36-16.02,5.81-20.41,15.16,1.92-.28,3.61-.2,5.04-.78,20.93-8.37,42.17-15.11,65.18-12.85,1.74.17,3.39,1.19,5.08,1.81.02.72.03,1.45.05,2.17-6.82-2.25-9.17,2.69-12.46,6.31-2.99,3.28-6.12,6.5-9.54,9.31-8.59,7.07-18.93,7.93-29.31,6.68-11.72-1.42-22.46-5.31-29.2-16.18-.73-1.18-2.65-2.44-3.86-2.3-1.1.13-2.76,2.07-2.81,3.28-.14,3.01.5,6.05.97,10.53-3.49-5.09-8.42-8.79-6.43-14.14,3.14-8.46,7.42-16.55,11.77-24.5,4.41-8.07,6.98-16.24,4.9-26.47-6.12.74-11.87,1.43-18.32,2.21,6.03-3.91,11.44-7.42,17.77-11.52-2.74-.87-4.16-1.31-5.64-1.78,1.02-1.57,1.79-2.75,2.79-4.29-1.6-.86-2.83-1.52-4.55-2.44-.27,12.53-10.02,7.36-15.92,9.44,2.15.2,4.31.41,6.46.61.06.51.12,1.02.18,1.54-2.07.65-4.16,1.24-6.21,1.95-3.45,1.2-7.4,1.78-10.2,3.87-3.86,2.89-1.49,6.81.1,10.26.19.41-.04.99-.02,1.48.38,7.12.66,14.24,6.05,19.9.75.79.81,2.51.74,3.77-.57,9.65,2.36,18.28,7.93,25.95,8.59,11.83,17.59,23.35,26.13,35.21,7.03,9.76,16.51,14.97,28.22,16.61,1.03.14,2.02.6,3.03.91,0,.41.02.81.03,1.22-1.61.31-3.35,1.19-4.8.84-12.82-3.08-24.67-8.07-33.18-18.71-8.67-10.85-17.11-21.89-25.65-32.84.12,2.55.91,4.72,2.22,6.49,6.92,9.34,14.59,18.19,20.86,27.95,12.9,20.09,40.41,25.02,59.35,17.27,5.98-2.45,11.42-6.19,18.17-9.92-2.41,3.49-4.28,6.19-6.15,8.9,10.52-9.37,20.9-18.13,24.4-33.24,4.37-18.89,11.06-37.23,13.02-56.7.1-.97.8-1.88,1.22-2.82.46.13.93.25,1.39.38,2.64,18.54-6.28,34.99-10.1,52.53,2.88-5.54,5.77-11.07,8.65-16.61.48.25.96.5,1.44.74-5.51,15.11-12.28,29.63-20.53,43.63,4.52-6.19,9.05-12.39,13.57-18.58.5.33.99.66,1.49.99-5.79,10.81-11.58,21.62-17.91,33.43,6.22-4.14,11.93-7.48,17.13-11.5,7.6-5.87,14.91-12.13,22.13-18.45,1.48-1.29,3.04-3.69,2.89-5.43-.76-8.83-2.06-17.61-3.17-26.4Zm-186.42-67.68c-2.21,5.31-4.04,9.82-5.97,14.28-1.17,2.7-2.84,5.22-3.69,8.01-2.4,7.91-4.33,15.95-6.81,23.83-.66,2.09-2.41,3.96-4,5.59-3.51,3.61-7.35,6.91-10.86,10.52-8.43,8.67-16.37,17.7-27.5,23.41-10.43,5.35-15.36,16.25-22.38,24.98-.62.78-.43,2.45-.2,3.63,1.47,7.59-.47,14.31-4.32,20.91-7.18,12.31-12.35,25.49-16.2,40.14,9.11-.67,17.49-1.08,25.81-2.03,2.15-.25,4.58-1.75,6.05-3.42,3.61-4.09,7.56-7.37,12.94-8.71,6.73-1.68,13.39-3.77,20.21-4.96,10.89-1.91,21.84-3.75,32.85-4.55,4.9-.36,8.32-1.15,11.3-5.29,4.62-6.42,9.39-12.86,14.96-18.43,8.86-8.87,18.43-17.04,27.19-25.05-6.7-9.09-12.98-17.8-19.51-26.33-1.1-1.44-3.1-2.53-4.9-3.05-5.89-1.68-8.6-5.51-9.4-11.46-.43-3.2-2.08-6.22-3.12-9.34-3.45-10.32-7.25-20.54-10.13-31.01-1.23-4.46-.99-9.58,3.43-13.31-1.82-2.64-3.56-5.17-5.75-8.36Zm133.95,199.89c1.01-1.26,1.98-2.3,2.76-3.46,10.85-16.27,24.86-28.45,42.94-36.65,7.82-3.55,15.21-9.85,20.55-16.65,8.25-10.5,14.86-22.35,21.5-34.01,1.64-2.87,1.57-7.38.79-10.8-1.35-5.95-3.8-11.66-5.91-17.43-4.67-12.76-15.61-17.39-25.88-21.28,5.29,3.9,11.62,8.08,17.36,12.95,4.47,3.79,4.58,8.21,1.04,12.83-2.82,3.68-5.67,7.45-9.06,10.57-18.98,17.46-39.73,32.57-61,47.17-17.19,11.8-33.29,25.26-45.29,43.88-3.33-3.55-6.68-7.11-10.02-10.67,1.02,3.4,2.43,6.61,4.83,8.65,4.76,4.04,4.41,8.7,3.2,13.93-2.83,12.29-6.13,24.52-8.05,36.96-2.19,14.2-3.31,28.59-4.43,42.94-.32,4.12.96,8.37,1.5,12.57,4.79-7.98,8.38-15.8,11.68-23.75.49-1.19,0-3.15-.67-4.41-3.81-7.18-.52-14.07,7.52-15.77,1.42-.3,3.13-1.15,3.92-2.29,8.13-11.7,16.11-23.49,24.07-35.3.7-1.03,1.55-2.58,1.25-3.56-2-6.63.68-12.75,1.71-19.05.67-4.15-.92-5.65-5.05-4.47-3.36.95-6.59,2.34-9.94,3.3-3.82,1.09-7.71,1.91-11.57,2.85-.11-.45-.22-.9-.32-1.36,6.31-1.78,12.58-3.75,18.95-5.27,3.2-.77,4.39-2.53,4.51-5.54.17-4.31.15-8.66.73-12.92.48-3.58,1.69-7.06,2.85-11.67,5.24,7.17,3.41,13.81,3.5,20.13.13,9.05.03,18.11.03,27.61Zm-316.17-37.57c1.61-.29,3.26-.42,4.8-.9,6.27-1.96,12.43-1.68,18.62.44,2.02.69,4.24,1.17,6.36,1.14,14.29-.19,28.59-.46,42.87-.87,6.43-.18,10.11-4.36,12.86-9.65,3.43-6.61,6.69-13.3,10.37-19.77,3.48-6.11,4.41-10.95,2.04-16.08-.08,1.53.17,3.03.29,4.53.47,6.05-5.01,12.19-10.43,11.42-19.8-2.82-37.96-9.58-53.2-22.95-1.69-1.49-2.56-3.92-4.02-6.25-1.32-.65-3.29-1.63-4.75-2.36,1.86-4.1,3.28-7.25,5.23-11.53-2.33.62-3.1.78-3.83,1.03-4.73,1.66-6.35,5.95-8.59,9.85-4.85,8.47-10.31,16.6-14.9,25.21-6.04,11.34-8.57,23.32-3.73,36.73ZM387.38,37.1c-21.38-1.49-41.9,4.01-62.61,7.79-6.85,1.25-10.42,5.48-10.25,12.48.21,8.11.96,16.22,1.83,24.29.55,5.14,4.32,7.4,9.29,5.95,2.86-.83,5.64-1.93,8.44-2.96,14.72-5.43,29.64-9.74,45.61-8.82,8.95.51,17.92.73,26.88,1,7.02.21,9.75-2.43,9.54-9.39-.23-7.3-.59-14.6-1.03-21.89-.37-6.15-2.93-8.42-9.25-8.45-6.15-.03-12.3,0-18.45,0Zm44.5,461.74c-4.96-.06-8.28,2.67-9.49,7.17-1.52,5.67-3.22,11.3-4.72,16.98-.73,2.75-.45,4.82,3.35,4.91,9.35.23,18.39,1.95,27.11,5.62,4.67,1.97,9.91,4.34,14.68,3.95,10.27-.85,20.23.2,30.18,2.09,3.42.65,4.87-.56,5.78-3.54,1.39-4.58,2.65-9.23,4.49-13.64,2.33-5.59,2.03-7.05-3.86-8.46-14.36-3.45-28.77-6.7-43.18-9.93-8.26-1.85-16.57-3.51-24.34-5.15Zm36.91-372.83c-7.72-3.14-15.73-5.8-23.17-9.59-7.36-3.75-13.91-9.05-21.21-12.94-23.06-12.29-47.75-12.62-72.77-8.77-6.4.98-12.58,3.35-18.87,5.08,5.59-.27,10.9-1.46,16.24-2.47,21.16-3.99,41.18-.84,59.15,11.12,11.01,7.33,21.2,15.91,31.7,24.01,9.4,7.26,23.64,3.89,28.92-6.44Zm-94.8,242.43c.85-.38,1.7-.76,2.56-1.14-1.49-5.15-2.85-10.34-4.49-15.43-1.61-5.01-3.76-9.85-5.22-14.9-4.52-15.6-8.81-31.26-13.25-46.88-.23-.82-1.05-1.47-2.15-2.94-1.2,12.09-2.7,23.25-3.26,34.45-.33,6.55.02,13.39,1.58,19.72,1.52,6.19,4.62,12.09,7.67,17.77,2.16,4.02,5.39,7.47,8.15,11.17-10.7-16.59-16.96-32.69-13.87-38.07,7.37,11.99,14.83,24.12,22.29,36.26Zm5.07-48.1c-.41.44-.82.88-1.23,1.31,3.56,4.23,6.92,8.66,10.72,12.65,5.15,5.41,10.3,5.03,13.64-1.56,3.41-6.72,8.93-10.97,14.52-15.41,2.83-2.26,6.05-4.37,8.04-7.27,3.99-5.84,7.26-12.17,9.88-16.67-12.83,11.68-28.87,21.5-48.95,23.46-.07.74-.19,2.12-.31,3.49h-6.32Zm36.89-89.23c-2.4-.3-4.54-1.13-6.41-.72-14.14,3.1-28.24,6.39-42.31,9.8-1.1.27-1.87,1.87-2.79,2.86,1.56,1.21,2.99,3.23,4.7,3.5,9.47,1.48,18.73-.15,27.73-3.09,7.03-2.3,14.43-4.18,19.08-12.33Zm-86.33,93.39c-.41.26-.81.51-1.22.77,4.01,6.16,7.59,12.67,12.13,18.41,7.03,8.88,13.73,17.68,17.17,28.81,3.43,11.11,7.28,21.82,6.9,33.86-.64,20.29-.18,40.61-.18,60.92v5.05c1.21-.62,1.38-1.21,1.38-1.8.16-23.46.48-46.93.31-70.39-.04-5.54-1.26-11.22-2.83-16.58-4.56-15.56-11.63-29.84-22.3-42.31-4.36-5.1-7.61-11.13-11.37-16.74Zm-225.68-21.27c.73.34,1.46.68,2.19,1.02,3.81-7.53,7.06-15.42,11.6-22.49,4.53-7.06,10.35-13.29,15.41-19.64-10.31-1.22-12.08-.22-16.36,9.66-.39.91-.87,1.79-1.24,2.71-3.87,9.58-7.73,19.16-11.6,28.74Zm314.7,85.93c8.56-9.69,17.4-19.16,25.61-29.14,6.85-8.33,14.13-15.74,24.49-19.64,3.23-1.22,6.28-3.09,9.14-5.05,2.11-1.44,3.78-3.52,5.65-5.32-34.52,18.67-35.4,16.62-64.89,59.16Zm-71.39-223.08c.17-.64.34-1.29.51-1.93-2.77-1.54-5.68-4.62-8.28-4.38-13.56,1.26-21.48,6.93-22.09,22.61,1.45-1.16,2.6-2.58,3.48-4.16,1.09-1.95,1.46-4.63,3.02-5.93,6.66-5.52,13.51-11.11,23.36-6.22Zm-94.82,169.72c-.54-.46-1.08-.93-1.61-1.39-12,12.89-22.8,26.83-33.91,40.49.5.43,1,.86,1.5,1.29,11.34-13.46,22.69-26.92,34.03-40.38Zm294.87,20.35c-.65-1.48-.69-1.85-.9-2.02-12.41-9.7-24.73-19.53-37.32-28.99-5.11-3.84-11.08-5.29-17.52-2.6,8.79-1.94,14.98,3.05,21.25,7.74,11.2,8.38,22.38,16.78,34.49,25.86Zm-339.23,20.83c.44.35.88.71,1.32,1.06,11.41-13.76,22.81-27.52,34.22-41.28l-1.45-1.19c-11.36,13.8-22.73,27.6-34.09,41.41Zm102.93-185.56c-4.54-.13-6.43,6.02-10.52,1.99-.12,1.7-.24,3.51-.37,5.32.45-.17.9-.35,1.35-.52.97,2.29,2.18,4.52,2.85,6.9,1.67,5.9,4.51,10.62,7.58,11.66-3.85-8.29-10.65-16.24-.9-25.34Zm95.64,50.48c-9.03,3.23-17.28,6.18-25.76,9.22,7.18,2.96,21.58-1.4,25.76-9.22Zm-24.26-140.05c-13.35-6.05-45.36-.5-53.14,7.3,17.46-7.28,34.72-11.71,53.14-7.3Zm78.75-57.62c-4.75-11.23-9.03-22.94-19.89-31.21,6.88,10.8,13.39,21.01,19.89,31.21Zm-181.29,10.64c6.24-11.44,16.86-18.4,26.88-25.97-11.46,6.07-22.07,13.03-26.88,25.97Zm21.44,160.12c.14,1.57.03,2.45.31,3.19,2.89,7.69,5.5,15.52,8.96,22.95,1.05,2.26,4.46,3.43,6.79,5.11-1.91-2.92-5.24-5.1-5.57-7.66-1.14-8.74-5.46-15.82-10.49-23.58Zm168.86-96.24c-9.84-8.52-23.37-10.41-35.97-14.51,12.19,4.92,24.37,9.83,35.97,14.51Zm-227.31,50.36c-.49.16-.97.32-1.46.48.09,14.32.41,16.12,6.57,14.62-1.71-5.05-3.41-10.07-5.11-15.09Zm-31.49,195.87c.36.3.73.6,1.09.9,7.45-8.97,14.91-17.95,22.36-26.92-.4-.33-.8-.66-1.2-.98-7.42,9-14.84,18.01-22.26,27.01Zm181.3,58.55c-4.24-.43-6.4.8-7.66,3.67-1.26,2.87-1.81,5.66,1.77,8.18,1.87-3.77,3.62-7.28,5.89-11.85Zm-217.07-31.91c.32.28.64.57.96.85,7.04-8.49,14.09-16.98,21.13-25.48-.34-.28-.69-.56-1.03-.84-7.02,8.49-14.04,16.98-21.06,25.46Zm-.25-8.12c.4.34.81.67,1.21,1.01,5.86-7.07,11.72-14.15,17.58-21.22-.31-.25-.61-.51-.92-.76-5.96,6.99-11.91,13.98-17.87,20.97Zm72.4-9.29c-.44-.34-.89-.68-1.33-1.02-5.02,6.09-10.04,12.18-15.06,18.27.44.35.89.7,1.33,1.05,5.02-6.1,10.04-12.2,15.06-18.31Zm58.52-189.13c.46,0,.92,0,1.38,0v-24.65h-1.38v24.65Zm-72.42,211.58c.46.35.92.7,1.39,1.06,4.6-5.65,9.2-11.3,13.8-16.95-.37-.3-.74-.6-1.12-.89-4.69,5.6-9.38,11.19-14.07,16.79Zm-50.9-5.81c.34.28.69.56,1.03.84,5.67-6.86,11.34-13.71,17.02-20.57-.33-.27-.65-.54-.98-.81-5.69,6.84-11.38,13.68-17.07,20.53Zm336.81-114.45c.28.2.55.41.83.61,4.94-6.33,9.87-12.67,14.81-19l-1.19-.88c-4.82,6.42-9.63,12.85-14.45,19.27Zm-345.89,150.03c.48.4.95.81,1.43,1.21,3.73-4.41,7.47-8.81,11.2-13.22-.48-.41-.97-.81-1.45-1.22-3.73,4.41-7.45,8.82-11.18,13.23Zm77.44,42.56c.49.4.98.79,1.47,1.19,3.6-4.21,7.19-8.43,10.79-12.64l-1.52-1.23c-3.58,4.23-7.16,8.46-10.74,12.69Zm-7.04-98.77l-1.39-1.14c-3.62,4.33-7.24,8.66-10.85,12.99.46.38.92.76,1.38,1.14,3.62-4.33,7.24-8.66,10.86-12.99ZM403.93,110.01c-.27.33-.54.65-.81.98,5.83,4.8,11.66,9.6,17.48,14.41.24-.29.48-.57.71-.86-5.79-4.84-11.59-9.68-17.38-14.53Zm-214.56,281.34c.35.28.71.57,1.06.85,4.29-5.23,8.58-10.46,12.87-15.69-.31-.25-.62-.5-.93-.75-4.33,5.19-8.67,10.39-13,15.58Zm75.91,72.08c-.46-.4-.92-.79-1.38-1.19l-10.88,13.67c.38.3.75.59,1.13.89,3.71-4.46,7.42-8.91,11.13-13.37Zm296.2-117.42l.78-.02v-20.21c-.26,0-.52,0-.78.01v20.21Zm-311.39,115.99c.45.41.9.83,1.35,1.24,3.16-3.78,6.32-7.55,9.48-11.33-.46-.38-.92-.76-1.38-1.14-3.15,3.74-6.31,7.48-9.46,11.23Zm15.33,9.4c-.43-.33-.85-.66-1.28-.99-3.42,4.18-6.84,8.36-10.26,12.53.41.33.83.66,1.24.99,3.43-4.18,6.86-8.35,10.29-12.53Zm-95.99-47.91c.4.31.79.62,1.19.92,3.55-4.32,7.1-8.65,10.66-12.97-.38-.3-.76-.6-1.15-.9-3.57,4.32-7.13,8.63-10.7,12.95Zm85.55,66.3c.44.36.88.73,1.32,1.09,3.03-3.79,6.07-7.58,9.1-11.37-.43-.32-.85-.65-1.28-.97-3.05,3.75-6.1,7.5-9.15,11.24Zm3.29-51.93c-.51-.37-1.03-.73-1.54-1.1-2.93,3.77-5.86,7.53-8.79,11.3.41.3.82.61,1.23.91,3.03-3.7,6.06-7.41,9.09-11.11Zm1.51-10.04c-.49-.39-.98-.77-1.46-1.16-3.08,3.81-6.17,7.62-9.25,11.43.44.35.87.7,1.31,1.05,3.14-3.77,6.27-7.55,9.41-11.32Zm-68.04-69.67c-.43-.35-.86-.69-1.29-1.04-3.06,3.66-6.12,7.31-9.17,10.97.39.32.79.65,1.18.97,3.09-3.63,6.19-7.27,9.28-10.9Zm71.9-10.75c-.46-.45-.92-.9-1.38-1.35-2.71,3.16-5.42,6.31-8.14,9.47.47.4.94.81,1.41,1.21,2.7-3.11,5.41-6.22,8.11-9.33Zm-69.23,46.17c.4.34.81.68,1.21,1.02,3.25-4.03,6.49-8.06,9.74-12.09-.34-.26-.67-.53-1.01-.79-3.32,3.95-6.63,7.91-9.95,11.86Zm52.36-37.14c.32.28.65.56.97.85l9.83-11.45c-.34-.3-.68-.59-1.02-.89-3.26,3.83-6.52,7.66-9.78,11.49Zm2.1,98.61c.47.37.94.74,1.42,1.11,2.7-3.3,5.41-6.6,8.11-9.9l-1.34-1.04c-2.73,3.27-5.46,6.55-8.18,9.82Zm-11.03-55.07c.48.43.96.85,1.44,1.28,2.42-3,4.83-6,7.25-9-.43-.34-.87-.68-1.3-1.03-2.46,2.92-4.93,5.84-7.39,8.75Zm-63.89,12.04c-.41-.36-.82-.71-1.23-1.06l-7.01,8.38c.42.35.84.69,1.25,1.04,2.33-2.78,4.66-5.57,6.99-8.35Zm82.27,84.49c.42.34.84.67,1.25,1.01,2.55-3.15,5.09-6.3,7.64-9.46-.39-.31-.79-.62-1.18-.94-2.57,3.13-5.14,6.26-7.71,9.38Z"/><path class="cls-1" d="m409.64,257.79c-8.85,6.5-17.74,14.91-31.17,11.45-.15,2.35-.29,4.4-.46,7.05-5.48-4.77-10.65-8.91-15.3-13.57-1.35-1.35-1.22-4.16-1.53-5.36,8.14,2.44,16.35,6.76,24.59,6.83,8.11.06,16.25-4.19,23.87-6.41Z"/><path class="cls-1" d="m411.91,197.37c8.38,4.35,15.49,8.24,22.78,11.73,3.26,1.56,4.77,3.78,5.09,7.23.82,8.78-2.33,16.51-6.75,23.94,1.1-4.29,1.89-8.68,3.37-12.83,1.79-5.05.4-8.33-3.93-11.35-5.83-4.06-11.32-8.63-16.79-13.18-1.4-1.17-2.16-3.1-3.78-5.54Z"/><path class="cls-1" d="m489.62,165.55c1.78-8.7-.28-12.76-7.29-12.66,1.74-1.91,3.08-3.37,4.44-4.86,7.38,7.47,8.21,35.98.86,46.11.18-1.57.31-3.16.56-4.72.52-3.25,1.43-6.48,1.59-9.75.54-11.02-2.33-14.39-13.36-16.35-.47-.08-.92-.27-1.4-.41,3.29-5.19,7.75-4.35,14.59,2.64Z"/><path class="cls-1" d="m481.05,172.46c3.96-3.36,5.51-.69,7.14,2.07,2.56,4.35-.7,6.75-3.21,9.13-1.29,1.23-3.56,1.38-5.02,2.5-1.48,1.13-2.5,2.86-3.72,4.32-.47-.15-.94-.29-1.41-.44.46-2,.25-4.84,1.5-5.86,4.48-3.64,2.43-6.81.16-10.3-1.87-2.88-2.87-5.81.84-9,1.23,2.51,2.27,4.62,3.73,7.58Z"/><path class="cls-1" d="m392.86,168.63c7.34-3.19,14.38-1.97,25.14,3.96-2.53-.4-5.05-.82-7.58-1.19-2.45-.36-4.91-.67-7.94-1.08.68,1.85.98,2.67,1.27,3.49-.3.39-.6.77-.9,1.16-3.33-2.11-6.67-4.22-10-6.33Z"/></g></svg>