<?xml version="1.0" encoding="UTF-8"?><svg id="Layer_2" xmlns="http://www.w3.org/2000/svg" viewBox="0 0 1831.45 991.55"><defs><style>.cls-1{fill:#049b62;}.cls-1,.cls-2,.cls-3,.cls-4{stroke-width:0px;}.cls-2{fill:#db2c27;}.cls-3{fill:#b8b2a6;}.cls-4{fill:#fff;}</style></defs><g id="Layer_1-2"><path class="cls-4" d="m660.26,562.86c-.6-1.15-.85-1.57-1.05-2.02-14.2-32.95-40.65-47.75-75.11-49.89-21.34-1.33-42.41,2.8-63.52,5.18-25.23,2.85-50.01,8.89-75.34,11.23-16.94,1.56-33.9,2.17-50.84,1.12-19.09-1.19-38.14-2.68-57.28-2.58-10.78.05-18.79,4.48-24.35,13.65-2.67,4.4-6.32,7.97-9.99,11.53-1.35,1.3-2.73,1.72-4.46,1.58-11.47-.96-22.95.26-34.23,1.59-22.37,2.64-44.45,1-66.59-1.74-24.91-3.09-49.71-6.86-74.33-11.73-15.11-2.99-30.38-5.07-44.51-12.27-10.91-5.56-22.49-10.16-35.03-10.93-27.3-1.68-45.89,16.82-43.42,45.26.53,6.05,3.02,11.91,3.78,17.97.81,6.44,2.72,12.26,6.29,17.63,4.62,6.96,7.86,14.28,9.12,22.82,1.94,13.21,5.78,25.96,15.92,35.71,1.38,1.33,1.76,3.03,2.08,4.91.85,4.92,2.19,9.74,4.53,14.2,8.18,15.61,21.29,25.65,37.05,32.63,2.46,1.09,4.73,2.13,6.29,4.56,12.15,18.97,29.99,30.53,51.41,35.05,34.13,7.2,67.14,17.82,99.8,29.65,14.51,5.26,29.01,9.4,44.63,7.78,1.94-.2,3.5.66,5.13,1.58,13.67,7.68,28.01,13.05,44.03,12.39,2.07-.09,3.92.49,5.77,1.32,12.02,5.38,24.48,9.37,37.42,11.95,15.35,3.06,30.78,4.92,46.45,3.7,4.96-.38,9.32.5,13.71,3.14,15.08,9.07,31.31,14.48,49.17,13.88,1.93-.06,3.51.72,5.17,1.55,8.49,4.26,17.13,8.6,26.63,9.5,6.72.64,11.21,4.18,16.07,7.93,10.79,8.32,22.37,14.89,36.39,16.23,2.9.28,6.04-.32,8.79,1.27,15.65,9.06,32.59,10.79,50.16,8.71,1.4-.17,2.59.04,3.85.56,10.71,4.45,21.94,6.3,33.45,7.21,3.92.31,8.53-.69,11.73,2.83,2.12,2.33,3.85,5.02,6,7.31,14.93,15.89,29.87,31.83,48.04,44.12,14.05,9.51,29.3,16.96,44.47,24.54,29.45,14.72,60.05,24.95,93.32,25.86,31.54.87,62.83-.5,93.25-9.92,25.65-7.94,50.51-17.7,72.85-32.97,25.21-17.23,49.03-36,67.19-61,1.06-1.46,2.39-2.12,4.23-2.14,13.12-.16,25.64-3.19,37.81-7.91,1.55-.6,3.07-1.29,4.81-.69,12.11,4.14,23.85,2.06,35.51-2.06,9.87-3.49,18.94-8.41,30.08-9.23,12.67-.93,22.48-10.02,32.24-17.86,2.41-1.94,4.4-4.61,7.81-5.01,11.59-1.36,22.08-5.86,32.18-11.39,1.83-1,3.61-1.37,5.65-1.54,18.37-1.56,36.1-5.4,52.19-14.93,1.19-.7,2.32-1.31,3.7-1.22,6.51.42,12.95-.58,19.42-.86,21.23-.93,41.82-4.9,61.72-12.51,4.13-1.58,7.84-4.59,12.53-4.48,15.09.34,28.91-3.85,41.57-11.82,3.21-2.02,6.4-2.78,9.88-1.97,5.38,1.25,10.63.2,15.79-.79,14.1-2.72,27.16-8.74,40.68-13.32,20.24-6.86,39.89-15.79,61.26-18.82,27.43-3.88,50.42-16,69.36-36.1,6.68-7.1,14.92-12.1,23.25-17.05,12.74-7.57,22.89-17.5,24.36-33.25.83-8.81,5.14-15.5,11.04-21.34,5.59-5.53,8.67-11.91,7.75-19.66-1.13-9.54,2.22-17.49,7.11-25.31,7.19-11.5,10.5-24.33,11.81-37.72,1.6-16.35-5.18-29.31-16.16-40.77-3.6-3.76-7.59-5.36-12.47-4.54-4.68.78-9.34,1.84-13.89,3.18-14.49,4.26-28.91,8.78-43.4,13.07-34.32,10.16-69.23,17.39-104.79,21.55-12.87,1.51-25.75,2.85-38.66,3.56-16.83.92-33.71.84-50.29-2.77-10.24-2.23-18.33-7.76-24.65-16.48-6.51-8.97-15.1-13.7-27.14-11.89-12.95,1.95-26.12,2.6-39.22,3.34-15.15.86-30.18-.9-45.22-2.74-21.75-2.65-43.59-4.51-65.3-7.4-24.51-3.26-49.06-6.18-73.68-8.38-19.98-1.78-39.45,1.63-58.02,9.46-9.91,4.18-18.55,9.93-23.01,20.24-4.01,9.27-9.48,17.84-13.08,27.9-1.32-1.45-2.43-2.63-3.49-3.85-7.86-9.02-15.63-18.13-23.59-27.06-14.26-15.98-31.23-28.65-48.54-41.18-37.2-26.92-78.75-41.83-123.85-47.73-14.49-1.9-29.04-2.15-43.74-1.42-26.67,1.33-52.16,6.97-77.23,16.06-39.91,14.47-73.9,37.51-103.26,67.85-10.62,10.97-21,22.16-30.97,34.38Z"/><path class="cls-3" d="m660.26,562.86c9.98-12.23,20.35-23.41,30.97-34.38,29.36-30.34,63.36-53.38,103.26-67.85,25.07-9.09,50.56-14.73,77.23-16.06,14.7-.73,29.25-.48,43.74,1.42,45.1,5.9,86.64,20.8,123.85,47.73,17.31,12.53,34.28,25.2,48.54,41.18,7.97,8.93,15.73,18.04,23.59,27.06,1.06,1.22,2.17,2.4,3.49,3.85,3.6-10.07,9.07-18.63,13.08-27.9,4.46-10.31,13.1-16.06,23.01-20.24,18.57-7.84,38.04-11.24,58.02-9.46,24.61,2.19,49.16,5.11,73.68,8.38,21.71,2.89,43.56,4.75,65.3,7.4,15.03,1.83,30.07,3.6,45.22,2.74,13.1-.74,26.27-1.39,39.22-3.34,12.03-1.81,20.63,2.92,27.14,11.89,6.32,8.71,14.42,14.25,24.65,16.48,16.58,3.61,33.46,3.7,50.29,2.77,12.91-.71,25.79-2.05,38.66-3.56,35.57-4.16,70.48-11.4,104.79-21.55,14.49-4.29,28.9-8.81,43.4-13.07,4.55-1.34,9.21-2.4,13.89-3.18,4.88-.82,8.87.78,12.47,4.54,10.97,11.46,17.76,24.42,16.16,40.77-1.31,13.39-4.62,26.22-11.81,37.72-4.89,7.82-8.24,15.77-7.11,25.31.92,7.76-2.16,14.14-7.75,19.66-5.9,5.83-10.22,12.53-11.04,21.34-1.48,15.74-11.63,25.68-24.36,33.25-8.33,4.95-16.56,9.95-23.25,17.05-18.94,20.1-41.92,32.22-69.36,36.1-21.38,3.03-41.02,11.96-61.26,18.82-13.52,4.58-26.58,10.6-40.68,13.32-5.16,1-10.41,2.05-15.79.79-3.48-.81-6.68-.04-9.88,1.97-12.67,7.97-26.48,12.17-41.57,11.82-4.69-.11-8.39,2.9-12.53,4.48-19.9,7.61-40.5,11.58-61.72,12.51-6.47.28-12.92,1.29-19.42.86-1.38-.09-2.52.52-3.7,1.22-16.09,9.53-33.83,13.37-52.19,14.93-2.03.17-3.81.54-5.65,1.54-10.1,5.53-20.59,10.04-32.18,11.39-3.41.4-5.4,3.07-7.81,5.01-9.76,7.84-19.57,16.93-32.24,17.86-11.14.82-20.21,5.74-30.08,9.23-11.66,4.12-23.4,6.2-35.51,2.06-1.75-.6-3.27.09-4.81.69-12.17,4.72-24.69,7.75-37.81,7.91-1.84.02-3.17.68-4.23,2.14-18.16,25-41.98,43.77-67.19,61-22.34,15.27-47.2,25.03-72.85,32.97-30.42,9.42-61.71,10.78-93.25,9.92-33.27-.91-63.86-11.14-93.32-25.86-15.17-7.58-30.42-15.03-44.47-24.54-18.17-12.3-33.11-28.24-48.04-44.12-2.15-2.29-3.88-4.98-6-7.31-3.2-3.52-7.81-2.52-11.73-2.83-11.51-.91-22.74-2.77-33.45-7.21-1.26-.52-2.46-.73-3.85-.56-17.58,2.08-34.51.35-50.16-8.71-2.75-1.59-5.89-1-8.79-1.27-14.02-1.34-25.59-7.91-36.39-16.23-4.86-3.75-9.35-7.29-16.07-7.93-9.5-.9-18.14-5.24-26.63-9.5-1.66-.83-3.24-1.62-5.17-1.55-17.86.59-34.08-4.81-49.17-13.88-4.38-2.63-8.75-3.52-13.71-3.14-15.67,1.22-31.1-.64-46.45-3.7-12.94-2.58-25.39-6.56-37.42-11.95-1.85-.83-3.7-1.4-5.77-1.32-16.02.66-30.36-4.72-44.03-12.39-1.63-.92-3.2-1.78-5.13-1.58-15.62,1.62-30.12-2.53-44.63-7.78-32.67-11.83-65.67-22.45-99.8-29.65-21.43-4.52-39.26-16.08-51.41-35.05-1.56-2.43-3.83-3.47-6.29-4.56-15.76-6.99-28.87-17.03-37.05-32.63-2.34-4.47-3.68-9.28-4.53-14.2-.32-1.88-.7-3.58-2.08-4.91-10.14-9.74-13.98-22.49-15.92-35.71-1.25-8.54-4.5-15.86-9.12-22.82-3.56-5.38-5.47-11.19-6.29-17.63-.77-6.05-3.26-11.92-3.78-17.97-2.47-28.43,16.12-46.93,43.42-45.26,12.54.77,24.12,5.37,35.03,10.93,14.13,7.2,29.4,9.27,44.51,12.27,24.62,4.87,49.42,8.65,74.33,11.73,22.14,2.74,44.22,4.38,66.59,1.74,11.28-1.33,22.75-2.55,34.23-1.59,1.73.14,3.11-.27,4.46-1.58,3.67-3.56,7.33-7.13,9.99-11.53,5.56-9.17,13.56-13.59,24.35-13.65,19.15-.09,38.2,1.39,57.28,2.58,16.94,1.06,33.9.45,50.84-1.12,25.34-2.34,50.11-8.38,75.34-11.23,21.11-2.38,42.17-6.51,63.52-5.18,34.46,2.14,60.91,16.94,75.11,49.89.19.45.45.87,1.05,2.02Zm865.94,17.28c-25.13.53-51.64-3.04-78.02-8.05-2.85-.54-3.92-1.3-2.77-4.13.43-1.07.62-2.24.87-3.38,2.43-11.01-3.07-17.25-14.37-16.22-3.81.35-7.59,1.05-11.39,1.39-28.13,2.51-56.31,1.61-84.26-1.39-35.06-3.77-69.94-9.14-104.88-13.99-19.11-2.65-37.99-3.51-56.8,2.45-18.39,5.83-29.26,19.44-28.54,37.32.28,6.87,2.07,13.46,4.2,19.97,4.11,12.5,10.89,23.95,14.53,36.63,3.04,10.6,1.01,16.79-7.68,23.63-7.19,5.65-15.53,8.9-24.08,11.81-3.55,1.21-4.64.12-5.36-3.22-2.41-11.23-5.45-22.29-9.44-33.09-20.35-55.11-55.53-97.96-105.65-128.62-33.23-20.33-69.27-31.1-108.14-32.99-41.07-2-80.16,5.5-116.98,23.88-47.42,23.67-83.9,58.78-109.06,105.51-11.36,21.09-19.41,43.41-24.16,66.88-.69,3.4-1.95,4.03-5.03,3.05-7.95-2.52-15.83-5.1-22.8-9.92-12.11-8.37-14.3-15.53-9.21-29.53,5.22-14.37,12.78-27.84,15.98-42.98,4.28-20.25-2.29-36.47-21.93-44.67-14.96-6.25-30.63-8.33-46.49-6.29-27.54,3.55-54.98,7.98-82.43,12.19-27.99,4.29-56.06,7.46-84.44,7.69-18.33.15-36.56-1.01-54.82-2.26-12.25-.84-16.29,5.19-12.82,16.91.09.32.17.65.32.94,1.78,3.62.6,5.29-3.33,6.12-28.6,6.04-57.53,9.05-86.73,8.66-27.08-.36-53.91-3.67-80.58-8.37-36.94-6.51-73.27-15.14-107.89-29.95-2.82-1.21-5.74-1.62-8.77-1.64-6.08-.04-8.73,2.27-10.08,8.1-1.32,5.68-.35,11.28.14,16.88.9,10.42,4.34,19.83,12.33,26.98,3,2.69,4.14,5.45,3.75,9.57-.95,10.01.77,19.49,6.99,27.87,3.24,4.36,7.96,6.43,12.3,9.16,4.56,2.88,4.74,4.13,1.02,7.93-1.5,1.53-2.63,3.13-2.18,5.27,1.68,8.07,4.73,15.74,12.51,19.39,9.44,4.43,18,10.34,27.33,14.88,1.88.91,3.45,2.05,3.79,4.28,1.33,8.64,7.78,13.28,14.24,17.65,12.06,8.17,25.66,12.52,39.9,14.96,10.99,1.88,21.86,4.09,32.45,7.72,17.15,5.88,33.59,13.69,51.03,18.79,10.47,3.06,20.76,8.23,31.99,5.61,10.6-2.47,19.18.94,27.58,6.7,6.14,4.21,12.91,6.37,20.55,6.69,7.02.29,14.3-.41,20.93,3.38,27.36,15.61,57.03,15.79,87.13,12.63,3.39-.36,6.59-.32,8.56,2.59,4.72,6.98,11.96,9.69,19.39,12.27,10.08,3.49,20.52,3.83,31.04,4.02,4.06.07,8.88-.42,11.53,3.39,2.86,4.11,6.73,5.74,11.19,6.73,6.99,1.54,14,2.8,21.24,2.46,6.25-.29,8.9,1.98,9.93,8.06.29,1.69.71,3.18,1.68,4.61,4.86,7.16,18.74,12.6,26.7,9.39,6.49-2.62,10.23-.22,14.92,3.91,8.33,7.34,17.94,12.36,29.55,7.59,7.03-2.89,13.82-2.97,20.75.12,2.88,1.28,5.85,2.45,8.88,3.3,10.86,3.06,21.9,5.26,32.6-.03,3.41-1.69,4.57-1.28,6.53,1.71,13.07,19.95,28.42,37.93,47,53.03,14.86,12.08,30.49,22.95,47.8,31.31,40.19,19.43,82.46,27.72,126.96,23.34,52.51-5.17,98.52-25.27,137.63-60.88,15.46-14.07,29.14-29.65,40.23-47.41,2.07-3.31,3.92-4.38,7.43-1.95,2.79,1.94,6.28,1.86,9.6,2.17,11.54,1.05,22.05-2.59,32.31-7.13,5.51-2.44,10.89-2.65,16.48-.61,12.67,4.61,23.14.45,32.23-8.42,3.88-3.79,7.55-5.63,13.3-3.57,11.27,4.04,25.6-3.97,29.03-15.56,1.02-3.45,2.86-5.94,6.79-6.09,4.39-.17,8.8-.08,13.17-.47,6.59-.59,13.62-1.21,18.38-6.09,4.63-4.74,9.74-6.22,15.9-6.27,4.82-.04,9.68-.13,14.43-.82,12.94-1.86,25.59-4.5,34.49-15.52,1.9-2.35,4.8-3.14,7.73-2.59,14.44,2.7,28.89,1.42,43.27-.12,13.62-1.45,27.02-4.21,39.07-11.17,4.36-2.52,8.68-5.19,13.77-5.12,15.04.21,28.38-4.47,40.68-12.91,4.15-2.84,9.03-2.89,13.98-1.87,6.43,1.32,12.87,1.19,19.28-.52,8.54-2.28,16.87-5.17,25.1-8.32,25.13-9.63,49.77-20.62,76.8-24.43,13.98-1.97,26.89-7.22,37.98-16.3,4.83-3.95,9.01-8.56,10.85-14.57.71-2.33,1.6-3.78,3.6-4.88,8.29-4.58,16.28-9.68,24.8-13.9,8.41-4.16,11.44-12.07,12.5-20.87.16-1.32-.11-2.58-.98-3.76-3.95-5.37-3.86-6.86,2.41-9.94,7.94-3.9,12.45-10.16,15.01-18.31,1.48-4.69,1.92-9.49,1.65-14.31-.29-5.22,1.21-9.39,5.41-12.66,2.08-1.62,3.65-3.71,5.06-6.06,6.63-11.07,7.13-23.42,7.6-35.71.25-6.54-3-9.28-9.68-9.01-8.15.34-15.35,4.02-22.79,6.81-20.25,7.58-41.16,12.83-62.26,17.35-12.32,2.64-24.71,4.98-37.11,7.24-26.55,4.83-53.25,8.3-82.13,8.01Z"/><path class="cls-2" d="m1526.2,580.14c28.88.29,55.58-3.18,82.13-8.01,12.4-2.25,24.79-4.59,37.11-7.24,21.09-4.53,42.01-9.77,62.26-17.35,7.44-2.79,14.64-6.47,22.79-6.81,6.67-.28,9.93,2.47,9.68,9.01-.47,12.29-.97,24.64-7.6,35.71-1.41,2.35-2.99,4.44-5.06,6.06-4.2,3.27-5.7,7.44-5.41,12.66.27,4.82-.17,9.61-1.65,14.31-2.57,8.15-7.07,14.41-15.01,18.31-6.27,3.08-6.36,4.57-2.41,9.94.87,1.18,1.14,2.44.98,3.76-1.07,8.81-4.09,16.71-12.5,20.87-8.52,4.22-16.51,9.32-24.8,13.9-2,1.1-2.89,2.55-3.6,4.88-1.84,6.01-6.02,10.62-10.85,14.57-11.09,9.08-24,14.32-37.98,16.3-27.03,3.82-51.68,14.8-76.8,24.43-8.24,3.16-16.57,6.04-25.1,8.32-6.41,1.71-12.85,1.85-19.28.52-4.95-1.02-9.83-.98-13.98,1.87-12.3,8.43-25.63,13.12-40.68,12.91-5.09-.07-9.41,2.6-13.77,5.12-12.06,6.95-25.45,9.71-39.07,11.17-14.39,1.54-28.83,2.82-43.27.12-2.93-.55-5.83.25-7.73,2.59-8.9,11.02-21.55,13.66-34.49,15.52-4.75.68-9.62.78-14.43.82-6.17.05-11.28,1.53-15.9,6.27-4.77,4.88-11.79,5.5-18.38,6.09-4.37.39-8.78.31-13.17.47-3.93.15-5.77,2.64-6.79,6.09-3.43,11.59-17.77,19.6-29.03,15.56-5.75-2.06-9.42-.22-13.3,3.57-9.09,8.87-19.55,13.03-32.23,8.42-5.59-2.03-10.97-1.82-16.48.61-10.26,4.53-20.78,8.18-32.31,7.13-3.32-.3-6.81-.23-9.6-2.17-3.5-2.43-5.36-1.37-7.43,1.95-11.08,17.76-24.77,33.34-40.23,47.41-39.11,35.61-85.13,55.71-137.63,60.88-44.5,4.38-86.77-3.91-126.96-23.34-17.31-8.37-32.93-19.23-47.8-31.31-18.58-15.1-33.93-33.08-47-53.03-1.95-2.98-3.11-3.39-6.53-1.71-10.7,5.29-21.74,3.08-32.6.03-3.03-.85-6-2.02-8.88-3.3-6.93-3.09-13.72-3.01-20.75-.12-11.61,4.77-21.22-.25-29.55-7.59-4.69-4.13-8.42-6.54-14.92-3.91-7.95,3.21-21.84-2.23-26.7-9.39-.96-1.42-1.39-2.92-1.68-4.61-1.03-6.08-3.67-8.35-9.93-8.06-7.25.34-14.25-.92-21.24-2.46-4.46-.98-8.33-2.62-11.19-6.73-2.65-3.81-7.47-3.31-11.53-3.39-10.51-.19-20.96-.52-31.04-4.02-7.43-2.58-14.67-5.29-19.39-12.27-1.97-2.91-5.16-2.95-8.56-2.59-30.1,3.16-59.77,2.98-87.13-12.63-6.63-3.78-13.91-3.09-20.93-3.38-7.65-.32-14.42-2.48-20.55-6.69-8.4-5.75-16.98-9.17-27.58-6.7-11.23,2.62-21.52-2.55-31.99-5.61-17.44-5.09-33.87-12.91-51.03-18.79-10.59-3.63-21.47-5.83-32.45-7.72-14.24-2.44-27.84-6.79-39.9-14.96-6.46-4.38-12.91-9.01-14.24-17.65-.34-2.23-1.91-3.37-3.79-4.28-9.33-4.54-17.9-10.45-27.33-14.88-7.78-3.66-10.84-11.33-12.51-19.39-.45-2.15.68-3.74,2.18-5.27,3.71-3.81,3.53-5.05-1.02-7.93-4.34-2.74-9.06-4.8-12.3-9.16-6.22-8.38-7.94-17.85-6.99-27.87.39-4.12-.74-6.88-3.75-9.57-7.99-7.15-11.42-16.56-12.33-26.98-.49-5.6-1.45-11.2-.14-16.88,1.35-5.83,4.01-8.14,10.08-8.1,3.03.02,5.95.44,8.77,1.64,34.62,14.81,70.95,23.44,107.89,29.95,26.67,4.7,53.5,8.01,80.58,8.37,29.2.39,58.13-2.63,86.73-8.66,3.93-.83,5.12-2.49,3.33-6.12-.15-.3-.22-.63-.32-.94-3.47-11.72.58-17.76,12.82-16.91,18.27,1.26,36.5,2.41,54.82,2.26,28.38-.23,56.44-3.4,84.44-7.69,27.46-4.21,54.89-8.64,82.43-12.19,15.85-2.04,31.53.04,46.49,6.29,19.64,8.21,26.2,24.43,21.93,44.67-3.2,15.14-10.76,28.62-15.98,42.98-5.09,14-2.9,21.16,9.21,29.53,6.97,4.82,14.85,7.4,22.8,9.92,3.08.98,4.34.35,5.03-3.05,4.75-23.47,12.8-45.79,24.16-66.88,25.17-46.73,61.64-81.84,109.06-105.51,36.82-18.38,75.91-25.89,116.98-23.88,38.87,1.9,74.91,12.66,108.14,32.99,50.12,30.67,85.3,73.51,105.65,128.62,3.99,10.81,7.02,21.86,9.44,33.09.72,3.35,1.81,4.44,5.36,3.22,8.55-2.92,16.89-6.16,24.08-11.81,8.69-6.84,10.72-13.03,7.68-23.63-3.64-12.69-10.42-24.13-14.53-36.63-2.14-6.5-3.93-13.1-4.2-19.97-.72-17.89,10.15-31.5,28.54-37.32,18.81-5.96,37.69-5.1,56.8-2.45,34.94,4.84,69.82,10.22,104.88,13.99,27.95,3,56.13,3.9,84.26,1.39,3.81-.34,7.59-1.04,11.39-1.39,11.3-1.04,16.8,5.2,14.37,16.22-.25,1.14-.44,2.31-.87,3.38-1.15,2.84-.08,3.59,2.77,4.13,26.38,5.02,52.9,8.59,78.02,8.05Zm-428.54,70.82l.27,1.14c-4.35,3.33-8.68,6.67-13.04,9.98-36.49,27.63-72.99,55.26-109.5,82.87-2.04,1.54-3.84,2.78-2.82,6.04,7.77,24.82,15.96,49.51,23.23,74.5,3.12,10.73,7.06,21.3,10.61,31.95,4.48,13.41,8.83,26.87,13.02,40.38,1.12,3.6,2.03,4.13,5.15,1.58,24.82-20.33,45.06-44.38,60.05-72.8,20.57-38.99,28.88-80.55,26.29-124.41-2.26-38.4-13.59-74.01-33.63-106.77-13.39-21.89-30-41.12-50-57.28-48.08-38.86-103.1-54.92-164.19-46.93-61.26,8.01-110.58,38.15-147.54,87.39-35.77,47.65-50.3,101.82-44.96,161.14,3.69,40.97,17.42,78.36,41.05,112.12,14.17,20.24,31.32,37.67,50.84,52.52,15.05,11.44,32.13,19.77,49.67,26.98,21.55,8.86,43.94,13.94,67.18,15.04,7.12.34,14.3-.25,21.44-.6,41.34-1.98,79.06-14.72,113.06-38.35,6.62-4.6,6.52-4.59-.13-9.52-33.14-24.58-66.71-48.58-99.46-73.7-3.58-2.74-4.76-5.16-4.75-9.3.08-32.64-.01-65.29-.06-97.93-.01-8.99.05-17.99-.14-26.98-.07-3.22.87-4.35,4.24-4.25,7.32.23,14.65.07,21.98-.02,2.96-.04,4.74,1.15,5.19,4.17.59,3.94,1.47,7.86,1.78,11.83.24,3.08,1.62,3.92,4.47,3.86,6.33-.13,12.66-.16,18.98.03,3.42.1,4.67-1.01,4.61-4.57-.21-12.32-.25-24.65-.07-36.97.06-3.7-1.38-4.39-4.68-4.37-49.63.28-99.26.49-148.88.59-3.33,0-4.33,1.01-4.29,4.25.14,12.32.13,24.65.03,36.97-.02,2.88.69,4.3,3.89,4.22,6.66-.17,13.32-.14,19.98,0,2.59.06,4.02-.87,4.74-3.34,1.07-3.67,2.38-7.27,3.46-10.94,1.21-4.08,3.67-5.96,8.09-5.73,5.32.28,10.67.32,15.98,0,3.81-.22,5.17.82,5.18,4.86.07,42.63.31,85.27.56,127.9.01,2.11-.91,3.31-2.49,4.5-19.32,14.49-38.62,29.01-57.87,43.59-14.13,10.7-28.15,21.55-42.34,32.16-2.2,1.64-4.34,4.04-7.65,3.68,4.89-15.37,9.77-30.5,14.52-45.67,10.79-34.43,21.45-68.91,32.36-103.3,1.22-3.84.49-6.05-2.67-8.39-35.83-26.55-71.58-53.21-107.36-79.84-5.62-4.18-11.24-8.37-16.87-12.55.15-.44.3-.88.44-1.32,14.78,0,29.55.03,44.33,0,36.47-.09,72.93-.23,109.4-.28,3.08,0,4.7-.65,5.47-4.14,1.03-4.73,3.12-9.24,5.01-14.55,1.1,1.97,1.9,3.06,2.37,4.27,1.76,4.59,4.71,6.38,9.88,6.04,8.96-.6,17.97-.4,26.96-.45,8.3-.04,8.47.07,11.46-7.78,1.21-3.18,3.52-2.76,5.68-2.5,2.48.3,6.46-1.96,7.07,2.31,1.12,7.87,6.04,8.65,12.44,7.93,2.96-.33,6,.15,8.98-.08,3.13-.24,5.27.64,5.75,3.94.62,4.22,3.15,4.99,7.06,4.97,38.64-.14,77.28-.09,115.92-.09,11.76,0,23.51,0,35.27,0ZM58.13,577.62c2.49-.47,3.92.48,5.47.92,13.83,3.93,26.76,10.36,40.77,13.9,22.54,5.7,45.21,10.48,68.28,13.38,48.57,6.1,97.21,6.54,145.91,1.82,8.27-.8,16.5-2.08,24.68-3.52,5.73-1.01,6.13-2.68,2.56-7.1-1.77-2.19-3.39-4.51-4.97-6.84-4.62-6.83-6.08-7.45-14.1-5.64-37.21,8.38-74.82,9.34-112.65,5.96-21.54-1.92-42.95-4.86-64.2-8.82-26.99-5.02-53.86-10.59-79.81-19.84-6.89-2.45-13.72-5.11-20.69-7.29-5.2-1.62-7.66.88-6.75,6.2.56,3.28,1.35,6.55,1.51,9.85.43,8.76,3.76,16.03,10.1,22.07,10.71,10.2,23.62,16.65,37.27,21.69,16.83,6.22,34.54,8.97,52.07,12.34,10.76,2.07,21.65,3.54,32.52,4.98,20.46,2.71,41.01,4.67,61.62,5.64,19.61.92,39.25.95,58.89-.08,24.31-1.28,48.33-4.52,72.09-9.7,3.21-.7,8.13-.86,8.83-4.13.7-3.23-3.74-5.06-6.58-6.51-4.01-2.04-7.11-6.45-12.48-5.22-7.47,1.71-15.07,2.58-22.7,3.13-7.39.54-14.71,1.69-22.12,2.28-42.25,3.33-84.37,3.17-126.46-2.34-36.64-4.8-72.67-11.99-107.05-25.96-7.41-3.01-14.83-6.22-22.02-11.17Zm1656.45-4.31c-7.51,5.12-15.8,8.45-24.1,11.68-30.05,11.69-61.3,18.8-93.08,23.64-22.99,3.51-46.06,6.33-69.4,6.36-17.97.02-35.93.05-53.89-1.02-15.95-.95-31.99-1.58-47.63-4.72-8.43-1.69-14.94.11-21.14,5.13-1.99,1.61-5.46,2.91-5.03,5.65.46,2.92,4.16,2.81,6.64,3.44,25.77,6.53,52.02,9.09,78.53,10.03,38.85,1.37,77.36-2.04,115.77-7.32,16.47-2.26,32.82-5.2,49.09-8.59,16.64-3.46,32.81-8.19,48.06-15.96,19.5-9.93,33.43-23.24,32.12-47.35-.18-3.36-1.32-3.65-3.64-3.58-1.47.05-2.98.4-4.39.86-9.11,3.03-18.09,6.51-27.32,9.14-24.43,6.96-49.17,12.58-74.24,16.79-25.58,4.29-51.18,8.62-77.09,10.09-32.17,1.82-64.18.14-95.79-6.74-4.67-1.02-8.43.02-11.07,4.5-1.85,3.13-4.26,5.94-6.53,8.81-3.19,4.04-2.75,5.71,2.35,6.52,7.88,1.26,15.78,2.48,23.72,3.17,28.2,2.45,56.44,3.45,84.75,2.17,23.12-1.05,46.17-2.67,69.02-6.39,12.78-2.08,25.46-4.59,38.09-7.6,14.53-3.46,28.86-7.3,43.04-11.94,7.62-2.49,14.92-6.13,23.12-6.78Zm-1309.96,11.36c-6.65,0-13.31-.05-19.96.03-1.64.02-3.67.22-4.28,1.95-.68,1.93,1.27,2.88,2.56,3.8,11.89,8.47,24.69,15.15,39.01,18.41,36.66,8.33,73.38,6.42,109.96-.41,6.37-1.19,11.13.13,15.42,4.33,3.2,3.13,6.65,6.38,4.88,11.64-1.67,4.97-5.16,7.97-10.26,9.19-6.29,1.5-12.44,3.59-18.94,4.15-1.5.13-3.06.73-3.67,2.25-.71,1.78.8,2.82,1.92,3.67,4.77,3.58,9.25,7.54,14.92,9.86,7.86,3.2,10.36,7.07,9.98,15.32-.13,2.85.64,4.23,3.46,3.99,9.62-.81,14.8,4.57,17.81,12.82.69,1.91,1.79,3.08,3.53,3.89,9.72,4.5,18.35,10.73,26.91,17.06,14.07,10.42,30.63,13.12,47.38,15.21,2.78.35,3.91-.86,3.88-3.68-.04-4.66-.24-9.37.38-13.96.53-3.98-.83-5.06-4.51-5.87-18.18-4.01-35.35-10.54-50.71-21.33-12.62-8.87-19.28-20.6-18.69-36.41.33-8.88,1.55-17.52,3.61-26.12,2.44-10.2,6.91-19.77,9.1-30.05,1.04-4.87-1.04-8.08-4.73-10.57-2.64-1.78-5.69-2.68-8.84-3.28-9.26-1.78-18.61-1.49-27.87-.64-32.3,2.95-64.43,7.38-96.61,11.37-15.17,1.88-30.34,3.71-45.65,3.4Zm901.99,27.17c5.32-.24,12.31-.39,19.27-.89,24.11-1.75,46.97-7.39,66.88-21.96,2.06-1.51,5.72-2.62,4.91-5.51-.84-2.99-4.65-2.13-7.1-1.98-22.55,1.38-44.86-1.09-67.18-3.76-25.76-3.09-51.54-6.04-77.35-8.65-12.89-1.3-25.86-2.73-38.82-.49-11.17,1.93-19.58,5.72-13.35,22.06,5.93,15.54,10.72,31.45,10.98,48.43.21,13.54-4.14,24.64-14.61,33.42-13.96,11.71-30.57,17.87-47.65,22.93-9.73,2.88-9.83,2.54-9.51,12.94.4,13.07.45,13.32,13.55,10.42,11.99-2.65,24.3-4.86,34.42-12.54,8.63-6.55,17.41-12.81,27.05-17.76,2.67-1.37,4.42-3.07,5.52-5.94,2.82-7.3,7.87-11.86,16.19-11.64,3.06.08,4.9-1.07,4.39-4.4-1.2-7.86,3.11-12.27,9.71-14.73,5.89-2.19,10.09-6.5,14.71-10.32,1.14-.94,2.53-1.84,1.93-3.67-.65-1.96-2.37-2.08-4.07-2.2-6.85-.51-13.36-2.65-19.91-4.46-6.31-1.75-10.05-8.11-8.43-13.32,2.29-7.36,11.25-13,18.72-11.42,19.16,4.04,38.59,4.85,59.73,5.45Zm-837.42,10.04c-21.48.04-41.56-3.03-60.91-9.19-19-6.05-34.15-17.59-46.81-32.68-.96-1.14-1.77-2.56-.96-4.11.72-1.38,2.19-1.39,3.52-1.37,1.83.03,3.66.11,5.48.33,8.93,1.11,17.92,1.27,26.89,1.67,36.99,1.65,73.12-5.77,109.51-10.41,20.96-2.67,41.92-5.57,63.11-5.17,8.01.15,15.95,1.26,23.08,5.41,7.62,4.43,11.05,13.96,8.16,21.57-4.34,11.44-8.41,22.98-12.02,34.69-6.14,19.92-1.05,36.33,14.62,49.73,11.2,9.58,24.5,14.51,38.71,17.4,8.71,1.77,8.61,1.7,10.08-6.87.68-3.95-.28-5.92-4.51-7.02-12.01-3.12-23.32-7.91-32.8-16.24-5.96-5.23-9.11-11.6-8.7-19.78.5-10.13,3.42-19.62,6.81-29.02,3.55-9.85,7.81-19.45,9.86-29.8,1.92-9.66-.07-17.92-7.44-25.02-8.07-7.77-17.82-11.53-28.48-13.19-18.49-2.87-36.85-.75-55.08,2.59-18.95,3.48-37.63,8.41-56.79,10.84-14.35,1.82-28.75,3.02-43.18,3.88-23.76,1.41-47.5,2.44-71.27,0-4.61-.47-9.22-1.69-13.9-.97-5.08.78-6.39,2.89-5.81,7.91.94,8.13,4.76,14.82,9.98,20.83,17.62,20.31,40.24,32.53,65.96,38.66,29.81,7.11,60.25,8.01,90.75,5.98,9.28-.62,18.5-2.06,27.45-4.86,2.45-.77,4.66-1.84,6.26-3.86,2.75-3.48,1.75-6.26-2.6-7.15-6.16-1.27-12.28-.14-18.34.66-16.82,2.2-33.59,4.85-50.63,4.54Zm828.75,9.04c12.5.33,28.43-1.12,44.26-3.24,28.52-3.83,54.43-13.96,75.86-33.71,9.24-8.51,17.52-17.85,18.68-31.4.35-4.12-1.41-6.03-5.02-6.52-2.27-.31-4.64-.04-6.96.14-6.29.5-12.57,1.45-18.87,1.59-19.97.43-39.94.36-59.91-.79-24.44-1.41-48.76-3.54-72.74-8.73-24.58-5.32-49.26-10.25-74.63-7.48-13.4,1.46-26,4.92-35.13,16.11-4.43,5.43-6.97,11.26-6.36,18.32.66,7.73,3.4,14.88,6.14,22.03,3.93,10.25,8.02,20.44,10.51,31.19,3.72,16.01.12,25.44-13.53,34.68-7.94,5.37-16.81,8.73-25.88,11.59-1.87.59-4.26.64-3.98,3.48.37,3.75.3,7.61,2.08,11.07.17.33,1.56.17,2.34.04,14.94-2.62,29.21-7.2,41.11-16.9,15.61-12.73,22.6-28.6,16.85-49.06-3.35-11.89-8.01-23.26-12.07-34.87-4.23-12.08-.35-20.59,11.26-25.46,8.46-3.55,17.48-4.06,26.48-3.82,27.82.73,55.39,4.27,82.9,8.16,22.25,3.14,44.49,6.32,67.03,6.15,14.75-.11,29.5-.47,44.21-1.69,1.37-.11,3.15-1.24,4.14.46,1.02,1.74-.36,3.18-1.35,4.46-9.08,11.66-19.61,21.75-33.2,27.92-33.5,15.21-68.67,17.28-104.6,12.59-10.39-1.35-20.77-2.88-31.25-3.2-3.17-.1-7.64-.4-8.31,3.67-.67,4.07,3.09,6.23,6.49,7.84.74.35,1.61.42,2.41.64,15.58,4.19,31.51,4.93,51.05,4.73Zm-1025.3,37.41c31.13-1.35,52.3-2.86,73.45-5.5,32.73-4.09,64.51-12.96,96.95-18.41,1.9-.32,4.56-.87,4.6-3.11.05-2.52-2.71-2.46-4.59-2.72-12.7-1.76-25.15-4.67-37.5-8.07-5.09-1.4-10.36-3.37-15.62-1.41-14.12,5.25-28.82,7.92-43.63,10.07-24.7,3.58-49.49,6.31-74.5,6.17-40.96-.23-81.63-4.16-122.13-10.08-17.27-2.52-34.4-5.81-51.19-10.67-10.24-2.97-20.21-6.67-29.84-11.28-1.65-.79-3.46-1.73-5.14-.3-1.63,1.39-1.01,3.22-.71,5.09,1,6.18,3.81,11.23,8.47,15.4,10.43,9.34,23.08,14.38,36.13,18.4,35.1,10.82,71.4,13.86,107.8,15.51,22.4,1.02,44.86,1.85,57.44.9Zm1244.14-4.51c37.14-.02,74.14-2.25,110.82-8.21,21.73-3.53,43.12-8.55,62.52-19.61,8.83-5.03,16.73-11.05,19.02-21.84.43-2.03,1.79-4.38-.45-5.99-1.92-1.38-3.84.2-5.59,1.01-13.94,6.44-28.49,11.18-43.41,14.56-29.23,6.62-58.97,10.06-88.73,13.33-40.96,4.5-81.93,6.03-122.94.66-19.96-2.61-39.95-5.02-59.08-11.83-4.04-1.44-8.36-.95-12.32.29-13.04,4.1-26.31,7.16-39.75,9.61-1.79.33-4.7.05-4.58,2.68.1,2.23,2.86,2.58,4.71,2.96,5.2,1.09,10.49,1.77,15.7,2.83,16.95,3.46,33.84,7.17,50.81,10.51,37.4,7.37,75.26,9.14,113.26,9.04Zm-1283.04,37.67c22.66.34,41.75-1.2,60.77-3.2,35.56-3.74,70.81-9.62,105.87-16.63,14.51-2.9,28.99-6,43.49-8.95,3.42-.7,5.26-2.47,5.21-6.14-.04-3.52,1.02-6.86,1.98-10.24,1.56-5.45-.74-7.66-6.24-6.08-14.7,4.22-29.6,7.65-44.51,11.03-16.18,3.67-32.41,7.37-48.86,9.38-30.06,3.67-60.31,5.09-90.59,5.99-49.35,1.47-98.01-3.5-146.11-14.41-8.43-1.91-16.79-4.1-24.9-7.19-2.85-1.09-6.16-1.48-8.21,1.46-1.98,2.84-.79,5.79,1.15,8.26,1.73,2.21,3.33,4.54,5.67,6.27,11.78,8.71,24.7,15.07,38.93,18.5,36.08,8.7,72.74,12.35,106.33,11.94Zm1292.51-4.81c27.14-.04,55.27-.6,83.08-5.2,19.33-3.2,38.85-5.94,56.77-14.71,8.41-4.12,16.58-8.63,22.73-15.88,2.19-2.58,4.76-5.92,2.23-9.38-2.51-3.42-6.24-2.02-9.59-.8-3.59,1.31-7.09,2.98-10.78,3.84-19.4,4.52-38.88,8.65-58.6,11.64-19.25,2.92-38.56,5.14-58.04,5.56-24.97.53-49.92.32-74.89-.73-32.15-1.35-63.94-5.09-95.37-12.07-16.39-3.64-32.77-7.32-49.05-11.44-5.03-1.27-6.91.66-5.86,5.76.53,2.6,1.19,5.19,1.49,7.82.87,7.64.91,8,8.3,9.5,13.04,2.65,26.1,5.15,39.2,7.52,24.72,4.47,49.36,9.43,74.32,12.48,24.29,2.97,48.61,5.4,74.07,6.11Zm-1238.82,33.94c11.33.21,24.12-.58,36.81-2.26,45.18-5.99,88.85-18.37,132.21-31.94,6.44-2.02,6.89-3.97,2.7-9.08-1.05-1.29-2.32-2.46-3.1-3.9-1.91-3.55-4.65-4.17-8.39-3.34-10.06,2.24-20.16,4.3-30.27,6.3-9.95,1.96-19.88,4.15-29.86,5.76-9.69,1.56-19.19,3.95-28.92,5.35-17.73,2.56-35.35,5.77-53.23,7.49-30.81,2.97-61.59,5.38-92.59,3.8-23.28-1.18-46.45-2.99-69.31-7.83-5-1.06-10.07-2.1-15.22-1.94-1.37.04-3.27-.03-3.88,1.67-.67,1.86,1.15,2.47,2.23,3.42,2.92,2.59,6.41,4.12,9.96,5.57,11.27,4.59,22.94,7.89,34.69,10.95,16.41,4.27,32.96,8.03,49.84,9.72,21.57,2.16,43.2,1.21,66.31.26Zm1216.28-4.21c17.94-.12,35.96.9,53.82-1.67,19.22-2.76,38.08-7.33,56.76-12.5,11.05-3.06,22.08-6.39,32-12.4,1.62-.98,4.05-2.18,3.43-4.38-.66-2.33-3.29-1.66-5.22-1.65-7.06.01-13.71,2.42-20.57,3.63-23.45,4.14-47.14,5.87-70.86,7.02-20.61,1-41.23-.45-61.78-2.02-17.06-1.3-34.13-2.78-51.01-5.71-34.25-5.94-68.52-11.77-102.61-18.52-8.16-1.61-12.84-.22-17.01,6.71-3.08,5.12-3.18,6.72,2.71,8.55,9.84,3.05,19.81,5.69,29.7,8.6,49.18,14.45,98.9,25.53,150.62,24.35Zm-1195.64,25.43c29.59-.57,54.79-2.36,79.86-5.76,24.4-3.32,48.3-9.22,72.39-14.15,9.61-1.97,19.18-4.17,28.73-6.43,1.8-.42,4.33-.31,4.87-2.77.48-2.17-1.63-3.05-2.87-4.32-1.28-1.31-2.58-2.6-3.86-3.91-12.79-13.07-10.49-14.55-30.6-8.21-34.84,10.99-70.16,20.45-106.35,25.96-27.06,4.12-54.24,7.32-81.68,7.33-7.16,0-14.31-.03-21.47.04-2.1.02-5.13-.14-5.57,1.97-.41,1.93,2.6,2.57,4.35,3.31,5.85,2.46,12.03,3.83,18.26,4.82,15.98,2.54,32.07,3,43.93,2.12Zm1154.81-4.49c14.98.37,29.94.42,44.83-1.72,8.43-1.21,16.7-3.01,24.5-6.53,1.27-.57,3.26-1.03,3-2.87-.29-2.06-2.35-1.3-3.7-1.5-1.15-.17-2.33-.16-3.49-.14-23.64.47-47.21-.42-70.73-2.97-20.02-2.17-39.93-4.92-59.62-9.22-28.25-6.17-56.32-13.02-83.82-22.02-5.1-1.67-9.37-.79-13.05,3.37-3.86,4.35-8,8.46-12.08,12.62-1.15,1.17-3.17,2.19-2.27,3.95.84,1.64,2.5,2.84,4.67,3.25,15.19,2.89,30.34,5.92,45.52,8.87,17.39,3.38,34.84,6.49,52.15,10.23,5.17,1.11,10.23.34,15.33,1.01,19.5,2.55,39.14,3.02,58.77,3.67Zm-793.14,104.34c3.88.23,7.65-.51,11.46-.9,3.52-.36,4.31-1.55,2.38-4.78-13.59-22.77-22.5-47.39-28.44-73.14-2.34-10.14-2.32-10.07-12.39-9.43-2.13.14-3.64,1.01-4.37,2.73-5.03,11.92-10.93,23.6-11.26,36.93-.29,11.58.11,23.12,7.48,32.88,8.78,11.63,21.39,15.07,35.14,15.7Zm-287.92-84.01c27.57.52,53.12-4.47,78.6-9.75,13.65-2.83,27.18-6.31,40.7-9.74,6.6-1.67,13.11-3.73,19.55-5.96,4.47-1.55,4.62-3.25,1.12-6.47-1.22-1.13-2.57-2.14-3.68-3.37-4.08-4.52-8.69-4.85-14.47-3.3-25.65,6.9-51.29,13.87-77.57,18.07-27.36,4.38-54.61,9.62-82.38,10.98-5.46.27-11-.05-16.34,1.59-1.49.46-4.01.36-3.79,2.23.2,1.72,2.6,2.47,4.4,2.52,18.43.56,36.71,3.82,53.86,3.19Zm1004.15-3.44c23.95.13,42.24-2.54,60.61-4.14,2.65-.23,7.2-.46,7.16-2.93-.05-2.61-4.45-2.56-7.18-2.68-20.39-.92-40.64-2.85-60.87-5.72-35.73-5.06-71.19-11.46-105.86-21.45-9.65-2.78-15.91.08-22.08,6.48-2.32,2.41-1.91,4.16.83,5.37,3.03,1.34,6.18,2.48,9.37,3.35,18.12,4.93,36.33,9.54,54.77,13.12,22.7,4.41,45.5,8.08,63.24,8.6Zm-231.58,47.74c.41-21.42-5.16-34.84-12.2-47.82-2.52-4.65-6.85-1.93-10.35-2.23-2.92-.25-3.11,2.38-3.52,4.52-5.42,27.95-14.8,54.43-29.48,78.9-1.81,3.02-.2,3.32,1.99,3.74,15.32,2.95,29.41.5,41.55-9.84,10.38-8.84,11.82-21.01,12.02-27.27Zm-651.85-13.82c11.85-.44,23.54-1.82,35-5,22.16-6.15,42.12-17.23,62.37-27.68,1.13-.59,2.85-1.09,2.51-2.67-.37-1.77-2.37-1.77-3.72-1.86-7.63-.53-15.27-.89-22.91-1.28-2.5-.13-4.86.43-7.24,1.29-19.08,6.85-38.14,13.77-58.11,17.75-14.52,2.89-29.02,5.82-43.5,8.88-2.14.45-5.55.57-5.64,3.15-.1,2.94,3.4,3.21,5.67,3.84,11.64,3.24,23.57,3.87,35.57,3.59Zm-75.55-15.89c9.39-.61,19.87-1.08,30.31-2,34.81-3.07,67.21-15.62,100.25-25.65,1.46-.44,3.18-.73,3.1-2.62-.07-1.85-1.74-2.1-3.26-2.45-10.17-2.34-20.19-7.08-30.71-.8-2.63,1.57-5.97,2.01-9.04,2.78-36.94,9.27-74.06,17.62-111.89,22.45-5.27.67-10.57,1.1-15.86,1.65-1.16.12-2.62.27-2.82,1.59-.25,1.7,1.37,2.04,2.62,2.45,1.1.36,2.22.73,3.36.92,10.88,1.82,21.85,2.07,33.93,1.68Zm855.28,12.51c12.8.21,23.19-.82,33.23-4.24,1.43-.49,3.63-.9,3.53-2.98-.1-2.11-2.54-1.71-3.83-2.6-.36-.25-.98-.08-1.47-.18-16.76-3.35-33.55-6.58-50.28-10.1-15.3-3.22-30.25-8.08-44.66-13.81-12.52-4.97-24.5-2.47-36.79-2.01-1.24.05-2.99.1-3.35,1.61-.46,1.91,1.41,2.43,2.67,3.07,7.41,3.78,14.82,7.56,22.29,11.21,25.53,12.49,51.89,21.68,78.67,20.02Zm75.39-16.23c10.12.27,20.27.34,30.22-2.11,1.65-.41,4.28-.7,4.14-2.83-.15-2.23-2.78-1.94-4.47-2.06-28.09-1.97-55.72-7-83.16-13-17.51-3.83-35.51-6.34-52.17-12.95-10.91-4.32-20.1-.1-29.98,1.69-1.19.21-2.69,1-2.44,2.69.19,1.3,1.45,1.69,2.59,2.03,4.77,1.44,9.59,2.75,14.31,4.35,39.23,13.31,78.96,23.88,120.96,22.2Zm-838-67.13c.1,7.04,2.65,12.91,8.25,17.37,5.24,4.17,11.01,7.42,17.1,10.14,1.66.74,3.52,1.8,5.16.46,1.48-1.22.73-3.13.39-4.71-1.07-4.96-1.05-9.87.17-14.82,2.06-8.39,4.17-16.78,5.92-25.24,2.38-11.48-4.9-17.92-15.85-14.26-11.87,3.96-21.19,17.67-21.14,31.06Zm740.92-2.13c0-13.38-8.29-25.6-20.79-30.65-9.22-3.72-17.48,2.13-16.31,11.68.34,2.78,1.35,5.47,1.96,8.22,2.61,11.76,7.02,23.29,4.18,35.74-.82,3.57,1.54,3.79,4.28,2.83,6.5-2.28,12.21-6.03,17.72-10.02,5.97-4.33,9.07-10.32,8.97-17.81Zm-771.75-14.75c.23,6.92,6.37,14.19,13.73,20.74,1.76,1.57,2.75,1.48,3.75-1.25,2.04-5.61,1.35-11.89,4.8-17.15,6.03-9.21,12.3-18.19,20.64-25.51,5.42-4.76,4.86-8.11-1.85-10.77-19.5-7.72-41.09,8.2-41.06,33.94Zm697.4,118.63c-.45-11.26-1.62-21.97-6.87-31.75-2.93-5.46-6.36-10.6-12.17-13.44-1.91-.93-4.07-1.8-6.12-.17-1.94,1.55-1.1,3.56-.89,5.53.47,4.36,3.66,7.64,4.31,12,2.66,17.88,2.65,35.42-5.47,52.15-.88,1.8-1.75,3.71-.31,5.63,1.46,1.96,3.59,1.49,5.52,1.16,7.76-1.34,13.93-4.93,17.7-12.23,3.15-6.1,3.85-12.64,4.3-18.89Zm75.17-156.67c-4.27,0-8.53.87-11.63,2.37-5.76,2.8-5.97,5.62-1.56,10.16,11.69,11.99,24.1,23.61,25.31,41.99.2,3.09,2.17,3.65,4.44,1.69,3.4-2.94,6.25-6.38,8.73-10.16,6.36-9.69,5.71-19.34.27-29.15-5.61-10.11-13.33-16.88-25.56-16.9Zm-666.15,156.24c.2,3.32.21,6.66.62,9.95,1.7,13.6,9.04,22.15,20.39,23.76,2.41.34,5.26,1.04,6.95-1.36,1.56-2.21-.1-4.47-1.02-6.54-8.78-19.88-9.69-40.06-2.34-60.56.45-1.24.92-2.52,1.09-3.81.54-4.14-1.22-5.61-5.19-4.51-5.55,1.54-8.88,5.69-11.69,10.25-6.18,10.04-8.65,21.12-8.8,32.83Zm-107.48-172.94c-10.49.4-19.04,4.1-23.98,14.07-5.93,11.96-1.56,26.17,11.14,35.93,1.42,1.09,2.85,2.79,4.82,1.77,2.01-1.04,1.61-3.34,1.16-4.95-1.59-5.69.64-10.48,3.3-15.1,5.25-9.1,11.39-17.28,22.41-20.02,1.95-.48,3.96-1.62,3.95-3.93-.01-1.88-1.99-2.42-3.48-3.14-6.09-2.96-12.58-4.21-19.32-4.64Zm804.99-2.24c-6.43-.12-12.5,1.5-18.35,4-1.92.82-4.67,1.39-4.76,3.85-.1,2.84,2.9,3.32,4.93,4.21,15.64,6.91,24.86,18.16,24.66,35.93-.01,1.3-.27,2.8,1.15,3.57,1.62.88,2.91-.26,4.03-1.15,3.52-2.8,6.63-6.02,9.16-9.78,5.94-8.85,7.14-18.21,2.15-27.76-4.77-9.12-12.77-13.12-22.97-12.87Zm-703.47,116.53c1.7-.28,4.26,1.53,5.24-.9.78-1.93-1.63-3-2.88-4.23-6.89-6.81-6.71-14.73-3.65-23.08,4.23-11.53-2.18-22.43-14.22-24.39-3.65-.59-5.76.6-6.76,4.05-1.2,4.14-2.48,8.27-3.62,12.43-5.22,19.11,5.84,34.61,25.89,36.11Zm629.3-28.27c-.02-7.95-2.93-15.05-5.21-22.31-1.25-3.98-3.94-4.54-7.4-3.47-9.59,2.96-19.55,12.2-13.13,25.11,3.28,6.59,2.8,13.88-2.4,20.13-1.56,1.87-5.51,3.17-3.75,6.1,1.5,2.49,4.93.44,7.46.32,9.88-.45,26.45-14.33,24.43-25.87Zm-659.81,90.93c.14,1.1.19,2.27.44,3.39,1.68,7.58,10.72,16.11,18.3,17.34,4.19.68,6.84-2.17,5.89-6.33-3.17-13.96-1.67-27.41,4.39-40.37.69-1.47,1.95-3.21.5-4.58-1.62-1.53-3.82-.86-5.5.19-3.64,2.29-7.4,4.51-10.61,7.33-6.95,6.11-12.95,12.95-13.42,23.02Zm663.39-4.45c-.17-2.32-.97-5.34-2.46-8.17-4.92-9.31-12.58-15.71-21.82-20.4-1.59-.81-3.5-1.95-5.06-.33-1.71,1.77-.38,3.7.46,5.49,5.78,12.45,6.87,25.48,4.63,38.87-.74,4.43.43,5.95,5.06,5.75,9.38-.41,19.35-10.98,19.2-21.21Zm-623.87-86.28c.12,15.14,12.78,29.2,27.67,30.69,2.23.22,4.49.51,4.39-2.95-.23-7.65-.41-15.3-.49-22.95-.03-3.14-1.18-4.8-4.5-5.39-6.21-1.11-12.43-2.38-18.22-5.1-6.91-3.25-8.91-1.95-8.85,5.7Zm552.57,14.12c0,3.81.06,7.62-.02,11.44-.05,2.58,1.04,3.52,3.62,3.36,15.39-1,29.6-17.81,28.06-33.28-.48-4.79-2.72-6.2-7.03-4.05-3.45,1.72-7.05,2.91-10.71,3.95q-13.95,3.93-13.92,18.59Zm94.84,71.36c3.44-1.78,8.56-1.44,13.01-3.8,1.23-.65,2.66-1.17,2.56-2.61-.11-1.51-1.72-1.97-3.01-2.15-9.09-1.28-17.67-4.22-26.11-7.72-3.17-1.31-5.08-.16-3.79,3.51,3.42,9.71,6.04,11.98,17.34,12.77Zm-708.92,2.02c9.55-.03,13.3-2.65,15.64-11.5.85-3.23-.02-5.44-3.56-3.97-8.78,3.64-17.75,6.49-27.09,8.24-.94.18-2.12.52-2.33,1.62-.26,1.37.9,2.04,1.93,2.57,4.53,2.35,9.4,3.17,15.4,3.03Zm100.67-73.23c-.03,8.5,4.18,14.64,10.53,16.04,2.57.57,4.13-.21,3.72-2.9-1.15-7.38-2.1-14.76-2.32-22.23-.05-1.67-1.08-3.19-2.89-3.71-2.02-.58-3.52.38-4.8,1.86-2.82,3.27-4.4,7.01-4.24,10.95Zm506.18-.69c.1-4.69-1.29-8.81-4.73-12.09-1.18-1.12-2.44-2.44-4.34-1.54-1.58.74-1.72,2.28-1.86,3.79-.69,7.07-1.33,14.15-2.11,21.21-.42,3.86,1.3,4.3,4.38,3.09,5.03-1.98,8.58-7.87,8.67-14.46Zm-246.95,211.52c3.65,1.27,6.86.15,10.05-1.19.75-.31,2.28.98,2.28-.66,0-1.61-1.5-1.33-2.69-1.17-3.38.47-5.89,3.72-9.64,3.02Zm27.84-4.99c-3.98-.44-6.03,1.68-9.14,3.55,4.26,1.02,6.34-1.03,9.14-3.55Z"/><path class="cls-3" d="m1097.66,650.96c-11.76,0-23.51,0-35.27,0-38.64,0-77.28-.05-115.92.09-3.91.01-6.45-.75-7.06-4.97-.48-3.3-2.62-4.18-5.75-3.94-2.98.23-6.02-.26-8.98.08-6.4.72-11.32-.06-12.44-7.93-.61-4.28-4.59-2.01-7.07-2.31-2.16-.26-4.47-.68-5.68,2.5-2.99,7.85-3.16,7.73-11.46,7.78-8.99.05-18-.15-26.96.45-5.17.34-8.12-1.45-9.88-6.04-.47-1.22-1.26-2.3-2.37-4.27-1.89,5.31-3.97,9.82-5.01,14.55-.76,3.49-2.39,4.14-5.47,4.14-36.47.04-72.93.19-109.4.28-14.78.04-29.55,0-44.33,0-.15.44-.3.88-.44,1.32,5.62,4.18,11.24,8.37,16.87,12.55,35.77,26.63,71.52,53.29,107.36,79.84,3.16,2.34,3.89,4.55,2.67,8.39-10.9,34.4-21.57,68.87-32.36,103.3-4.75,15.17-9.63,30.31-14.52,45.67,3.31.36,5.46-2.03,7.65-3.68,14.19-10.62,28.21-21.47,42.34-32.16,19.26-14.57,38.56-29.09,57.87-43.59,1.58-1.19,2.51-2.39,2.49-4.5-.25-42.63-.49-85.27-.56-127.9,0-4.04-1.37-5.08-5.18-4.86-5.31.31-10.67.27-15.98,0-4.41-.23-6.88,1.64-8.09,5.73-1.08,3.67-2.39,7.27-3.46,10.94-.72,2.47-2.15,3.39-4.74,3.34-6.66-.14-13.32-.17-19.98,0-3.2.08-3.91-1.34-3.89-4.22.1-12.32.11-24.65-.03-36.97-.04-3.24.96-4.24,4.29-4.25,49.63-.1,99.26-.3,148.88-.59,3.3-.02,4.74.67,4.68,4.37-.19,12.32-.14,24.65.07,36.97.06,3.56-1.19,4.68-4.61,4.57-6.32-.19-12.66-.16-18.98-.03-2.85.06-4.22-.79-4.47-3.86-.31-3.96-1.19-7.88-1.78-11.83-.45-3.02-2.23-4.2-5.19-4.17-7.33.09-14.66.25-21.98.02-3.37-.11-4.31,1.02-4.24,4.25.19,8.99.13,17.99.14,26.98.05,32.64.13,65.29.06,97.93,0,4.15,1.18,6.56,4.75,9.3,32.75,25.12,66.32,49.12,99.46,73.7,6.65,4.93,6.75,4.92.13,9.52-34,23.64-71.71,36.37-113.06,38.35-7.14.34-14.32.94-21.44.6-23.24-1.11-45.63-6.19-67.18-15.04-17.54-7.21-34.62-15.53-49.67-26.98-19.52-14.85-36.68-32.29-50.84-52.52-23.63-33.76-37.36-71.15-41.05-112.12-5.35-59.32,9.18-113.5,44.96-161.14,36.97-49.24,86.28-79.38,147.54-87.39,61.09-7.98,116.11,8.08,164.19,46.93,20,16.16,36.61,35.39,50,57.28,20.04,32.76,31.37,68.37,33.63,106.77,2.58,43.86-5.72,85.43-26.29,124.41-15,28.42-35.23,52.48-60.05,72.8-3.11,2.55-4.03,2.02-5.15-1.58-4.19-13.51-8.54-26.96-13.02-40.38-3.55-10.65-7.49-21.21-10.61-31.95-7.27-24.99-15.46-49.68-23.23-74.5-1.02-3.26.78-4.5,2.82-6.04,36.51-27.61,73-55.24,109.5-82.87,4.36-3.3,8.69-6.65,13.04-9.98l-.27-1.14Zm-223.29-24.35c.79-1.56,1.12-2.1,1.34-2.67,5.18-13.5,10.49-26.95,15.42-40.54,1.46-4.02,3.25-5.98,7.82-5.53,4.78.46,9.64-.05,14.46.1,3.36.11,4.31-.64,3.14-4.23-5.66-17.37-10.91-34.88-16.59-52.24-2.66-8.12-4.48-16.54-8.5-25.58-1.44,4.14-2.59,7.15-3.56,10.23-6.22,19.78-12.42,39.57-18.56,59.38-1.21,3.91-4.47,8.77-2.51,11.61,1.72,2.5,7.47.89,11.4.69,4.54-.23,4.82,1.1,2.57,4.57-5.15,7.95-10.14,16.01-15.19,24.03-.87,1.38-2.07,2.64-.9,4.5,3.08,4.91,6.08,9.86,9.65,15.68Zm154.29,11.21c11.46,0,20.71-4.34,24.76-12.81,4.92-10.3,5.37-20.89-1.02-30.94-7.16-11.27-25.69-15.03-39.12-7.98-6.67,3.5-11.23,8.86-12.71,16.37-4.08,20.66,6.48,35.69,28.09,35.36Zm-102.76-1.49c1.41,0,2.07,0,2.74,0q5.95-.06,3.91-5.47c-4.38-11.68-8.72-23.38-13.15-35.05-4.64-12.22-4.68-12.09-17.78-12-3.18.02-4.75,1.03-5.84,3.98-4.66,12.63-9.43,25.22-14.33,37.76-4.74,12.15-4.72,12.21,8.59,10.9,1.92-.19,3.38-.76,3.6-2.69.91-8.11,6.33-8.83,12.81-8.1,1.81.2,3.68.21,5.49,0,3.08-.36,4.75.93,5.21,3.9.86,5.51,3.61,8.34,8.76,6.78Zm40.21,1.43c10.01.09,18.08-2.59,22.94-11.31,4.05-7.26,3.26-8.47-4.92-8.57-.33,0-.67.02-1-.03-3.77-.49-6.13.15-7.76,4.56-2.53,6.85-12.11,7.56-16.99,1.85-5.47-6.39-5.33-21.89.26-28.13,4.44-4.95,13.28-5.38,15.96.11,2.52,5.15,6.07,5.16,10.43,5.09,6.79-.11,7.5-1.33,4.22-7.53-7.37-13.92-33.19-15.57-43.91-2.64-8.07,9.72-8.57,20.81-3.78,31.92,4.63,10.72,14.05,14.43,24.55,14.68Zm-187.54-27.34c.1,0,.2,0,.3,0,0,7.49.08,14.98-.04,22.46-.04,2.63.55,3.95,3.55,3.89,10.31-.21,20.63-.3,30.95-.26,5.15.02,2.89-3.75,3.25-6.06.37-2.35.49-4.69-3.26-4.54-5.65.23-11.32-.07-16.97.18-3.44.15-4.13-1.66-3.56-4.29.56-2.58-2.28-6.98,3.38-7.11,3.83-.09,7.67-.25,11.48,0,3.61.24,5.23-.78,4.84-4.7-.31-3.13.58-6.55-4.63-6-3.45.37-6.99-.07-10.47.1-3.11.15-4.9-.29-4.81-4.2.08-3.74.86-5.48,5.01-5.21,4.97.32,10-.25,14.96.08,5.11.34,3.89-3.08,4.12-5.89.24-3.05-.13-4.98-4.11-4.82-9.96.4-19.95.53-29.92.48-3.43-.02-4.21,1.31-4.13,4.41.17,7.15.05,14.31.05,21.46Zm70.73,10.99c2.45,4.28,4.85,8.24,7.02,12.33,1.07,2.02,2.41,2.94,4.73,2.79,2.82-.18,5.66-.12,8.48-.1,2.93.02,3.49-.89,1.83-3.48-4.3-6.72-8.36-13.6-12.62-20.35-1.41-2.23-1.47-3.97.08-6.31,4.14-6.23,7.93-12.69,11.82-19.08.86-1.41,2.15-2.91-1.04-3.35-8.94-1.25-11.76.03-16.41,7.91-.34.57-.68,1.15-1.06,1.69-1,1.41-1.1,4.11-3.22,3.87-1.78-.2-2.67-2.52-3.18-4.18-2.44-7.88-7.8-10.41-15.54-9.02-.48.09-1,.03-1.5,0-2.66-.11-3.37.74-1.79,3.17,4.09,6.26,7.95,12.67,12.16,18.85,1.69,2.47,1.57,4.42.04,6.79-3.98,6.14-7.89,12.33-11.71,18.58-.87,1.43-2.63,2.64-1.84,4.99,2.34,0,4.71-.29,6.97.06,5.22.81,8.28-1.44,10.49-6.01,1.55-3.2,3.27-6.45,6.28-9.14Zm-95.5-5.27s-.05,0-.07,0c0-2.99,0-5.99,0-8.98.04-11.32.05-11.41,11.54-11.47,2.9-.02,4.74-.7,4.03-3.82-.59-2.6,2.6-7.22-3.63-7.16-12.94.13-25.89.11-38.83.14-1.52,0-2.4.5-2.82,2.13-1.69,6.47.06,8.87,6.6,8.82,1.66-.01,3.34.07,4.99-.1,3.01-.3,4.19.94,4.17,3.96-.05,9.15.11,18.29.12,27.44.02,10.34-.01,10.21,10.15,9.79,3.21-.13,3.88-1.46,3.8-4.29-.15-5.48-.04-10.98-.04-16.46Zm177.36,267.62h-1.16c-.63-2.29-1.33-4.57-1.85-6.88-.41-1.84-1.39-2.43-3.2-2.18-1.84.26-1.93,1.51-1.94,2.91-.01,2.33-.22,4.68.02,6.98.2,1.91-1.41,5.22,1.56,5.37,2.62.13.42-3.43,1.71-4.88.15-.17.5-.18,1.04-.35.26.79.48,1.56.75,2.3.48,1.3.24,3.31,2.45,3.08,1.69-.18,1.63-1.8,2.06-3.04.47-1.35.11-3.16,2.27-4.21,0,1.83-.01,3.3,0,4.78.01,1.16-.13,2.56,1.63,2.41,1.28-.11,1.34-1.28,1.35-2.29.02-3.49.04-6.98.02-10.48,0-1.49-.49-2.55-2.28-2.58-1.56-.03-2.52.47-2.85,2.09-.47,2.33-1.05,4.64-1.58,6.96Zm-87.1-1.57h.08c0,1.99-.02,3.97,0,5.96.01,1.01.1,2.09,1.41,2.21,1.31.12,1.58-.85,1.71-1.92.21-1.63-.75-3.88,2.23-4.05,3.02-.17,3.59,1.65,3.6,4.1,0,1.12.61,1.86,1.81,1.94.75.05,1.44-.31,1.36-1.05-.41-3.83-.62-7.64-.06-11.49.1-.67-.91-1.85-1.69-2.24-2.93-1.47-6.36-1.43-9.19-.65-2.64.74-.93,4.04-1.25,6.19-.05.32,0,.66,0,.99Zm46.51,3.94c-.05-.86.08-1.91-.22-2.82-.54-1.63-2.08-1.34-3.37-1.34-.98,0-2.09-.05-2.63.99-.34.67.05,1.22.75,1.53.87.38,2.83-.13,1.9,1.85-.6,1.27-1.94,1.78-3.38,1.59-1.99-.26-3.44-1.28-3.88-3.31-.52-2.4-.21-4.69,1.69-6.42,1.4-1.27,3.02-1.2,4.57-.15,1.26.85,2.91,2.88,3.87.58.71-1.68-1.5-3.21-3.25-3.73-3.88-1.16-7.29-.44-9.32,3.46-1.96,3.76-.59,9.93,2.38,11.79,3.51,2.2,6.89-.61,10.39-.26.79.08.31-2.36.51-3.76Zm-29.53-3.44c.12,7.83.12,7.94,5.51,7.77,1.97-.06,5.53,1.15,5.59-1.13.08-2.91-3.4-1.18-5.29-1.49-1.57-.26-2.54-.78-2.46-2.43.08-1.5,1.2-1.81,2.47-1.81.83,0,1.66.03,2.49-.03.98-.07,2.18-.08,2.04-1.49-.1-.98-1.09-1.01-1.91-1.2-1.73-.39-4.88,1.14-4.79-1.76.09-2.83,3.2-1.07,4.92-1.52.47-.13.99-.06,1.48-.15.74-.14,1.19-.67,1.08-1.38-.06-.42-.52-1.11-.8-1.11-3.13-.04-6.45-.57-9.34.29-1.98.58-.69,3.57-.96,5.46-.09.65-.02,1.33-.02,1.99Zm46.6-7.91c-.83,0-1.66-.05-2.48.01-1.25.1-3.08-.57-3.47,1.06-.5,2.04,1.41,1.77,2.64,1.83,1.78.08,1.59,1.32,1.6,2.46.02,2.15-.06,4.31.09,6.46.09,1.33-.74,3.49,1.44,3.6,2.25.11,1.6-2.04,1.68-3.4.1-1.82-.01-3.64.07-5.46.07-1.73-.45-3.85,2.4-3.99.91-.04,2.26.05,1.97-1.46-.24-1.24-1.46-1.11-2.45-1.11-1.16,0-2.32,0-3.48.01Z"/><path class="cls-3" d="m58.13,577.62c7.19,4.94,14.61,8.16,22.02,11.17,34.38,13.96,70.41,21.16,107.05,25.96,42.08,5.51,84.2,5.67,126.46,2.34,7.41-.58,14.73-1.74,22.12-2.28,7.63-.55,15.22-1.42,22.7-3.13,5.37-1.23,8.47,3.19,12.48,5.22,2.84,1.45,7.28,3.28,6.58,6.51-.71,3.27-5.62,3.43-8.83,4.13-23.76,5.19-47.78,8.42-72.09,9.7-19.64,1.04-39.27,1.01-58.89.08-20.61-.97-41.16-2.93-61.62-5.64-10.87-1.44-21.76-2.91-32.52-4.98-17.52-3.37-35.24-6.13-52.07-12.34-13.65-5.04-26.56-11.49-37.27-21.69-6.35-6.04-9.67-13.31-10.1-22.07-.16-3.3-.95-6.57-1.51-9.85-.91-5.32,1.55-7.82,6.75-6.2,6.98,2.17,13.8,4.83,20.69,7.29,25.95,9.24,52.82,14.81,79.81,19.84,21.25,3.95,42.66,6.89,64.2,8.82,37.84,3.38,75.44,2.43,112.65-5.96,8.02-1.81,9.48-1.19,14.1,5.64,1.58,2.33,3.2,4.65,4.97,6.84,3.57,4.42,3.17,6.09-2.56,7.1-8.18,1.45-16.42,2.72-24.68,3.52-48.69,4.72-97.34,4.28-145.91-1.82-23.07-2.9-45.75-7.67-68.28-13.38-14.01-3.55-26.94-9.98-40.77-13.9-1.54-.44-2.98-1.39-5.47-.92Z"/><path class="cls-3" d="m1714.59,573.32c-8.2.64-15.5,4.29-23.12,6.78-14.18,4.64-28.51,8.48-43.04,11.94-12.64,3.01-25.32,5.51-38.09,7.6-22.85,3.72-45.9,5.34-69.02,6.39-28.32,1.29-56.55.28-84.75-2.17-7.94-.69-15.84-1.92-23.72-3.17-5.1-.81-5.54-2.48-2.35-6.52,2.27-2.87,4.68-5.68,6.53-8.81,2.64-4.47,6.4-5.51,11.07-4.5,31.6,6.88,63.62,8.56,95.79,6.74,25.91-1.47,51.51-5.8,77.09-10.09,25.06-4.21,49.81-9.83,74.24-16.79,9.22-2.63,18.2-6.11,27.32-9.14,1.41-.47,2.92-.82,4.39-.86,2.31-.07,3.45.22,3.64,3.58,1.31,24.11-12.61,37.42-32.12,47.35-15.25,7.76-31.43,12.5-48.06,15.96-16.27,3.39-32.62,6.32-49.09,8.59-38.42,5.28-76.92,8.69-115.77,7.32-26.51-.93-52.76-3.5-78.53-10.03-2.48-.63-6.18-.52-6.64-3.44-.43-2.74,3.04-4.04,5.03-5.65,6.19-5.02,12.7-6.82,21.14-5.13,15.64,3.14,31.67,3.77,47.63,4.72,17.96,1.07,35.92,1.05,53.89,1.02,23.33-.03,46.41-2.85,69.4-6.36,31.78-4.85,63.03-11.95,93.08-23.64,8.3-3.23,16.59-6.56,24.1-11.68Z"/><path class="cls-3" d="m404.63,584.68c15.32.31,30.48-1.52,45.65-3.4,32.18-3.99,64.31-8.41,96.61-11.37,9.26-.85,18.61-1.13,27.87.64,3.14.6,6.2,1.51,8.84,3.28,3.69,2.49,5.77,5.7,4.73,10.57-2.19,10.28-6.66,19.85-9.1,30.05-2.06,8.6-3.28,17.24-3.61,26.12-.59,15.81,6.07,27.54,18.69,36.41,15.36,10.8,32.53,17.33,50.71,21.33,3.68.81,5.04,1.89,4.51,5.87-.62,4.59-.42,9.3-.38,13.96.03,2.81-1.11,4.02-3.88,3.68-16.75-2.08-33.31-4.79-47.38-15.21-8.56-6.34-17.19-12.56-26.91-17.06-1.74-.81-2.84-1.98-3.53-3.89-3-8.25-8.19-13.63-17.81-12.82-2.82.24-3.59-1.14-3.46-3.99.38-8.26-2.12-12.12-9.98-15.32-5.67-2.31-10.15-6.27-14.92-9.86-1.12-.84-2.63-1.89-1.92-3.67.61-1.52,2.16-2.12,3.67-2.25,6.5-.56,12.65-2.65,18.94-4.15,5.1-1.22,8.59-4.22,10.26-9.19,1.77-5.26-1.68-8.5-4.88-11.64-4.29-4.2-9.05-5.52-15.42-4.33-36.59,6.84-73.3,8.75-109.96.41-14.31-3.25-27.11-9.94-39.01-18.41-1.29-.92-3.24-1.87-2.56-3.8.61-1.73,2.64-1.93,4.28-1.95,6.65-.08,13.31-.03,19.96-.03Z"/><path class="cls-3" d="m1306.61,611.84c-21.14-.61-40.58-1.41-59.73-5.45-7.48-1.58-16.43,4.06-18.72,11.42-1.62,5.21,2.12,11.58,8.43,13.32,6.55,1.81,13.06,3.95,19.91,4.46,1.7.13,3.42.25,4.07,2.2.61,1.83-.78,2.72-1.93,3.67-4.63,3.83-8.83,8.13-14.71,10.32-6.61,2.46-10.91,6.86-9.71,14.73.51,3.33-1.33,4.48-4.39,4.4-8.33-.22-13.37,4.33-16.19,11.64-1.11,2.87-2.85,4.56-5.52,5.94-9.64,4.95-18.42,11.21-27.05,17.76-10.12,7.68-22.42,9.89-34.42,12.54-13.1,2.89-13.15,2.65-13.55-10.42-.32-10.4-.22-10.06,9.51-12.94,17.09-5.06,33.69-11.22,47.65-22.93,10.47-8.78,14.82-19.88,14.61-33.42-.26-16.98-5.06-32.89-10.98-48.43-6.23-16.34,2.18-20.12,13.35-22.06,12.96-2.24,25.94-.81,38.82.49,25.81,2.6,51.59,5.56,77.35,8.65,22.32,2.67,44.63,5.14,67.18,3.76,2.45-.15,6.25-1.01,7.1,1.98.82,2.89-2.84,4-4.91,5.51-19.9,14.57-42.77,20.21-66.88,21.96-6.96.51-13.95.66-19.27.89Z"/><path class="cls-3" d="m469.19,621.88c17.04.32,33.81-2.33,50.63-4.53,6.07-.79,12.19-1.93,18.34-.66,4.34.9,5.35,3.67,2.6,7.15-1.6,2.02-3.8,3.09-6.26,3.86-8.95,2.79-18.17,4.24-27.45,4.86-30.5,2.03-60.94,1.13-90.75-5.98-25.71-6.13-48.34-18.34-65.96-38.66-5.21-6.01-9.04-12.7-9.98-20.83-.58-5.02.73-7.12,5.81-7.91,4.68-.72,9.29.49,13.9.97,23.76,2.44,47.51,1.41,71.27,0,14.44-.86,28.84-2.06,43.18-3.88,19.15-2.43,37.83-7.37,56.79-10.84,18.23-3.34,36.58-5.46,55.08-2.59,10.66,1.65,20.41,5.42,28.48,13.19,7.37,7.1,9.36,15.36,7.44,25.02-2.06,10.35-6.31,19.95-9.86,29.8-3.39,9.4-6.31,18.89-6.81,29.02-.4,8.18,2.75,14.55,8.7,19.78,9.48,8.33,20.79,13.11,32.8,16.24,4.22,1.1,5.19,3.06,4.51,7.02-1.48,8.57-1.38,8.64-10.08,6.87-14.2-2.89-27.51-7.82-38.71-17.4-15.66-13.4-20.76-29.81-14.62-49.73,3.61-11.71,7.67-23.25,12.02-34.69,2.89-7.61-.54-17.14-8.16-21.57-7.13-4.15-15.07-5.26-23.08-5.41-21.2-.4-42.15,2.49-63.11,5.17-36.39,4.64-72.52,12.06-109.51,10.41-8.97-.4-17.96-.57-26.89-1.67-1.81-.22-3.65-.3-5.48-.33-1.33-.02-2.81,0-3.52,1.37-.81,1.55,0,2.96.96,4.11,12.67,15.09,27.81,26.63,46.81,32.68,19.35,6.16,39.43,9.24,60.91,9.19Z"/><path class="cls-3" d="m1297.94,630.92c-19.54.2-35.47-.54-51.05-4.73-.8-.22-1.67-.29-2.41-.64-3.4-1.61-7.16-3.77-6.49-7.84.67-4.07,5.13-3.77,8.31-3.67,10.48.33,20.86,1.85,31.25,3.2,35.93,4.68,71.1,2.61,104.6-12.59,13.59-6.17,24.12-16.26,33.2-27.92.99-1.27,2.38-2.71,1.35-4.46-1-1.7-2.78-.57-4.14-.46-14.71,1.22-29.46,1.58-44.21,1.69-22.54.17-44.78-3.01-67.03-6.15-27.51-3.89-55.08-7.43-82.9-8.16-9-.24-18.02.27-26.48,3.82-11.61,4.87-15.48,13.37-11.26,25.46,4.06,11.61,8.73,22.98,12.07,34.87,5.75,20.45-1.23,36.32-16.85,49.06-11.9,9.7-26.16,14.29-41.11,16.9-.79.14-2.17.3-2.34-.04-1.77-3.46-1.71-7.32-2.08-11.07-.28-2.84,2.11-2.89,3.98-3.48,9.07-2.86,17.94-6.22,25.88-11.59,13.65-9.24,17.24-18.67,13.53-34.68-2.49-10.75-6.59-20.94-10.51-31.19-2.74-7.15-5.48-14.3-6.14-22.03-.61-7.06,1.93-12.89,6.36-18.32,9.13-11.19,21.73-14.64,35.13-16.11,25.37-2.77,50.05,2.16,74.63,7.48,23.98,5.19,48.3,7.32,72.74,8.73,19.97,1.16,39.94,1.22,59.91.79,6.3-.14,12.58-1.09,18.87-1.59,2.31-.18,4.69-.45,6.96-.14,3.61.49,5.37,2.4,5.02,6.52-1.16,13.56-9.44,22.89-18.68,31.4-21.43,19.75-47.33,29.88-75.86,33.71-15.84,2.13-31.76,3.57-44.26,3.24Z"/><path class="cls-3" d="m272.65,668.33c-12.58.94-35.04.12-57.44-.9-36.4-1.66-72.7-4.69-107.8-15.51-13.05-4.03-25.7-9.07-36.13-18.4-4.66-4.17-7.47-9.23-8.47-15.4-.3-1.86-.92-3.7.71-5.09,1.68-1.43,3.5-.49,5.14.3,9.63,4.61,19.59,8.31,29.84,11.28,16.79,4.86,33.92,8.15,51.19,10.67,40.49,5.92,81.16,9.85,122.13,10.08,25.01.14,49.8-2.59,74.5-6.17,14.81-2.15,29.5-4.82,43.63-10.07,5.26-1.95,10.53.01,15.62,1.41,12.35,3.4,24.8,6.31,37.5,8.07,1.88.26,4.64.2,4.59,2.72-.05,2.24-2.71,2.79-4.6,3.11-32.44,5.45-64.22,14.31-96.95,18.41-21.15,2.65-42.32,4.16-73.45,5.5Z"/><path class="cls-3" d="m1516.78,663.82c-38,.1-75.86-1.67-113.26-9.04-16.97-3.34-33.86-7.05-50.81-10.51-5.21-1.06-10.5-1.75-15.7-2.83-1.85-.39-4.61-.73-4.71-2.96-.12-2.63,2.79-2.36,4.58-2.68,13.44-2.44,26.7-5.51,39.75-9.61,3.96-1.24,8.28-1.73,12.32-.29,19.13,6.81,39.12,9.21,59.08,11.83,41.01,5.37,81.98,3.84,122.94-.66,29.76-3.27,59.5-6.71,88.73-13.33,14.92-3.38,29.47-8.12,43.41-14.56,1.75-.81,3.67-2.38,5.59-1.01,2.24,1.61.88,3.96.45,5.99-2.29,10.79-10.19,16.81-19.02,21.84-19.4,11.06-40.79,16.08-62.52,19.61-36.68,5.96-73.68,8.19-110.82,8.21Z"/><path class="cls-3" d="m233.74,701.48c-33.59.41-70.25-3.24-106.33-11.94-14.23-3.43-27.15-9.79-38.93-18.5-2.34-1.73-3.93-4.06-5.67-6.27-1.94-2.47-3.13-5.43-1.15-8.26,2.05-2.94,5.37-2.54,8.21-1.46,8.11,3.09,16.47,5.28,24.9,7.19,48.1,10.91,96.76,15.88,146.11,14.41,30.28-.9,60.52-2.32,90.59-5.99,16.45-2.01,32.67-5.71,48.86-9.38,14.91-3.38,29.8-6.82,44.51-11.03,5.5-1.58,7.79.63,6.24,6.08-.96,3.37-2.03,6.71-1.98,10.24.05,3.67-1.79,5.44-5.21,6.14-14.5,2.96-28.98,6.05-43.49,8.95-35.06,7.01-70.31,12.89-105.87,16.63-19.02,2-38.11,3.53-60.77,3.2Z"/><path class="cls-3" d="m1526.26,696.67c-25.46-.71-49.78-3.14-74.07-6.11-24.97-3.05-49.6-8.01-74.32-12.48-13.09-2.36-26.16-4.87-39.2-7.52-7.39-1.5-7.44-1.86-8.3-9.5-.3-2.63-.95-5.22-1.49-7.82-1.05-5.1.83-7.03,5.86-5.76,16.28,4.11,32.66,7.79,49.05,11.44,31.44,6.98,63.22,10.73,95.37,12.07,24.97,1.05,49.92,1.26,74.89.73,19.48-.42,38.78-2.64,58.04-5.56,19.72-2.99,39.2-7.12,58.6-11.64,3.69-.86,7.19-2.53,10.78-3.84,3.34-1.22,7.08-2.62,9.59.8,2.54,3.46-.04,6.81-2.23,9.38-6.15,7.25-14.31,11.76-22.73,15.88-17.93,8.77-37.44,11.51-56.77,14.71-27.82,4.61-55.94,5.16-83.08,5.2Z"/><path class="cls-3" d="m287.44,730.62c-23.11.95-44.75,1.9-66.31-.26-16.88-1.69-33.43-5.45-49.84-9.72-11.75-3.06-23.42-6.36-34.69-10.95-3.56-1.45-7.05-2.98-9.96-5.57-1.08-.96-2.89-1.56-2.23-3.42.61-1.7,2.51-1.63,3.88-1.67,5.16-.16,10.22.88,15.22,1.94,22.86,4.84,46.03,6.64,69.31,7.83,31,1.58,61.78-.83,92.59-3.8,17.88-1.72,35.5-4.94,53.23-7.49,9.72-1.4,19.23-3.8,28.92-5.35,9.98-1.6,19.92-3.79,29.86-5.76,10.11-2,20.21-4.06,30.27-6.3,3.74-.83,6.48-.22,8.39,3.34.77,1.44,2.04,2.62,3.1,3.9,4.18,5.11,3.74,7.07-2.7,9.08-43.36,13.57-87.03,25.95-132.21,31.94-12.69,1.68-25.48,2.47-36.81,2.26Z"/><path class="cls-3" d="m1503.72,726.41c-51.72,1.18-101.44-9.89-150.62-24.35-9.89-2.91-19.86-5.55-29.7-8.6-5.89-1.83-5.78-3.43-2.71-8.55,4.16-6.93,8.85-8.32,17.01-6.71,34.09,6.75,68.37,12.58,102.61,18.52,16.87,2.93,33.95,4.41,51.01,5.71,20.55,1.57,41.17,3.02,61.78,2.02,23.72-1.15,47.41-2.89,70.86-7.02,6.85-1.21,13.51-3.62,20.57-3.63,1.93,0,4.56-.68,5.22,1.65.62,2.2-1.81,3.39-3.43,4.38-9.92,6.02-20.96,9.34-32,12.4-18.69,5.17-37.55,9.74-56.76,12.5-17.86,2.57-35.88,1.55-53.82,1.67Z"/><path class="cls-3" d="m308.08,751.84c-11.86.88-27.94.42-43.93-2.12-6.23-.99-12.41-2.36-18.26-4.82-1.75-.74-4.76-1.38-4.35-3.31.44-2.1,3.47-1.95,5.57-1.97,7.16-.07,14.31-.04,21.47-.04,27.45-.01,54.63-3.21,81.68-7.33,36.19-5.51,71.51-14.97,106.35-25.96,20.11-6.34,17.8-4.86,30.6,8.21,1.28,1.31,2.57,2.6,3.86,3.91,1.24,1.26,3.34,2.15,2.87,4.32-.54,2.46-3.08,2.35-4.87,2.77-9.55,2.26-19.12,4.46-28.73,6.43-24.09,4.93-47.99,10.84-72.39,14.15-25.08,3.41-50.28,5.2-79.86,5.76Z"/><path class="cls-3" d="m1462.89,747.35c-19.63-.65-39.27-1.12-58.77-3.67-5.1-.67-10.16.11-15.33-1.01-17.31-3.73-34.76-6.84-52.15-10.23-15.17-2.95-30.33-5.98-45.52-8.87-2.17-.41-3.83-1.61-4.67-3.25-.9-1.76,1.12-2.78,2.27-3.95,4.08-4.16,8.22-8.27,12.08-12.62,3.68-4.16,7.96-5.04,13.05-3.37,27.5,9,55.57,15.86,83.82,22.02,19.69,4.3,39.6,7.05,59.62,9.22,23.52,2.55,47.09,3.44,70.73,2.97,1.16-.02,2.35-.03,3.49.14,1.35.2,3.41-.55,3.7,1.5.26,1.84-1.73,2.3-3,2.87-7.8,3.51-16.08,5.32-24.5,6.53-14.88,2.14-29.85,2.09-44.83,1.72Z"/><path class="cls-3" d="m669.75,851.69c-13.76-.63-26.37-4.07-35.14-15.7-7.37-9.76-7.77-21.3-7.48-32.88.33-13.33,6.23-25.02,11.26-36.93.73-1.72,2.24-2.6,4.37-2.73,10.08-.64,10.06-.71,12.39,9.43,5.94,25.76,14.85,50.37,28.44,73.14,1.92,3.22,1.14,4.42-2.38,4.78-3.81.39-7.58,1.13-11.46.9Z"/><path class="cls-3" d="m381.84,767.68c-17.15.63-35.43-2.63-53.86-3.19-1.8-.05-4.21-.8-4.4-2.52-.21-1.87,2.31-1.78,3.79-2.23,5.33-1.64,10.88-1.32,16.34-1.59,27.77-1.36,55.02-6.6,82.38-10.98,26.28-4.2,51.93-11.17,77.57-18.07,5.78-1.55,10.39-1.22,14.47,3.3,1.11,1.23,2.45,2.24,3.68,3.37,3.5,3.22,3.35,4.92-1.12,6.47-6.43,2.23-12.95,4.28-19.55,5.96-13.52,3.43-27.05,6.92-40.7,9.74-25.48,5.27-51.03,10.26-78.6,9.75Z"/><path class="cls-3" d="m1385.99,764.24c-17.74-.52-40.54-4.19-63.24-8.6-18.44-3.59-36.65-8.19-54.77-13.12-3.19-.87-6.34-2.01-9.37-3.35-2.74-1.21-3.15-2.96-.83-5.37,6.17-6.4,12.42-9.26,22.08-6.48,34.67,9.99,70.13,16.39,105.86,21.45,20.23,2.86,40.49,4.8,60.87,5.72,2.73.12,7.13.07,7.18,2.68.04,2.47-4.51,2.7-7.16,2.93-18.37,1.6-36.67,4.27-60.61,4.14Z"/><path class="cls-3" d="m1154.41,811.98c-.2,6.26-1.64,18.43-12.02,27.27-12.14,10.34-26.22,12.79-41.55,9.84-2.19-.42-3.8-.72-1.99-3.74,14.68-24.47,24.06-50.96,29.48-78.9.42-2.14.6-4.77,3.52-4.52,3.51.3,7.83-2.42,10.35,2.23,7.03,12.98,12.61,26.4,12.2,47.82Z"/><path class="cls-3" d="m502.56,798.16c-12,.28-23.93-.34-35.57-3.59-2.27-.63-5.77-.9-5.67-3.84.09-2.58,3.5-2.69,5.64-3.15,14.48-3.06,28.99-5.99,43.5-8.88,19.96-3.98,39.02-10.9,58.11-17.75,2.38-.85,4.73-1.41,7.24-1.29,7.64.39,15.28.74,22.91,1.28,1.35.09,3.35.09,3.72,1.86.34,1.59-1.38,2.09-2.51,2.67-20.24,10.45-40.2,21.53-62.37,27.68-11.46,3.18-23.15,4.55-35,5Z"/><path class="cls-3" d="m427.01,782.26c-12.07.39-23.04.14-33.93-1.68-1.14-.19-2.26-.56-3.36-.92-1.25-.41-2.87-.75-2.62-2.45.19-1.32,1.65-1.46,2.82-1.59,5.29-.56,10.59-.98,15.86-1.65,37.83-4.83,74.95-13.18,111.89-22.45,3.06-.77,6.4-1.21,9.04-2.78,10.52-6.27,20.54-1.53,30.71.8,1.51.35,3.19.6,3.26,2.45.08,1.9-1.64,2.18-3.1,2.62-33.04,10.03-65.44,22.58-100.25,25.65-10.44.92-20.92,1.4-30.31,2Z"/><path class="cls-3" d="m1282.29,794.77c-26.78,1.66-53.14-7.54-78.67-20.02-7.47-3.65-14.88-7.43-22.29-11.21-1.25-.64-3.13-1.16-2.67-3.07.36-1.51,2.11-1.57,3.35-1.61,12.29-.45,24.28-2.96,36.79,2.01,14.41,5.73,29.36,10.59,44.66,13.81,16.73,3.52,33.52,6.75,50.28,10.1.49.1,1.11-.07,1.47.18,1.29.89,3.73.49,3.83,2.6.1,2.07-2.1,2.49-3.53,2.98-10.04,3.42-20.43,4.45-33.23,4.24Z"/><path class="cls-3" d="m1357.68,778.54c-42,1.68-81.73-8.89-120.96-22.2-4.72-1.6-9.53-2.92-14.31-4.35-1.14-.34-2.39-.73-2.59-2.03-.25-1.69,1.25-2.47,2.44-2.69,9.88-1.78,19.07-6.01,29.98-1.69,16.66,6.6,34.66,9.11,52.17,12.95,27.44,6,55.07,11.03,83.16,13,1.68.12,4.32-.17,4.47,2.06.14,2.13-2.49,2.43-4.14,2.83-9.94,2.45-20.1,2.38-30.22,2.11Z"/><path class="cls-3" d="m519.68,711.41c-.05-13.39,9.27-27.1,21.14-31.06,10.95-3.66,18.23,2.78,15.85,14.26-1.75,8.46-3.86,16.84-5.92,25.24-1.22,4.95-1.23,9.85-.17,14.82.34,1.58,1.09,3.49-.39,4.71-1.64,1.35-3.5.28-5.16-.46-6.09-2.71-11.86-5.97-17.1-10.14-5.6-4.46-8.15-10.33-8.25-17.37Z"/><path class="cls-3" d="m1260.61,709.28c.1,7.49-3,13.48-8.97,17.81-5.51,3.99-11.21,7.74-17.72,10.02-2.74.96-5.1.74-4.28-2.83,2.84-12.46-1.57-23.98-4.18-35.74-.61-2.75-1.62-5.44-1.96-8.22-1.16-9.55,7.09-15.4,16.31-11.68,12.49,5.05,20.78,17.27,20.79,30.65Z"/><path class="cls-3" d="m488.85,694.53c-.03-25.74,21.56-41.66,41.06-33.94,6.72,2.66,7.28,6.01,1.85,10.77-8.34,7.32-14.6,16.3-20.64,25.51-3.45,5.26-2.76,11.54-4.8,17.15-1,2.73-1.99,2.82-3.75,1.25-7.35-6.55-13.49-13.82-13.73-20.74Z"/><path class="cls-3" d="m1186.25,813.15c-.45,6.24-1.15,12.78-4.3,18.89-3.77,7.3-9.94,10.89-17.7,12.23-1.93.33-4.05.8-5.52-1.16-1.44-1.92-.57-3.83.31-5.63,8.13-16.73,8.14-34.27,5.47-52.15-.65-4.36-3.84-7.64-4.31-12-.21-1.97-1.04-3.99.89-5.53,2.04-1.63,4.21-.77,6.12.17,5.81,2.85,9.23,7.98,12.17,13.44,5.25,9.78,6.43,20.49,6.87,31.75Z"/><path class="cls-3" d="m1261.42,656.49c12.23.02,19.95,6.79,25.56,16.9,5.44,9.81,6.09,19.45-.27,29.15-2.48,3.78-5.33,7.22-8.73,10.16-2.27,1.96-4.24,1.4-4.44-1.69-1.21-18.38-13.63-30-25.31-41.99-4.42-4.53-4.2-7.36,1.56-10.16,3.1-1.5,7.36-2.37,11.63-2.37Z"/><path class="cls-3" d="m595.28,812.73c.15-11.71,2.63-22.79,8.8-32.83,2.81-4.57,6.15-8.71,11.69-10.25,3.97-1.1,5.73.37,5.19,4.51-.17,1.3-.64,2.57-1.09,3.81-7.35,20.5-6.44,40.68,2.34,60.56.92,2.08,2.58,4.33,1.02,6.54-1.69,2.4-4.54,1.7-6.95,1.36-11.35-1.61-18.69-10.16-20.39-23.76-.41-3.29-.42-6.63-.62-9.95Z"/><path class="cls-3" d="m487.8,639.8c6.75.44,13.23,1.69,19.32,4.64,1.49.72,3.47,1.26,3.48,3.14.01,2.31-2,3.44-3.95,3.93-11.02,2.74-17.16,10.92-22.41,20.02-2.67,4.62-4.89,9.41-3.3,15.1.45,1.61.84,3.9-1.16,4.95-1.98,1.03-3.4-.67-4.82-1.77-12.7-9.76-17.07-23.97-11.14-35.93,4.94-9.98,13.49-13.67,23.98-14.07Z"/><path class="cls-3" d="m1292.79,637.56c10.2-.24,18.2,3.75,22.97,12.87,4.99,9.55,3.79,18.91-2.15,27.76-2.52,3.75-5.63,6.97-9.16,9.78-1.12.89-2.41,2.03-4.03,1.15-1.42-.77-1.16-2.28-1.15-3.57.2-17.76-9.03-29.02-24.66-35.93-2.04-.9-5.03-1.38-4.93-4.21.08-2.45,2.84-3.03,4.76-3.85,5.85-2.5,11.92-4.11,18.35-4Z"/><path class="cls-3" d="m589.31,754.09c-20.04-1.5-31.11-17-25.89-36.11,1.14-4.16,2.42-8.29,3.62-12.43,1-3.45,3.11-4.64,6.76-4.05,12.04,1.96,18.45,12.86,14.22,24.39-3.06,8.34-3.24,16.27,3.65,23.08,1.25,1.23,3.66,2.3,2.88,4.23-.99,2.43-3.55.62-5.24.9Z"/><path class="cls-3" d="m1218.62,725.82c2.02,11.54-14.55,25.42-24.43,25.87-2.53.12-5.97,2.17-7.46-.32-1.76-2.92,2.2-4.23,3.75-6.1,5.2-6.25,5.68-13.53,2.4-20.13-6.42-12.91,3.53-22.15,13.13-25.11,3.46-1.07,6.15-.51,7.4,3.47,2.28,7.26,5.19,14.37,5.21,22.31Z"/><path class="cls-3" d="m558.81,816.75c.47-10.06,6.47-16.91,13.42-23.02,3.21-2.82,6.97-5.04,10.61-7.33,1.67-1.05,3.88-1.73,5.5-.19,1.45,1.37.19,3.11-.5,4.58-6.06,12.96-7.56,26.41-4.39,40.37.95,4.17-1.7,7.01-5.89,6.33-7.58-1.23-16.61-9.76-18.3-17.34-.25-1.13-.3-2.3-.44-3.39Z"/><path class="cls-3" d="m1222.2,812.3c.15,10.23-9.82,20.8-19.2,21.21-4.62.2-5.8-1.32-5.06-5.75,2.25-13.39,1.16-26.42-4.63-38.87-.83-1.79-2.16-3.72-.46-5.49,1.56-1.62,3.47-.48,5.06.33,9.24,4.68,16.9,11.09,21.82,20.4,1.5,2.83,2.29,5.85,2.46,8.17Z"/><path class="cls-3" d="m598.33,726.02c-.06-7.65,1.94-8.94,8.85-5.7,5.79,2.72,12,3.99,18.22,5.1,3.32.59,4.47,2.25,4.5,5.39.08,7.65.27,15.3.49,22.95.1,3.46-2.16,3.17-4.39,2.95-14.88-1.49-27.55-15.55-27.67-30.69Z"/><path class="cls-3" d="m1150.9,740.14q-.04-14.68,13.92-18.59c3.66-1.03,7.27-2.22,10.71-3.95,4.31-2.16,6.55-.75,7.03,4.05,1.54,15.47-12.67,32.28-28.06,33.28-2.58.17-3.68-.77-3.62-3.36.08-3.81.02-7.62.02-11.44Z"/><path class="cls-3" d="m1245.74,811.5c-11.3-.79-13.92-3.06-17.34-12.77-1.29-3.67.62-4.82,3.79-3.51,8.44,3.5,17.02,6.44,26.11,7.72,1.29.18,2.9.65,3.01,2.15.1,1.43-1.33,1.95-2.56,2.61-4.46,2.35-9.57,2.02-13.01,3.8Z"/><path class="cls-3" d="m536.82,813.52c-6,.13-10.87-.68-15.4-3.03-1.02-.53-2.18-1.2-1.93-2.57.21-1.1,1.39-1.45,2.33-1.62,9.34-1.75,18.3-4.61,27.09-8.24,3.53-1.46,4.41.74,3.56,3.97-2.34,8.85-6.09,11.47-15.64,11.5Z"/><path class="cls-3" d="m637.49,740.29c-.15-3.94,1.42-7.67,4.24-10.95,1.27-1.48,2.78-2.44,4.8-1.86,1.82.52,2.84,2.04,2.89,3.71.21,7.48,1.17,14.86,2.32,22.23.42,2.69-1.15,3.46-3.72,2.9-6.36-1.4-10.56-7.54-10.53-16.04Z"/><path class="cls-3" d="m1143.67,739.61c-.09,6.59-3.64,12.48-8.67,14.46-3.08,1.21-4.8.77-4.38-3.09.78-7.06,1.42-14.14,2.11-21.21.15-1.51.28-3.05,1.86-3.79,1.9-.89,3.16.42,4.34,1.54,3.44,3.28,4.83,7.4,4.73,12.09Z"/><path class="cls-3" d="m896.72,951.12c3.75.7,6.26-2.55,9.64-3.02,1.19-.17,2.69-.44,2.69,1.17,0,1.64-1.53.34-2.28.66-3.19,1.34-6.4,2.46-10.05,1.19Z"/><path class="cls-3" d="m924.56,946.14c-2.8,2.53-4.88,4.57-9.14,3.55,3.11-1.88,5.16-3.99,9.14-3.55Z"/><path class="cls-2" d="m874.37,626.61c-3.57-5.82-6.58-10.77-9.65-15.68-1.17-1.86.03-3.12.9-4.5,5.05-8.02,10.04-16.07,15.19-24.03,2.25-3.47,1.97-4.81-2.57-4.57-3.93.2-9.68,1.81-11.4-.69-1.95-2.84,1.3-7.7,2.51-11.61,6.15-19.81,12.35-39.6,18.56-59.38.97-3.07,2.11-6.09,3.56-10.23,4.02,9.04,5.84,17.46,8.5,25.58,5.68,17.36,10.93,34.87,16.59,52.24,1.17,3.58.22,4.33-3.14,4.23-4.82-.15-9.68.36-14.46-.1-4.57-.44-6.36,1.52-7.82,5.53-4.93,13.59-10.25,27.04-15.42,40.54-.22.57-.55,1.11-1.34,2.67Z"/><path class="cls-2" d="m1028.66,637.83c-21.61.32-32.16-14.71-28.09-35.36,1.48-7.51,6.04-12.87,12.71-16.37,13.42-7.05,31.96-3.29,39.12,7.98,6.39,10.05,5.94,20.64,1.02,30.94-4.05,8.47-13.3,12.82-24.76,12.81Zm12.3-27.44c.07-.47.28-1.29.3-2.12.18-8.5-4.79-15.13-11.6-15.52-8.04-.46-13.37,4.79-14.14,14.05-.4,4.84-.47,9.65,1.71,14.2,2.33,4.87,6.17,7.24,11.57,7.08,5.08-.15,9.07-3.14,10.98-7.98,1.2-3.05,1.11-6.19,1.19-9.7Z"/><path class="cls-2" d="m925.9,636.34c-5.15,1.56-7.9-1.26-8.76-6.78-.46-2.97-2.13-4.26-5.21-3.9-1.81.21-3.68.21-5.49,0-6.48-.73-11.89,0-12.81,8.1-.22,1.93-1.68,2.5-3.6,2.69-13.31,1.31-13.33,1.25-8.59-10.9,4.89-12.54,9.67-25.13,14.33-37.76,1.09-2.95,2.66-3.96,5.84-3.98,13.1-.09,13.14-.22,17.78,12,4.43,11.66,8.77,23.36,13.15,35.05q2.03,5.41-3.91,5.47c-.67,0-1.33,0-2.74,0Zm-19.33-39.11c-2.58,3.66-2.95,7.16-4.04,10.34-2.98,8.66-2.11,9.58,6.88,8.28,2-.29,2.65-1.04,2.08-2.89-1.55-5-3.12-10-4.91-15.74Z"/><path class="cls-2" d="m966.11,637.77c-10.5-.25-19.92-3.96-24.55-14.68-4.8-11.1-4.29-22.19,3.78-31.92,10.73-12.93,36.55-11.29,43.91,2.64,3.28,6.2,2.56,7.42-4.22,7.53-4.36.07-7.91.06-10.43-5.09-2.68-5.48-11.52-5.06-15.96-.11-5.59,6.24-5.73,21.74-.26,28.13,4.89,5.7,14.47,4.99,16.99-1.85,1.63-4.41,3.99-5.05,7.76-4.56.33.04.66.02,1,.03,8.18.09,8.96,1.31,4.92,8.57-4.86,8.72-12.93,11.4-22.94,11.31Z"/><path class="cls-2" d="m778.57,610.43c0-7.15.12-14.31-.05-21.46-.07-3.11.71-4.43,4.13-4.41,9.97.06,19.96-.07,29.92-.48,3.98-.16,4.35,1.77,4.11,4.82-.22,2.8,1,6.22-4.12,5.89-4.97-.33-9.99.24-14.96-.08-4.15-.27-4.93,1.47-5.01,5.21-.09,3.91,1.7,4.35,4.81,4.2,3.49-.17,7.02.27,10.47-.1,5.2-.56,4.31,2.87,4.63,6,.39,3.91-1.23,4.94-4.84,4.7-3.81-.25-7.65-.09-11.48,0-5.66.13-2.82,4.53-3.38,7.11-.57,2.63.12,4.44,3.56,4.29,5.65-.25,11.32.05,16.97-.18,3.74-.15,3.63,2.19,3.26,4.54-.36,2.31,1.9,6.08-3.25,6.06-10.32-.04-20.63.05-30.95.26-3,.06-3.59-1.26-3.55-3.89.12-7.49.04-14.97.04-22.46-.1,0-.2,0-.3,0Z"/><path class="cls-2" d="m849.29,621.42c-3.01,2.69-4.73,5.94-6.28,9.14-2.21,4.57-5.27,6.82-10.49,6.01-2.27-.35-4.64-.06-6.97-.06-.79-2.35.97-3.56,1.84-4.99,3.82-6.24,7.72-12.44,11.71-18.58,1.53-2.36,1.65-4.31-.04-6.79-4.21-6.18-8.07-12.59-12.16-18.85-1.59-2.43-.88-3.27,1.79-3.17.5.02,1.01.08,1.5,0,7.74-1.39,13.1,1.14,15.54,9.02.51,1.66,1.4,3.98,3.18,4.18,2.13.24,2.23-2.46,3.22-3.87.38-.54.73-1.12,1.06-1.69,4.65-7.87,7.47-9.16,16.41-7.91,3.19.45,1.9,1.94,1.04,3.35-3.89,6.39-7.69,12.85-11.82,19.08-1.56,2.34-1.49,4.08-.08,6.31,4.26,6.75,8.32,13.63,12.62,20.35,1.66,2.6,1.11,3.51-1.83,3.48-2.83-.02-5.67-.09-8.48.1-2.32.15-3.66-.77-4.73-2.79-2.17-4.09-4.57-8.06-7.02-12.33Z"/><path class="cls-2" d="m753.79,616.15c0,5.49-.11,10.98.04,16.46.08,2.82-.6,4.15-3.8,4.29-10.16.42-10.13.55-10.15-9.79-.02-9.15-.17-18.29-.12-27.44.02-3.02-1.16-4.26-4.17-3.96-1.65.17-3.32.08-4.99.1-6.54.06-8.29-2.35-6.6-8.82.42-1.62,1.31-2.12,2.82-2.13,12.94-.03,25.89,0,38.83-.14,6.23-.06,3.03,4.56,3.63,7.16.71,3.12-1.13,3.8-4.03,3.82-11.5.06-11.5.15-11.54,11.47-.01,2.99,0,5.99,0,8.98.02,0,.05,0,.07,0Z"/><path class="cls-2" d="m931.16,883.77c.53-2.32,1.11-4.63,1.58-6.96.33-1.62,1.29-2.11,2.85-2.09,1.8.03,2.28,1.09,2.28,2.58.02,3.49,0,6.98-.02,10.48,0,1.01-.07,2.18-1.35,2.29-1.75.15-1.61-1.26-1.63-2.41-.02-1.48,0-2.95,0-4.78-2.16,1.05-1.8,2.86-2.27,4.21-.43,1.23-.36,2.86-2.06,3.04-2.21.23-1.97-1.78-2.45-3.08-.27-.75-.49-1.51-.75-2.3-.54.17-.88.18-1.04.35-1.29,1.46.91,5.01-1.71,4.88-2.97-.15-1.36-3.46-1.56-5.37-.24-2.3-.04-4.65-.02-6.98,0-1.39.1-2.65,1.94-2.91,1.81-.25,2.8.34,3.2,2.18.51,2.32,1.22,4.59,1.85,6.88h1.16Z"/><path class="cls-2" d="m844.06,882.2c0-.33-.04-.67,0-.99.33-2.15-1.39-5.45,1.25-6.19,2.83-.79,6.26-.82,9.19.65.78.39,1.79,1.57,1.69,2.24-.56,3.85-.35,7.66.06,11.49.08.73-.61,1.1-1.36,1.05-1.2-.08-1.8-.82-1.81-1.94-.01-2.44-.58-4.27-3.6-4.1-2.98.17-2.03,2.42-2.23,4.05-.13,1.07-.4,2.04-1.71,1.92-1.3-.12-1.4-1.2-1.41-2.21-.02-1.99,0-3.97,0-5.96h-.08Zm6.97-4.57c-2.21-.07-3.58-.06-3.7,1.83-.1,1.72.84,2.37,2.44,2.32,1.5-.05,3.29.03,3.5-1.91.22-2.09-1.54-2.18-2.24-2.23Z"/><path class="cls-2" d="m890.57,886.13c-.2,1.4.28,3.84-.51,3.76-3.5-.35-6.87,2.46-10.39.26-2.98-1.87-4.34-8.03-2.38-11.79,2.04-3.91,5.44-4.62,9.32-3.46,1.75.52,3.96,2.06,3.25,3.73-.96,2.29-2.61.26-3.87-.58-1.56-1.05-3.18-1.12-4.57.15-1.9,1.73-2.21,4.02-1.69,6.42.44,2.03,1.89,3.05,3.88,3.31,1.44.19,2.78-.32,3.38-1.59.94-1.98-1.02-1.47-1.9-1.85-.71-.31-1.1-.86-.75-1.53.53-1.04,1.65-.99,2.63-.99,1.29,0,2.83-.3,3.37,1.34.3.91.17,1.96.22,2.82Z"/><path class="cls-2" d="m861.04,882.69c0-.66-.08-1.34.02-1.99.28-1.89-1.02-4.88.96-5.46,2.9-.85,6.21-.32,9.34-.29.28,0,.74.7.8,1.11.11.71-.33,1.24-1.08,1.38-.49.09-1.01.03-1.48.15-1.72.45-4.83-1.31-4.92,1.52-.09,2.9,3.07,1.37,4.79,1.76.82.19,1.81.21,1.91,1.2.14,1.41-1.06,1.42-2.04,1.49-.83.05-1.66.03-2.49.03-1.27,0-2.39.31-2.47,1.81-.09,1.65.88,2.16,2.46,2.43,1.89.32,5.38-1.42,5.29,1.49-.07,2.29-3.62,1.07-5.59,1.13-5.39.17-5.39.06-5.51-7.77Z"/><path class="cls-2" d="m907.64,874.78c1.16,0,2.32-.01,3.48,0,.99,0,2.2-.13,2.45,1.11.29,1.51-1.06,1.42-1.97,1.46-2.85.13-2.33,2.26-2.4,3.99-.08,1.82.03,3.65-.07,5.46-.07,1.36.57,3.51-1.68,3.4-2.18-.11-1.35-2.27-1.44-3.6-.15-2.14-.07-4.3-.09-6.46-.01-1.15.18-2.38-1.6-2.46-1.23-.06-3.14.22-2.64-1.83.4-1.63,2.22-.95,3.47-1.06.82-.07,1.66-.01,2.48-.02Z"/><path class="cls-3" d="m1040.96,610.39c-.08,3.51,0,6.66-1.19,9.7-1.91,4.85-5.9,7.83-10.98,7.98-5.4.16-9.24-2.21-11.57-7.08-2.18-4.55-2.11-9.36-1.71-14.2.77-9.26,6.1-14.51,14.14-14.05,6.81.39,11.78,7.02,11.6,15.52-.02.82-.23,1.64-.3,2.12Z"/><path class="cls-3" d="m906.57,597.23c1.79,5.74,3.37,10.73,4.91,15.74.57,1.85-.08,2.6-2.08,2.89-8.99,1.3-9.85.38-6.88-8.28,1.09-3.18,1.46-6.68,4.04-10.34Z"/><path class="cls-3" d="m851.03,877.63c.7.05,2.46.14,2.24,2.23-.21,1.94-1.99,1.86-3.5,1.91-1.6.05-2.54-.6-2.44-2.32.11-1.89,1.49-1.89,3.7-1.83Z"/><path class="cls-1" d="m167.05,377.36c.32-.06.48-.08.8-.14-6.5-39.82-12.97-79.64-19.42-119.46,18.16-3.1,36.32-6.1,54.51-9.01,8.65,58.27,17.36,116.53,26.12,174.78-21.65,3.48-43.27,7.1-64.86,10.86-30.15-36.71-60.79-72.99-91.93-108.85-.33.06-.49.09-.81.16,7.47,40.57,14.96,81.13,22.48,121.69-17.35,3.4-34.69,6.88-52.01,10.46-11.5-57.77-22.94-115.56-34.33-173.35,22.73-4.68,45.49-9.21,68.29-13.58,30.87,35.08,61.26,70.56,91.17,106.46Z"/><path class="cls-1" d="m412.45,250.28c-35.04,3.84-70.03,8.07-104.98,12.7,1.71,13.76,3.42,27.51,5.13,41.26,32.56-4.31,65.17-8.28,97.81-11.91.97,9.69,1.95,19.37,2.92,29.06-32.42,3.61-64.79,7.55-97.12,11.84,1.96,15.72,3.93,31.44,5.9,47.15,35.29-4.68,70.62-8.94,106-12.8.96,9.69,1.92,19.38,2.88,29.06-54.25,5.91-108.35,12.84-162.33,20.79-8.18-58.34-16.31-116.68-24.38-175.03,54.98-8.07,110.08-15.14,165.32-21.19.95,9.69,1.9,19.38,2.85,29.07Z"/><path class="cls-1" d="m483.49,213.89c14.38,42.41,28.5,84.92,42.35,127.51.32-.03.48-.04.8-.07,8.12-44.42,16.59-88.77,25.41-133.06,19.12-1.38,38.24-2.66,57.37-3.83,13.78,42.78,27.27,85.66,40.47,128.62.32-.02.48-.03.81-.04,8.79-44.11,17.9-88.15,27.35-132.12,19.13-.8,38.27-1.5,57.41-2.1-16.77,59.33-32.8,118.85-48.1,178.58-21.39.95-42.77,2.04-64.14,3.27-12.83-42.08-25.93-84.07-39.3-125.98-.33.02-.49.03-.82.06-8.46,43.36-16.59,86.78-24.39,130.26-21.37,1.64-42.73,3.42-64.08,5.34-22.2-57.2-45.01-114.15-68.43-170.87,19.09-1.96,38.19-3.81,57.3-5.56Z"/><path class="cls-1" d="m859.84,196.95c11.34.25,22.65.63,33.86,2.36,10.33,1.6,19.25,4.15,26.63,7.73,7.38,3.57,13.06,8.3,17.03,14.14,3.97,5.85,5.82,12.99,5.57,21.4-.28,9.57-4.23,17.81-11.76,24.41-9.12,7.99-21.48,11.79-33.38,13.54,0,.2,0,.3,0,.49,13.83,1.98,26.97,4.46,38.36,13.16,8.97,6.85,13.76,17.55,13.34,28.74-.26,6.88-1.89,13.49-5.02,19.7-3.13,6.21-8.33,11.58-15.47,16.17-8.03,5.16-18.61,8.86-27.8,10.88-13.78,3.03-27.93,3.7-42.1,4-32.28.06-64.56.45-96.83,1.19-.95-58.9-1.85-117.8-2.68-176.7,33.42-.75,66.83-1.15,100.26-1.2Zm-17.78,150.52c11.4.04,23.26-1.2,33.76-5.7,8.58-3.68,13.02-10.73,13.18-20.96.08-5.11-1-9.38-3.24-12.77-2.24-3.39-5.32-6.14-9.21-8.22-3.89-2.08-8.55-3.54-13.96-4.36-5.41-.83-11.36-1.23-17.86-1.21-10.08.04-15.12.07-25.19.17.02,17.74.04,35.48.07,53.21,8.98-.09,13.48-.12,22.46-.16Zm-5.79-77.93c12.09-.4,24.76-.4,35.83-5.37,7.48-3.36,11.39-9.48,11.52-17.89.13-8.41-3.27-14.54-10.05-17.87-9.74-4.78-21.75-5.34-32.59-5.18-8.6.04-12.9.07-21.5.15,0,15.43.01,30.86.02,46.28,6.7-.07,10.06-.09,16.76-.13Z"/><path class="cls-1" d="m1154.11,236.57c-35.01-2.43-70.03-4.47-105.08-6.11-.76,13.84-1.52,27.68-2.27,41.52,32.66,1.53,65.3,3.4,97.92,5.62-.76,9.71-1.52,19.41-2.28,29.12-32.39-2.19-64.79-4.05-97.22-5.57-.86,15.82-1.71,31.63-2.56,47.45,35.39,1.65,70.75,3.72,106.09,6.2-.78,9.7-1.55,19.41-2.33,29.11-54.16-3.79-108.36-6.56-162.63-8.33,2.3-58.86,4.65-117.72,7.06-176.58,55.27,1.81,110.47,4.63,165.64,8.46-.78,9.7-1.57,19.41-2.35,29.11Z"/><path class="cls-1" d="m1300.54,220.19c19.61,2.62,40.1,6.05,56.39,17.69,11.43,8.17,18.17,22.41,16.01,36.49-1.61,10.5-6.74,20.99-15.62,27.37-11.3,8.12-24.73,9.2-38.25,10.09-.02.2-.04.29-.06.49,10.73,2.08,22.37,5.33,30.81,12.32,6.13,5.07,9.36,12.86,9.66,22.87.1,3.34.03,6.95-.21,10.82-.24,3.88-.55,8.21-.91,12.98-.71,9.39-1.08,16.88-.45,21.64.64,4.89,3.91,8.89,8.94,11.35-.08.59-.12.88-.2,1.47-20.55-2.59-41.11-5.04-61.68-7.37-2.61-2.78-4.12-5.81-4.54-9.09-.41-3.28-.56-6.66-.41-10.13.8-11.28,1.59-22.57,2.38-33.85.27-6.94-1.9-12.66-6.54-17.14-4.64-4.48-13.03-7.37-25.13-8.59-10.36-1.05-20.72-2.06-31.08-3.02-2.53,24.79-5.05,49.57-7.57,74.36-19.03-1.74-38.07-3.38-57.12-4.91,5.1-58.69,10.26-117.37,15.48-176.04,36.74,2.96,73.44,6.36,110.1,10.18Zm-34,74.14c10.97,1.2,22.85,1.32,33.17-2.67,8-3.09,12.57-9.65,13.8-19.04,2.74-20.9-22.43-27.33-38.17-28.66-9.32-.94-18.64-1.84-27.96-2.71-1.74,16.91-3.48,33.81-5.21,50.72,9.75.91,14.62,1.38,24.37,2.35Z"/><path class="cls-1" d="m1529.7,250.86c19.45,3.7,39.73,8.26,55.38,20.79,10.97,8.79,16.93,23.37,13.99,37.33-2.19,10.39-7.9,20.59-17.12,26.47-11.74,7.48-25.22,7.81-38.79,7.96-.03.19-.05.29-.09.49,10.61,2.67,22.06,6.56,30.11,14.01,5.84,5.4,8.65,13.36,8.4,23.37-.08,3.34-.35,6.94-.81,10.79-.46,3.86-1,8.16-1.63,12.91-1.23,9.33-2.01,16.8-1.65,21.58.37,4.92,3.42,9.09,8.31,11.83-.11.58-.17.88-.28,1.46-20.39-3.72-40.8-7.31-61.24-10.78-2.46-2.92-3.8-6.03-4.03-9.33-.23-3.3-.19-6.68.15-10.14,1.42-11.22,2.84-22.44,4.25-33.67.66-6.92-1.2-12.75-5.59-17.48-4.39-4.73-12.61-8.08-24.64-9.97-10.29-1.62-20.59-3.2-30.89-4.74-3.9,24.61-7.78,49.22-11.66,73.83-18.92-2.79-37.84-5.48-56.79-8.06,8.34-58.31,16.73-116.62,25.18-174.92,36.55,4.99,73.02,10.41,109.44,16.25Zm-38.07,72.14c10.89,1.81,22.76,2.58,33.3-.83,8.16-2.64,13.09-8.94,14.84-18.24,3.89-20.73-20.92-28.53-36.56-30.73-9.26-1.45-18.52-2.87-27.79-4.25-2.67,16.78-5.34,33.57-8.01,50.35,9.69,1.45,14.54,2.19,24.22,3.69Z"/><path class="cls-1" d="m1711.76,354.31c.32.07.48.1.8.17,18.36-19.43,36.86-38.71,55.51-57.85,21.16,4.73,42.28,9.6,63.38,14.61-33.45,28.61-66.48,57.69-99.1,87.26-5.16,22.6-10.31,45.21-15.45,67.81-18.72-4.07-37.45-8.02-56.21-11.88,4.82-22.68,9.64-45.35,14.47-68.03-17.2-40.08-34.94-79.92-53.21-119.52,22.11,4.13,44.18,8.4,66.23,12.81,8.02,24.82,15.88,49.7,23.57,74.62Z"/></g></svg>